<svg width="97" height="31" viewBox="0 0 97 31" fill="none" xmlns="http://www.w3.org/2000/svg">
<g clip-path="url(#clip0_398_320)">
<path d="M94.6584 4.66471C94.195 4.66492 93.742 4.52828 93.3566 4.27207C92.9712 4.01586 92.6708 3.6516 92.4933 3.22534C92.3159 2.79909 92.2693 2.33 92.3596 1.8774C92.4499 1.4248 92.6729 1.00903 93.0005 0.682673C93.3281 0.356313 93.7455 0.134026 94.1999 0.0439268C94.6544 -0.0461722 95.1255 -3.58322e-05 95.5536 0.176501C95.9818 0.353037 96.3477 0.652043 96.6051 1.0357C96.8626 1.41936 97 1.87043 97 2.33187C96.9995 2.95022 96.7526 3.54311 96.3136 3.98045C95.8747 4.41779 95.2794 4.66387 94.6584 4.66471ZM94.6584 0.473412C94.289 0.473203 93.9278 0.58211 93.6206 0.786356C93.3133 0.990602 93.0738 1.28101 92.9324 1.62083C92.7909 1.96066 92.7538 2.33463 92.8259 2.69544C92.8979 3.05625 93.0757 3.38768 93.337 3.6478C93.5982 3.90792 93.931 4.08504 94.2933 4.15676C94.6557 4.22848 95.0312 4.19156 95.3725 4.05069C95.7137 3.90982 96.0053 3.67131 96.2104 3.36536C96.4156 3.0594 96.5249 2.69974 96.5247 2.33187C96.5239 1.83923 96.327 1.36701 95.9772 1.01867C95.6273 0.67032 95.1531 0.47425 94.6584 0.473412Z" fill="white"/>
<path d="M94.6128 2.64668H94.2256V3.50565H93.7396V1.16224H94.616C94.7395 1.16051 94.8627 1.1758 94.982 1.20767C95.0813 1.23454 95.1743 1.28048 95.2558 1.34291C95.3296 1.4023 95.3882 1.47836 95.4266 1.56478C95.4684 1.66147 95.489 1.76593 95.4871 1.87118C95.4882 1.94932 95.4782 2.02723 95.4574 2.10256C95.4401 2.16748 95.4117 2.22895 95.3735 2.28429C95.3373 2.33766 95.2925 2.38477 95.2409 2.42375C95.1871 2.46596 95.1283 2.50144 95.0659 2.52941L95.5762 3.48663V3.50882H95.0542L94.6128 2.64668ZM94.2256 2.25471H94.6171C94.6739 2.2556 94.7305 2.2474 94.7847 2.23041C94.8295 2.21561 94.8705 2.19107 94.9046 2.15856C94.9362 2.12906 94.9608 2.09299 94.9767 2.05291C94.9933 2.00717 95.0015 1.95888 95.0011 1.91027C95.0038 1.86253 94.9968 1.81475 94.9805 1.76975C94.9643 1.72475 94.9392 1.68344 94.9067 1.64825C94.8671 1.61393 94.8209 1.58784 94.771 1.57151C94.7211 1.55518 94.6684 1.54894 94.616 1.55316H94.2256V2.25471Z" fill="white"/>
<path d="M0 20.5192V0.402588H2.7416V20.5192H0Z" fill="#E47627"/>
<path d="M7.35913 20.5192V0.402588H10.3299L20.2862 15.4615V0.402588H23.0575V20.5192H20.7234L10.1007 4.62664V20.5192H7.35913Z" fill="#E47627"/>
<path d="M33.4466 20.9195C32.6064 20.9187 31.7673 20.8562 30.9363 20.7325C30.1527 20.619 29.3767 20.4581 28.6127 20.2508C28.0068 20.0918 27.4149 19.8837 26.843 19.6285L27.2175 16.7251C27.7374 16.9744 28.3652 17.2333 29.1008 17.5016C29.8787 17.7806 30.6754 18.0048 31.4849 18.1725C32.3386 18.354 33.2092 18.4454 34.0822 18.4451C35.3808 18.4451 36.4124 18.2081 37.1771 17.7341C37.9417 17.26 38.324 16.5205 38.324 15.5153C38.324 14.7588 38.1316 14.1387 37.7468 13.6548C37.362 13.1709 36.7824 12.7574 36.0079 12.4144C35.0618 12.0085 34.0908 11.663 33.1007 11.38C32.0517 11.0765 31.0288 10.6896 30.0419 10.2231C29.1569 9.81732 28.3862 9.20039 27.7979 8.42699C27.232 7.67544 26.9491 6.67701 26.9491 5.4317C26.9315 4.42829 27.2209 3.44331 27.7788 2.60756C28.3326 1.78909 29.1461 1.14988 30.2191 0.689935C31.2921 0.229987 32.607 1.25367e-05 34.1639 1.25367e-05C35.3967 -0.0113772 36.626 0.133475 37.8221 0.431082C38.7667 0.66068 39.6871 0.979072 40.5712 1.38197L40.2826 4.28429C39.3026 3.68426 38.2473 3.21569 37.1442 2.89071C36.1394 2.61116 35.101 2.47004 34.0578 2.47126C32.8737 2.47126 31.8947 2.69173 31.1209 3.13266C30.3471 3.57359 29.9599 4.29204 29.9591 5.28801C29.9591 5.95926 30.1324 6.50761 30.479 6.93304C30.8256 7.35848 31.3388 7.72404 32.0185 8.02973C32.8506 8.38465 33.7034 8.68913 34.5723 8.94153C35.8251 9.30063 37.0388 9.78303 38.1956 10.3816C39.2057 10.9225 39.9799 11.5882 40.5181 12.3785C41.0564 13.1688 41.3255 14.1492 41.3255 15.3199C41.3378 16.1213 41.1703 16.9154 40.8354 17.6443C40.4985 18.3458 39.9926 18.9534 39.3627 19.4129C38.7091 19.901 37.8893 20.2744 36.9033 20.5329C35.9173 20.7914 34.7651 20.9202 33.4466 20.9195Z" fill="white"/>
<path d="M48.5404 20.5192V2.87384H42.6519V0.402588H57.1694V2.87384H51.282V20.5181L48.5404 20.5192Z" fill="white"/>
<path d="M59.9109 20.5191V0.402588H72.2332V2.87384H62.6525V8.76934H70.2704V11.2406H62.6525V18.0521H72.4932V20.5234L59.9109 20.5191Z" fill="white"/>
<path d="M75.8979 20.5192V0.402588H82.5642C83.9215 0.402588 85.1144 0.618123 86.1429 1.04919C87.1516 1.46221 87.9957 2.19439 88.545 3.13269C89.1179 4.09062 89.4044 5.35495 89.4044 6.92568C89.4044 8.46823 89.1179 9.72094 88.545 10.6838C87.9933 11.6285 87.1511 12.3716 86.1429 12.8032C85.1137 13.2533 83.9208 13.4784 82.5642 13.4784H78.7838V20.5192H75.8979ZM78.7838 11.0356H82.1599C83.6326 11.0356 84.7367 10.7028 85.4723 10.0372C86.208 9.37157 86.5761 8.34391 86.5768 6.95421C86.5768 5.55675 86.2281 4.5224 85.5307 3.85114C84.8333 3.17988 83.71 2.84461 82.161 2.84531H78.7838V11.0356Z" fill="white"/>
<path d="M1.99773 30.888V25.9518H0.351074V25.2609H4.41149V25.9518H2.76483V30.888H1.99773Z" fill="white"/>
<path d="M8.00415 30.888V25.2609H11.4513V25.9518H8.77125V27.6H10.9017V28.291H8.77125V30.1928H11.5235V30.8838L8.00415 30.888Z" fill="white"/>
<path d="M17.7314 31C17.2192 31.0092 16.7135 30.8854 16.264 30.6408C15.8371 30.403 15.486 30.0505 15.2508 29.6234C15.0066 29.1431 14.8794 28.6123 14.8794 28.0739C14.8794 27.5356 15.0066 27.0048 15.2508 26.5245C15.4902 26.0966 15.8458 25.7444 16.2768 25.5081C16.7324 25.2625 17.2441 25.1384 17.7621 25.1478C18.0393 25.147 18.3156 25.1782 18.5855 25.2408C18.8221 25.2938 19.052 25.3732 19.2709 25.4775L19.1902 26.1854C18.9762 26.0843 18.7536 26.0022 18.525 25.9402C18.2739 25.8701 18.0144 25.8345 17.7537 25.8346C17.3593 25.8209 16.9698 25.925 16.6354 26.1336C16.3349 26.3321 16.0975 26.6117 15.951 26.9397C15.7927 27.2951 15.7138 27.6805 15.7197 28.0692C15.7139 28.4576 15.7917 28.8427 15.9479 29.1986C16.0913 29.5267 16.3267 29.8066 16.6258 30.0048C16.9579 30.2134 17.3454 30.3176 17.7377 30.3038C17.9994 30.3061 18.2603 30.2759 18.5144 30.214C18.7475 30.1547 18.974 30.0718 19.1902 29.9667L19.2709 30.6736C19.0511 30.771 18.8227 30.8477 18.5887 30.9028C18.3078 30.9689 18.02 31.0016 17.7314 31Z" fill="white"/>
<path d="M23.0107 30.888V25.2609H23.7778V27.5853H26.6521V25.2609H27.4181V30.888H26.6521V28.3079H23.7778V30.888H23.0107Z" fill="white"/>
<path d="M31.5359 30.888V25.2609H32.3666L35.1517 29.4775V25.2609H35.9273V30.888H35.2738L32.303 26.4421V30.888H31.5359Z" fill="white"/>
<path d="M42.5066 31.0001C42.0039 31.0092 41.5078 30.8852 41.0689 30.6409C40.6498 30.4011 40.307 30.0485 40.0801 29.6234C39.8441 29.1407 39.7214 28.6109 39.7214 28.074C39.7214 27.5371 39.8441 27.0073 40.0801 26.5246C40.3074 26.1 40.65 25.7478 41.0689 25.5082C41.5107 25.2717 42.0045 25.1479 42.5061 25.1479C43.0076 25.1479 43.5014 25.2717 43.9432 25.5082C44.3623 25.7475 44.7051 26.0998 44.932 26.5246C45.1686 27.0071 45.2916 27.537 45.2916 28.074C45.2916 28.611 45.1686 29.1409 44.932 29.6234C44.7054 30.0487 44.3626 30.4014 43.9432 30.6409C43.5047 30.8853 43.009 31.0092 42.5066 31.0001ZM42.5066 30.2605C42.8895 30.2743 43.2676 30.173 43.592 29.97C43.8808 29.7752 44.107 29.5015 44.2434 29.1818C44.5389 28.4715 44.5389 27.6734 44.2434 26.963C44.1059 26.6428 43.8781 26.369 43.5877 26.1749C43.258 25.9839 42.8833 25.8833 42.5018 25.8833C42.1203 25.8833 41.7457 25.9839 41.4159 26.1749C41.1258 26.3693 40.8981 26.643 40.7602 26.963C40.4661 27.6736 40.4661 28.4712 40.7602 29.1818C40.8981 29.5018 41.1258 29.7755 41.4159 29.97C41.7417 30.1741 42.1219 30.2753 42.5066 30.2605Z" fill="white"/>
<path d="M49.0857 30.888V25.2609H49.8528V30.197H52.4437V30.888H49.0857Z" fill="white"/>
<path d="M58.2239 31.0001C57.7212 31.0092 57.225 30.8852 56.7862 30.6409C56.367 30.4011 56.0243 30.0485 55.7974 29.6234C55.5614 29.1407 55.4387 28.6109 55.4387 28.074C55.4387 27.5371 55.5614 27.0073 55.7974 26.5246C56.0246 26.1 56.3673 25.7478 56.7862 25.5082C57.228 25.2717 57.7218 25.1479 58.2233 25.1479C58.7249 25.1479 59.2187 25.2717 59.6605 25.5082C60.0796 25.7475 60.4224 26.0998 60.6493 26.5246C60.8859 27.0071 61.0089 27.537 61.0089 28.074C61.0089 28.611 60.8859 29.1409 60.6493 29.6234C60.4227 30.0487 60.0799 30.4014 59.6605 30.6409C59.222 30.8853 58.7262 31.0092 58.2239 31.0001ZM58.2239 30.2605C58.6067 30.2743 58.9849 30.173 59.3093 29.97C59.5997 29.7758 59.8274 29.502 59.965 29.1818C60.2604 28.4715 60.2604 27.6734 59.965 26.963C59.8274 26.6428 59.5997 26.369 59.3093 26.1749C58.9795 25.9839 58.6048 25.8833 58.2233 25.8833C57.8419 25.8833 57.4672 25.9839 57.1374 26.1749C56.847 26.369 56.6193 26.6428 56.4817 26.963C56.1877 27.6736 56.1877 28.4712 56.4817 29.1818C56.6193 29.502 56.847 29.7758 57.1374 29.97C57.4621 30.1732 57.8406 30.2745 58.2239 30.2605Z" fill="white"/>
<path d="M67.2403 31C66.7466 31.0074 66.2598 30.8834 65.8303 30.6408C65.4103 30.4002 65.0663 30.0474 64.8372 29.6223C64.584 29.1431 64.4584 28.6073 64.4722 28.066C64.4583 27.5263 64.5883 26.9926 64.8489 26.5192C65.0922 26.0908 65.4518 25.7392 65.8865 25.5049C66.3502 25.2595 66.8691 25.1358 67.3942 25.1457C67.6869 25.1444 67.9788 25.1763 68.2642 25.2408C68.5109 25.2941 68.7521 25.3701 68.9846 25.4679L68.9114 26.1346C68.6829 26.0469 68.4481 25.9763 68.209 25.9233C67.9496 25.8653 67.6844 25.8369 67.4186 25.8388C66.9369 25.8388 66.5404 25.9384 66.2292 26.1378C65.9235 26.3313 65.6826 26.6113 65.5375 26.9418C65.3869 27.3026 65.3094 27.6895 65.3094 28.0802C65.3094 28.471 65.3869 28.8578 65.5375 29.2187C65.6858 29.5496 65.9324 29.8272 66.2441 30.0142C66.6125 30.2216 67.0318 30.3226 67.4547 30.3058C67.6058 30.3038 67.7567 30.2932 67.9067 30.2741C68.0752 30.2549 68.2406 30.2144 68.3989 30.1537V28.758H67.5109V28.066H69.166V30.5742C68.9056 30.7096 68.629 30.8115 68.3427 30.8774C67.9817 30.963 67.6115 31.0042 67.2403 31Z" fill="white"/>
<path d="M73.0535 30.888V25.2609H73.8195V30.888H73.0535Z" fill="white"/>
<path d="M77.9371 30.888V25.2609H81.3843V25.9518H78.7042V27.6H80.8347V28.291H78.7042V30.1928H81.4564V30.8838L77.9371 30.888Z" fill="white"/>
<path d="M86.8485 31.0001C86.6137 31.0002 86.3793 30.9829 86.1472 30.9483C85.9279 30.9167 85.7107 30.8719 85.4968 30.8141C85.3267 30.7693 85.1606 30.7107 85.0002 30.6387L85.1063 29.8273C85.2513 29.8977 85.4282 29.9699 85.6368 30.0439C85.8549 30.1224 86.0783 30.1856 86.3053 30.233C86.5442 30.2837 86.7878 30.3092 87.032 30.3091C87.3316 30.3231 87.6293 30.2548 87.8925 30.1115C87.997 30.0463 88.0818 29.9541 88.1378 29.8447C88.1939 29.7353 88.2191 29.6128 88.2108 29.4903C88.219 29.3033 88.162 29.1193 88.0495 28.9694C87.9176 28.8167 87.751 28.6976 87.5636 28.6218C87.2987 28.5085 87.0269 28.4118 86.7498 28.3323C86.4566 28.2474 86.1706 28.1393 85.8947 28.009C85.6471 27.8956 85.4314 27.7232 85.2666 27.5071C85.1138 27.2628 85.0329 26.9808 85.0329 26.6931C85.0329 26.4053 85.1138 26.1233 85.2666 25.879C85.4366 25.6377 85.6737 25.4511 85.9488 25.3423C86.2991 25.2032 86.6741 25.1364 87.0511 25.1458C87.3958 25.1426 87.7395 25.1831 88.0739 25.2662C88.3382 25.3306 88.5957 25.4198 88.8431 25.5325L88.7625 26.3439C88.488 26.1763 88.1927 26.0452 87.884 25.954C87.6021 25.8762 87.3108 25.8371 87.0182 25.8378C86.733 25.8269 86.4498 25.8906 86.197 26.0227C86.0913 26.0823 86.0047 26.1705 85.9473 26.2771C85.8898 26.3836 85.8638 26.5043 85.8724 26.6249C85.8648 26.7907 85.9163 26.9539 86.0177 27.0856C86.1354 27.2199 86.2834 27.3246 86.4496 27.3909C86.6821 27.4907 86.9205 27.5761 87.1636 27.6466C87.514 27.7472 87.8535 27.8824 88.1769 28.0502C88.4359 28.1812 88.6592 28.373 88.8272 28.6091C88.9848 28.8538 89.0636 29.1406 89.0532 29.4311C89.0564 29.6556 89.0093 29.8779 88.9153 30.0819C88.8217 30.2784 88.6801 30.4484 88.5036 30.5764C88.2971 30.7251 88.0636 30.8327 87.8161 30.8934C87.4994 30.9696 87.1743 31.0054 86.8485 31.0001Z" fill="white"/>
</g>
<defs>
<clipPath id="clip0_398_320">
<rect width="97" height="31" fill="white"/>
</clipPath>
</defs>
</svg>
