<svg width="97" height="31" viewBox="0 0 97 31" fill="none" xmlns="http://www.w3.org/2000/svg">
<g clip-path="url(#clip0_405_343)">
<path d="M94.6584 4.66459C94.195 4.6648 93.742 4.52816 93.3566 4.27195C92.9712 4.01574 92.6708 3.65147 92.4933 3.22522C92.3159 2.79897 92.2693 2.32988 92.3596 1.87728C92.4499 1.42468 92.6729 1.00891 93.0005 0.682551C93.3281 0.356191 93.7455 0.133904 94.1999 0.0438047C94.6544 -0.0462943 95.1255 -0.000157902 95.5536 0.176379C95.9818 0.352915 96.3477 0.651921 96.6051 1.03558C96.8626 1.41924 97 1.87031 97 2.33175C96.9995 2.9501 96.7526 3.54298 96.3136 3.98033C95.8747 4.41767 95.2794 4.66375 94.6584 4.66459ZM94.6584 0.47329C94.289 0.473081 93.9278 0.581988 93.6206 0.786234C93.3133 0.99048 93.0738 1.28089 92.9324 1.62071C92.7909 1.96053 92.7538 2.33451 92.8259 2.69532C92.8979 3.05613 93.0757 3.38756 93.337 3.64768C93.5982 3.9078 93.931 4.08492 94.2933 4.15664C94.6557 4.22835 95.0312 4.19144 95.3725 4.05057C95.7137 3.90969 96.0053 3.67119 96.2104 3.36524C96.4156 3.05928 96.5249 2.69961 96.5247 2.33175C96.5239 1.83911 96.327 1.36689 95.9772 1.01854C95.6273 0.670198 95.1531 0.474128 94.6584 0.47329Z" fill="white"/>
<path d="M94.6128 2.64656H94.2256V3.50553H93.7396V1.16212H94.616C94.7395 1.16039 94.8627 1.17568 94.982 1.20755C95.0813 1.23442 95.1743 1.28036 95.2558 1.34279C95.3296 1.40218 95.3882 1.47824 95.4266 1.56466C95.4684 1.66134 95.489 1.7658 95.4871 1.87106C95.4882 1.9492 95.4782 2.0271 95.4574 2.10244C95.4401 2.16736 95.4117 2.22883 95.3735 2.28417C95.3373 2.33754 95.2925 2.38465 95.2409 2.42363C95.1871 2.46584 95.1283 2.50132 95.0659 2.52928L95.5762 3.48651V3.5087H95.0542L94.6128 2.64656ZM94.2256 2.25458H94.6171C94.6739 2.25548 94.7305 2.24727 94.7847 2.23028C94.8295 2.21549 94.8705 2.19095 94.9046 2.15844C94.9362 2.12894 94.9608 2.09286 94.9767 2.05278C94.9933 2.00705 95.0015 1.95876 95.0011 1.91015C95.0038 1.86241 94.9968 1.81463 94.9805 1.76963C94.9643 1.72463 94.9392 1.68332 94.9067 1.64813C94.8671 1.61381 94.8209 1.58772 94.771 1.57139C94.7211 1.55506 94.6684 1.54882 94.616 1.55304H94.2256V2.25458Z" fill="white"/>
<path d="M0 20.519V0.402466H2.7416V20.519H0Z" fill="#E47627"/>
<path d="M7.35913 20.519V0.402466H10.3299L20.2862 15.4614V0.402466H23.0575V20.519H20.7234L10.1007 4.62652V20.519H7.35913Z" fill="#E47627"/>
<path d="M33.4466 20.9195C32.6064 20.9187 31.7673 20.8562 30.9363 20.7325C30.1527 20.619 29.3767 20.4581 28.6127 20.2508C28.0068 20.0918 27.4149 19.8837 26.843 19.6285L27.2175 16.7251C27.7374 16.9744 28.3652 17.2333 29.1008 17.5016C29.8787 17.7806 30.6754 18.0048 31.4849 18.1725C32.3386 18.354 33.2092 18.4454 34.0822 18.4451C35.3808 18.4451 36.4124 18.2081 37.1771 17.7341C37.9417 17.26 38.324 16.5205 38.324 15.5153C38.324 14.7588 38.1316 14.1387 37.7468 13.6548C37.362 13.1709 36.7824 12.7574 36.0079 12.4144C35.0618 12.0085 34.0908 11.663 33.1007 11.38C32.0517 11.0765 31.0288 10.6896 30.0419 10.2231C29.1569 9.81732 28.3862 9.20039 27.7979 8.42699C27.232 7.67544 26.9491 6.67701 26.9491 5.4317C26.9315 4.42829 27.2209 3.44331 27.7788 2.60756C28.3326 1.78909 29.1461 1.14988 30.2191 0.689935C31.2921 0.229987 32.607 1.25367e-05 34.1639 1.25367e-05C35.3967 -0.0113772 36.626 0.133475 37.8221 0.431082C38.7667 0.66068 39.6871 0.979072 40.5712 1.38197L40.2826 4.28429C39.3026 3.68426 38.2473 3.21569 37.1442 2.89071C36.1394 2.61116 35.101 2.47004 34.0578 2.47126C32.8737 2.47126 31.8947 2.69173 31.1209 3.13266C30.3471 3.57359 29.9599 4.29204 29.9591 5.28801C29.9591 5.95926 30.1324 6.50761 30.479 6.93304C30.8256 7.35848 31.3388 7.72404 32.0185 8.02973C32.8506 8.38465 33.7034 8.68913 34.5723 8.94153C35.8251 9.30063 37.0388 9.78303 38.1956 10.3816C39.2057 10.9225 39.9799 11.5882 40.5181 12.3785C41.0564 13.1688 41.3255 14.1492 41.3255 15.3199C41.3378 16.1213 41.1703 16.9154 40.8354 17.6443C40.4985 18.3458 39.9926 18.9534 39.3627 19.4129C38.7091 19.901 37.8893 20.2744 36.9033 20.5329C35.9173 20.7914 34.7651 20.9202 33.4466 20.9195Z" fill="white"/>
<path d="M48.5404 20.519V2.87372H42.6519V0.402466H57.1694V2.87372H51.282V20.518L48.5404 20.519Z" fill="white"/>
<path d="M59.9109 20.519V0.402466H72.2332V2.87372H62.6525V8.76922H70.2704V11.2405H62.6525V18.052H72.4932V20.5233L59.9109 20.519Z" fill="white"/>
<path d="M75.8979 20.519V0.402466H82.5642C83.9215 0.402466 85.1144 0.618 86.1429 1.04907C87.1516 1.46209 87.9957 2.19427 88.545 3.13257C89.1179 4.0905 89.4044 5.35483 89.4044 6.92556C89.4044 8.46811 89.1179 9.72082 88.545 10.6837C87.9933 11.6284 87.1511 12.3715 86.1429 12.8031C85.1137 13.2532 83.9208 13.4782 82.5642 13.4782H78.7838V20.519H75.8979ZM78.7838 11.0355H82.1599C83.6326 11.0355 84.7367 10.7027 85.4723 10.0371C86.208 9.37145 86.5761 8.34379 86.5768 6.95408C86.5768 5.55663 86.2281 4.52228 85.5307 3.85102C84.8333 3.17976 83.71 2.84449 82.161 2.84519H78.7838V11.0355Z" fill="white"/>
<path d="M1.99773 30.888V25.9518H0.351074V25.2609H4.41149V25.9518H2.76483V30.888H1.99773Z" fill="white"/>
<path d="M8.00415 30.888V25.2609H11.4513V25.9518H8.77125V27.6H10.9017V28.291H8.77125V30.1928H11.5235V30.8838L8.00415 30.888Z" fill="white"/>
<path d="M17.7314 30.9999C17.2192 31.0091 16.7135 30.8853 16.264 30.6407C15.8371 30.4029 15.486 30.0503 15.2508 29.6232C15.0066 29.1429 14.8794 28.6121 14.8794 28.0738C14.8794 27.5355 15.0066 27.0047 15.2508 26.5244C15.4902 26.0964 15.8458 25.7442 16.2768 25.508C16.7324 25.2624 17.2441 25.1383 17.7621 25.1477C18.0393 25.1469 18.3156 25.1781 18.5855 25.2407C18.8221 25.2937 19.052 25.3731 19.2709 25.4774L19.1902 26.1852C18.9762 26.0841 18.7536 26.0021 18.525 25.9401C18.2739 25.87 18.0144 25.8344 17.7537 25.8345C17.3593 25.8207 16.9698 25.9249 16.6354 26.1335C16.3349 26.3319 16.0975 26.6116 15.951 26.9396C15.7927 27.295 15.7138 27.6803 15.7197 28.0691C15.7139 28.4574 15.7917 28.8425 15.9479 29.1985C16.0913 29.5266 16.3267 29.8065 16.6258 30.0046C16.9579 30.2133 17.3454 30.3175 17.7377 30.3036C17.9994 30.3059 18.2603 30.2758 18.5144 30.2138C18.7475 30.1545 18.974 30.0717 19.1902 29.9666L19.2709 30.6734C19.0511 30.7708 18.8227 30.8476 18.5887 30.9027C18.3078 30.9688 18.02 31.0015 17.7314 30.9999Z" fill="white"/>
<path d="M23.0107 30.888V25.2609H23.7778V27.5853H26.6521V25.2609H27.4181V30.888H26.6521V28.3079H23.7778V30.888H23.0107Z" fill="white"/>
<path d="M31.5359 30.888V25.2609H32.3666L35.1517 29.4775V25.2609H35.9273V30.888H35.2738L32.303 26.4421V30.888H31.5359Z" fill="white"/>
<path d="M42.5066 31C42.0039 31.0091 41.5078 30.8851 41.0689 30.6407C40.6498 30.401 40.307 30.0483 40.0801 29.6233C39.8441 29.1406 39.7214 28.6107 39.7214 28.0739C39.7214 27.537 39.8441 27.0072 40.0801 26.5244C40.3074 26.0999 40.65 25.7477 41.0689 25.5081C41.5107 25.2716 42.0045 25.1478 42.5061 25.1478C43.0076 25.1478 43.5014 25.2716 43.9432 25.5081C44.3623 25.7474 44.7051 26.0997 44.932 26.5244C45.1686 27.007 45.2916 27.5369 45.2916 28.0739C45.2916 28.6109 45.1686 29.1408 44.932 29.6233C44.7054 30.0486 44.3626 30.4013 43.9432 30.6407C43.5047 30.8851 43.009 31.0091 42.5066 31ZM42.5066 30.2604C42.8895 30.2741 43.2676 30.1729 43.592 29.9698C43.8808 29.7751 44.107 29.5014 44.2434 29.1817C44.5389 28.4713 44.5389 27.6732 44.2434 26.9629C44.1059 26.6426 43.8781 26.3689 43.5877 26.1747C43.258 25.9838 42.8833 25.8832 42.5018 25.8832C42.1203 25.8832 41.7457 25.9838 41.4159 26.1747C41.1258 26.3692 40.8981 26.6429 40.7602 26.9629C40.4661 27.6735 40.4661 28.4711 40.7602 29.1817C40.8981 29.5017 41.1258 29.7754 41.4159 29.9698C41.7417 30.1739 42.1219 30.2752 42.5066 30.2604Z" fill="white"/>
<path d="M49.0857 30.888V25.2609H49.8528V30.197H52.4437V30.888H49.0857Z" fill="white"/>
<path d="M58.2239 31C57.7212 31.0091 57.225 30.8851 56.7862 30.6407C56.367 30.401 56.0243 30.0483 55.7974 29.6233C55.5614 29.1406 55.4387 28.6107 55.4387 28.0739C55.4387 27.537 55.5614 27.0072 55.7974 26.5244C56.0246 26.0999 56.3673 25.7477 56.7862 25.5081C57.228 25.2716 57.7218 25.1478 58.2233 25.1478C58.7249 25.1478 59.2187 25.2716 59.6605 25.5081C60.0796 25.7474 60.4224 26.0997 60.6493 26.5244C60.8859 27.007 61.0089 27.5369 61.0089 28.0739C61.0089 28.6109 60.8859 29.1408 60.6493 29.6233C60.4227 30.0486 60.0799 30.4013 59.6605 30.6407C59.222 30.8851 58.7262 31.0091 58.2239 31ZM58.2239 30.2604C58.6067 30.2741 58.9849 30.1729 59.3093 29.9698C59.5997 29.7757 59.8274 29.5019 59.965 29.1817C60.2604 28.4713 60.2604 27.6732 59.965 26.9629C59.8274 26.6426 59.5997 26.3689 59.3093 26.1747C58.9795 25.9838 58.6048 25.8832 58.2233 25.8832C57.8419 25.8832 57.4672 25.9838 57.1374 26.1747C56.847 26.3689 56.6193 26.6426 56.4817 26.9629C56.1877 27.6735 56.1877 28.4711 56.4817 29.1817C56.6193 29.5019 56.847 29.7757 57.1374 29.9698C57.4621 30.1731 57.8406 30.2744 58.2239 30.2604Z" fill="white"/>
<path d="M67.2403 31C66.7466 31.0074 66.2598 30.8834 65.8303 30.6408C65.4103 30.4002 65.0663 30.0474 64.8372 29.6223C64.584 29.1431 64.4584 28.6073 64.4722 28.066C64.4583 27.5263 64.5883 26.9926 64.8489 26.5192C65.0922 26.0908 65.4518 25.7392 65.8865 25.5049C66.3502 25.2595 66.8691 25.1358 67.3942 25.1457C67.6869 25.1444 67.9788 25.1763 68.2642 25.2408C68.5109 25.2941 68.7521 25.3701 68.9846 25.4679L68.9114 26.1346C68.6829 26.0469 68.4481 25.9763 68.209 25.9233C67.9496 25.8653 67.6844 25.8369 67.4186 25.8388C66.9369 25.8388 66.5404 25.9384 66.2292 26.1378C65.9235 26.3313 65.6826 26.6113 65.5375 26.9418C65.3869 27.3026 65.3094 27.6895 65.3094 28.0802C65.3094 28.471 65.3869 28.8578 65.5375 29.2187C65.6858 29.5496 65.9324 29.8272 66.2441 30.0142C66.6125 30.2216 67.0318 30.3226 67.4547 30.3058C67.6058 30.3038 67.7567 30.2932 67.9067 30.2741C68.0752 30.2549 68.2406 30.2144 68.3989 30.1537V28.758H67.5109V28.066H69.166V30.5742C68.9056 30.7096 68.629 30.8115 68.3427 30.8774C67.9817 30.963 67.6115 31.0042 67.2403 31Z" fill="white"/>
<path d="M73.0535 30.888V25.2609H73.8195V30.888H73.0535Z" fill="white"/>
<path d="M77.9371 30.888V25.2609H81.3843V25.9518H78.7042V27.6H80.8347V28.291H78.7042V30.1928H81.4564V30.8838L77.9371 30.888Z" fill="white"/>
<path d="M86.8485 30.9999C86.6137 31 86.3793 30.9827 86.1472 30.9482C85.9279 30.9166 85.7107 30.8718 85.4968 30.814C85.3267 30.7692 85.1606 30.7105 85.0002 30.6386L85.1063 29.8272C85.2513 29.8976 85.4282 29.9698 85.6368 30.0438C85.8549 30.1223 86.0783 30.1855 86.3053 30.2329C86.5442 30.2835 86.7878 30.309 87.032 30.309C87.3316 30.323 87.6293 30.2546 87.8925 30.1114C87.997 30.0462 88.0818 29.9539 88.1378 29.8445C88.1939 29.7352 88.2191 29.6127 88.2108 29.4901C88.219 29.3032 88.162 29.1192 88.0495 28.9693C87.9176 28.8166 87.751 28.6974 87.5636 28.6217C87.2987 28.5084 87.0269 28.4117 86.7498 28.3322C86.4566 28.2473 86.1706 28.1392 85.8947 28.0089C85.6471 27.8954 85.4314 27.7231 85.2666 27.507C85.1138 27.2627 85.0329 26.9807 85.0329 26.6929C85.0329 26.4052 85.1138 26.1232 85.2666 25.8789C85.4366 25.6376 85.6737 25.451 85.9488 25.3422C86.2991 25.2031 86.6741 25.1363 87.0511 25.1456C87.3958 25.1425 87.7395 25.1829 88.0739 25.2661C88.3382 25.3305 88.5957 25.4196 88.8431 25.5323L88.7625 26.3438C88.488 26.1762 88.1927 26.0451 87.884 25.9539C87.6021 25.8761 87.3108 25.837 87.0182 25.8377C86.733 25.8268 86.4498 25.8905 86.197 26.0226C86.0913 26.0822 86.0047 26.1704 85.9473 26.2769C85.8898 26.3835 85.8638 26.5041 85.8724 26.6248C85.8648 26.7906 85.9163 26.9537 86.0177 27.0855C86.1354 27.2198 86.2834 27.3244 86.4496 27.3908C86.6821 27.4906 86.9205 27.576 87.1636 27.6465C87.514 27.747 87.8535 27.8822 88.1769 28.0501C88.4359 28.1811 88.6592 28.3729 88.8272 28.609C88.9848 28.8537 89.0636 29.1405 89.0532 29.431C89.0564 29.6554 89.0093 29.8778 88.9153 30.0818C88.8217 30.2783 88.6801 30.4482 88.5036 30.5763C88.2971 30.725 88.0636 30.8326 87.8161 30.8932C87.4994 30.9694 87.1743 31.0053 86.8485 30.9999Z" fill="white"/>
</g>
<defs>
<clipPath id="clip0_405_343">
<rect width="97" height="31" fill="white"/>
</clipPath>
</defs>
</svg>
