<svg width="42" height="42" viewBox="0 0 42 42" fill="none" xmlns="http://www.w3.org/2000/svg">
<g clip-path="url(#clip0_722_2199)">
<path d="M35.9988 20.5265C35.9988 26.12 35.9988 31.7134 35.9988 37.3069C35.9988 39.5785 34.5764 40.9986 32.3032 40.9986C27.4744 40.9986 22.6468 40.9986 17.818 40.9986C15.6302 40.9986 14.185 39.5568 14.1839 37.3731C14.1827 35.6654 14.1827 33.9577 14.1839 32.2488C14.1839 31.7819 14.3991 31.4931 14.7704 31.4383C15.2054 31.3733 15.5437 31.7112 15.5448 32.2328C15.5482 33.9269 15.546 35.6197 15.546 37.3137C15.546 38.8228 16.3523 39.6322 17.8567 39.6322C22.6855 39.6322 27.5132 39.6322 32.3419 39.6322C33.8179 39.6322 34.6356 38.8148 34.6356 37.3389C34.6356 26.1086 34.6356 14.8794 34.6356 3.64916C34.6356 2.19372 33.8168 1.3684 32.3738 1.3684C27.5166 1.3684 22.6604 1.3684 17.8032 1.3684C16.383 1.3684 15.5471 2.19942 15.5471 3.61149C15.5471 5.77467 15.5448 7.93785 15.5494 10.1022C15.5494 10.4241 15.4765 10.6935 15.1724 10.8533C14.7009 11.0999 14.1918 10.7688 14.1873 10.1924C14.177 9.02572 14.1839 7.85794 14.1839 6.69131C14.1839 5.62399 14.1793 4.55667 14.1839 3.48934C14.1953 1.49739 15.6724 0.00656374 17.6574 0.0042807C22.6138 -0.0014269 27.5701 -0.0014269 32.5253 0.0042807C34.5092 0.00656374 35.9943 1.49739 35.9966 3.48934C36.0023 9.16841 35.9988 14.8475 35.9988 20.5265Z" fill="#DEDEDE"/>
<path d="M12.414 22.424C12.0655 22.069 12.0473 21.6649 12.3525 21.3761C12.6441 21.0975 13.021 21.1261 13.3695 21.456C13.5039 21.5827 13.6337 21.7139 13.7624 21.8464C13.8775 21.9662 13.9868 22.0918 14.1121 22.2288C14.2282 22.0598 14.1793 21.916 14.1804 21.7836C14.1838 20.319 14.1827 18.8544 14.1827 17.3899C14.1827 16.7312 14.4013 16.4104 14.8535 16.4024C15.309 16.3956 15.5459 16.7255 15.5459 17.3693V22.3098C15.8762 21.9628 16.1165 21.6923 16.375 21.4411C16.7121 21.1135 17.1061 21.1021 17.3909 21.392C17.6733 21.6808 17.6585 22.0712 17.3271 22.4114C16.6825 23.0735 16.0333 23.7299 15.3785 24.3794C15.0471 24.7082 14.6678 24.6967 14.333 24.3611C13.6895 23.7196 13.0495 23.0746 12.414 22.424Z" fill="#DEDEDE"/>
<path d="M19.6346 26.6637C19.6255 27.0758 19.3203 27.3315 18.818 27.3326C17.4844 27.3361 16.1519 27.3338 14.8183 27.3338C13.4847 27.3338 12.2377 27.3349 10.9473 27.3338C10.4109 27.3326 10.1 27.0838 10.0943 26.658C10.0886 26.2299 10.4007 25.9685 10.9325 25.9685C13.5553 25.9662 16.1793 25.9662 18.8021 25.9685C19.3282 25.9685 19.6437 26.2379 19.6346 26.6637Z" fill="#DEDEDE"/>
<path d="M20.1856 12.3023C18.4113 12.2989 16.6369 12.3023 14.8626 12.3023C13.0882 12.3023 11.3139 12.2989 9.53951 12.3023C7.47247 12.3069 6.00447 13.7783 6.00219 15.8513C5.99877 19.4083 5.99877 22.9641 6.00333 26.5211C6.00447 28.5918 7.47588 30.0644 9.54292 30.0667C13.0916 30.0701 16.6403 30.0701 20.1902 30.0667C22.2549 30.0644 23.7241 28.5895 23.7264 26.5177C23.7298 22.9607 23.7298 19.4037 23.7264 15.8467C23.7241 13.7749 22.2538 12.3069 20.1856 12.3023ZM22.3631 26.4789C22.3631 27.8589 21.5147 28.7002 20.1264 28.7002C16.6187 28.7002 13.111 28.7002 9.60328 28.7002C8.19565 28.7002 7.36655 27.8601 7.36541 26.4366C7.36541 24.6867 7.36541 22.9356 7.36541 21.1845C7.36541 19.4334 7.36541 17.6549 7.36541 15.8901C7.36655 14.5237 8.20931 13.6698 9.55887 13.6687C13.095 13.6687 16.6324 13.6687 20.1685 13.6687C21.5192 13.6698 22.3631 14.5237 22.3631 15.889C22.3643 19.4185 22.3643 22.9481 22.3631 26.4789Z" fill="#DEDEDE"/>
<path d="M25.0909 2.7361C25.7423 2.7361 26.3938 2.73154 27.0452 2.73725C27.5098 2.74181 27.8082 3.01007 27.8151 3.40846C27.8219 3.80913 27.5224 4.09794 27.0657 4.10022C25.748 4.10707 24.4304 4.10707 23.1138 4.10022C22.6583 4.09794 22.3588 3.80799 22.3656 3.40732C22.3724 3.00779 22.6708 2.74181 23.1366 2.73725C23.788 2.73154 24.4395 2.7361 25.0909 2.7361Z" fill="#DEDEDE"/>
<path d="M22.3164 32.7988C22.7504 32.8068 23.0624 33.1139 23.043 33.5146C23.0237 33.8981 22.715 34.1664 22.2948 34.1664C21.8586 34.1664 21.5375 33.8684 21.5443 33.4723C21.5511 33.0774 21.878 32.792 22.3164 32.8V32.7988Z" fill="#DEDEDE"/>
<path d="M25.0212 34.1664C24.5862 34.1664 24.2639 33.8673 24.2719 33.4712C24.2787 33.0751 24.6056 32.7909 25.044 32.8C25.4631 32.808 25.7638 33.0877 25.7695 33.4735C25.7752 33.8742 25.4586 34.1676 25.0201 34.1676L25.0212 34.1664Z" fill="#DEDEDE"/>
<path d="M27.7409 34.1667C27.3058 34.1633 26.987 33.8608 26.9983 33.4635C27.0097 33.0686 27.3389 32.7877 27.7785 32.7992C28.1953 32.8094 28.4959 33.0937 28.4971 33.4807C28.4982 33.8813 28.1793 34.1701 27.7409 34.1667Z" fill="#DEDEDE"/>
<path d="M12.414 22.424C12.0655 22.069 12.0473 21.6649 12.3525 21.3761C12.6441 21.0975 13.021 21.1261 13.3695 21.456C13.5039 21.5827 13.6337 21.7139 13.7624 21.8464C13.8775 21.9662 13.9868 22.0918 14.1121 22.2288C14.2282 22.0598 14.1793 21.916 14.1804 21.7836C14.1838 20.319 14.1827 18.8544 14.1827 17.3899C14.1827 16.7312 14.4013 16.4104 14.8535 16.4024C15.309 16.3956 15.5459 16.7255 15.5459 17.3693V22.3098C15.8762 21.9628 16.1165 21.6923 16.375 21.4411C16.7121 21.1135 17.1061 21.1021 17.3909 21.392C17.6733 21.6808 17.6585 22.0712 17.3271 22.4114C16.6825 23.0735 16.0333 23.7299 15.3785 24.3794C15.0471 24.7082 14.6678 24.6967 14.333 24.3611C13.6895 23.7196 13.0495 23.0746 12.414 22.424Z" fill="#DEDEDE"/>
<path d="M19.6346 26.6637C19.6255 27.0758 19.3203 27.3315 18.818 27.3326C17.4844 27.3361 16.1519 27.3338 14.8183 27.3338C13.4847 27.3338 12.2377 27.3349 10.9473 27.3338C10.4109 27.3326 10.1 27.0838 10.0943 26.658C10.0886 26.2299 10.4007 25.9685 10.9325 25.9685C13.5553 25.9662 16.1793 25.9662 18.8021 25.9685C19.3282 25.9685 19.6437 26.2379 19.6346 26.6637Z" fill="#DEDEDE"/>
<path d="M17.3271 22.4114C16.6825 23.0735 16.0333 23.7299 15.3785 24.3794C15.0471 24.7082 14.6678 24.6967 14.333 24.3611C13.6895 23.7196 13.0495 23.0746 12.414 22.424C12.0655 22.069 12.0473 21.6649 12.3525 21.3761C12.6441 21.0975 13.021 21.1261 13.3695 21.456C13.5039 21.5827 13.6337 21.7139 13.7624 21.8464C13.8775 21.9662 13.9868 22.0918 14.1121 22.2288C14.2282 22.0598 14.1793 21.916 14.1804 21.7836C14.1838 20.319 14.1827 18.8544 14.1827 17.3899C14.1827 16.7312 14.4013 16.4104 14.8535 16.4024C15.309 16.3956 15.5459 16.7255 15.5459 17.3693V22.3098C15.8762 21.9628 16.1165 21.6923 16.375 21.4411C16.7121 21.1135 17.1061 21.1021 17.3909 21.392C17.6733 21.6808 17.6585 22.0712 17.3271 22.4114Z" fill="#DEDEDE"/>
<path d="M19.6346 26.6637C19.6255 27.0758 19.3203 27.3315 18.818 27.3326C17.4844 27.3361 16.1519 27.3338 14.8183 27.3338C13.4847 27.3338 12.2377 27.3349 10.9473 27.3338C10.4109 27.3326 10.1 27.0838 10.0943 26.658C10.0886 26.2299 10.4007 25.9685 10.9325 25.9685C13.5553 25.9662 16.1793 25.9662 18.8021 25.9685C19.3282 25.9685 19.6437 26.2379 19.6346 26.6637Z" fill="#DEDEDE"/>
</g>
<defs>
<clipPath id="clip0_722_2199">
<rect width="30" height="41" fill="white" transform="translate(6)"/>
</clipPath>
</defs>
</svg>
