<svg width="42" height="42" viewBox="0 0 42 42" fill="none" xmlns="http://www.w3.org/2000/svg">
<g clip-path="url(#clip0_722_2231)">
<path d="M35.9832 16.8726C35.9227 19.6644 35.6722 22.4329 34.9519 25.1426C33.5718 30.3348 30.5612 34.2499 25.9178 36.8923C24.471 37.717 22.9552 38.3796 21.3893 38.9329C21.3497 38.9477 21.3142 38.9771 21.2766 39.0003C21.3079 38.7815 21.5083 38.7962 21.6461 38.7457C23.711 37.9947 25.6798 37.0522 27.4858 35.7899C29.8847 34.1132 31.8139 32.0136 33.1918 29.4028C34.336 27.238 35.0145 24.9259 35.4028 22.5171C35.6408 21.0487 35.7598 19.5697 35.8413 18.0844C35.9457 16.1868 35.9039 14.2892 35.8809 12.3937C35.8705 11.4364 35.8475 10.475 35.8246 9.51779C35.812 8.92453 35.4509 8.50377 34.8809 8.36913C34.6282 8.31022 34.3756 8.30181 34.1188 8.30181C31.8306 8.30601 29.6049 7.92523 27.4649 7.11317C25.6756 6.43364 24.0638 5.44276 22.617 4.17838C22.3539 3.94907 22.0971 3.71345 21.8424 3.47362C21.3225 2.98133 20.669 2.97712 20.1533 3.47151C18.9507 4.62439 17.6333 5.61948 16.1551 6.38526C14.6039 7.1889 12.9587 7.71695 11.2404 8.01148C10.0817 8.20714 8.91665 8.33336 7.73911 8.30181C7.49275 8.2955 7.25056 8.32916 7.01463 8.39648C6.55322 8.52481 6.22335 8.93084 6.17533 9.4105C6.17115 9.45679 6.16906 9.50517 6.16906 9.55146C6.13566 12.1391 6.01874 14.7289 6.10852 17.3144C6.21917 20.4933 6.56158 23.6405 7.61384 26.6721C8.62853 29.5963 10.2362 32.123 12.514 34.2015C14.0736 35.6258 15.8294 36.7618 17.744 37.6517C18.6313 38.0641 19.5333 38.4365 20.4498 38.7794C20.5584 38.8193 20.715 38.8214 20.7191 39.0003C19.5207 38.5143 18.3098 38.0578 17.151 37.4729C11.7874 34.7695 8.33832 30.522 6.91233 24.6335C6.41752 22.5928 6.1795 20.5143 6.07094 18.4189C5.91852 15.4547 6.05423 12.4925 6.07511 9.52831C6.07929 8.75202 6.59081 8.25552 7.41759 8.23238C8.31326 8.20714 9.20477 8.17768 10.0963 8.0788C13.7207 7.67277 16.9214 6.30742 19.6335 3.82495C19.7796 3.69031 19.9195 3.55146 20.0656 3.41681C20.6711 2.86352 21.333 2.85721 21.928 3.42102C22.6817 4.13631 23.4751 4.8011 24.3373 5.38175C26.4586 6.80812 28.7969 7.64122 31.3128 8.00096C32.363 8.15033 33.4152 8.21345 34.4737 8.22817C35.4571 8.2429 35.9164 8.71836 35.9269 9.70503C35.9498 12.0949 36.0334 14.4827 35.9832 16.8726Z" fill="#DEDEDE"/>
<path d="M26.8678 18.6105C24.6985 20.7984 22.5293 22.9863 20.3579 25.1722C19.5813 25.9569 18.9591 25.9548 18.1762 25.168C17.1239 24.1077 16.0737 23.0473 15.0194 21.9891C14.7438 21.7135 14.5601 21.4022 14.5705 20.9983C14.5893 20.4723 14.8231 20.081 15.3033 19.8622C15.8295 19.6224 16.3076 19.7381 16.7105 20.1357C17.4809 20.8973 18.2492 21.6652 19.0009 22.4478C19.2013 22.656 19.3015 22.6918 19.5291 22.4604C21.3998 20.5523 23.2872 18.661 25.1662 16.7612C25.4376 16.4856 25.732 16.2753 26.1329 16.2668C26.6423 16.2584 27.0369 16.4688 27.277 16.9232C27.5213 17.3903 27.4816 17.8489 27.1726 18.276C27.0849 18.398 26.9743 18.5032 26.8678 18.6105Z" fill="#DEDEDE"/>
<path d="M35.9269 9.70503C35.9164 8.71836 35.4571 8.2429 34.4737 8.22817C33.4152 8.21345 32.363 8.15033 31.3128 8.00096C28.7969 7.64122 26.4586 6.80812 24.3373 5.38175C23.4751 4.8011 22.6817 4.13631 21.928 3.42102C21.333 2.85721 20.6711 2.86352 20.0656 3.41681C19.9195 3.55146 19.7796 3.69031 19.6335 3.82495C16.9214 6.30742 13.7207 7.67277 10.0963 8.0788C9.20477 8.17768 8.31326 8.20714 7.41759 8.23238C6.59081 8.25552 6.07929 8.75202 6.07511 9.52831C6.05423 12.4925 5.91852 15.4547 6.07094 18.4189C6.1795 20.5143 6.41752 22.5928 6.91233 24.6335C8.33832 30.522 11.7874 34.7695 17.151 37.4729C18.3098 38.0578 19.5207 38.5143 20.7191 39.0003H21.2766C21.3142 38.9771 21.3497 38.9477 21.3893 38.9329C22.9552 38.3796 24.471 37.717 25.9178 36.8923C30.5612 34.2499 33.5718 30.3348 34.9519 25.1426C35.6722 22.4329 35.9227 19.6644 35.9832 16.8726C36.0334 14.4827 35.9498 12.0949 35.9269 9.70503ZM21.191 36.3285C21.0824 36.3705 20.9906 36.4 20.8611 36.3516C18.0133 35.2808 15.4077 33.8249 13.2823 31.5886C11.2133 29.4112 9.9543 26.8088 9.27784 23.893C8.65358 21.1959 8.4949 18.4547 8.50326 15.6987C8.50952 14.1756 8.55128 12.6524 8.5471 11.1314C8.54501 10.7864 8.65984 10.7043 8.96884 10.6896C10.3635 10.6244 11.7415 10.435 13.1007 10.1048C15.9443 9.41471 18.4893 8.11878 20.715 6.20433C20.9446 6.00657 21.0699 6.02551 21.287 6.21064C24.0492 8.56899 27.2352 9.9659 30.82 10.4708C31.603 10.5802 32.388 10.6433 33.1751 10.7064C33.3839 10.7254 33.4424 10.7885 33.4424 10.9989C33.4319 12.3705 33.4361 13.7401 33.4361 15.1118C33.5238 17.6216 33.4194 20.1209 32.9914 22.5991C32.0915 27.8271 29.5172 31.9042 24.899 34.5823C23.711 35.2702 22.4708 35.8425 21.191 36.3285Z" fill="#DEDEDE"/>
<path d="M27.1726 18.276C27.0849 18.398 26.9743 18.5032 26.8678 18.6105C24.6985 20.7984 22.5293 22.9863 20.3579 25.1722C19.5813 25.9569 18.9591 25.9548 18.1762 25.168C17.1239 24.1077 16.0737 23.0473 15.0194 21.9891C14.7438 21.7135 14.5601 21.4022 14.5705 20.9983C14.5893 20.4723 14.8231 20.081 15.3033 19.8622C15.8295 19.6224 16.3076 19.7381 16.7105 20.1357C17.4809 20.8973 18.2492 21.6652 19.0009 22.4478C19.2013 22.656 19.3015 22.6918 19.5291 22.4604C21.3998 20.5523 23.2872 18.661 25.1662 16.7612C25.4376 16.4856 25.732 16.2753 26.1329 16.2668C26.6423 16.2584 27.0369 16.4688 27.277 16.9232C27.5213 17.3903 27.4816 17.8489 27.1726 18.276Z" fill="#DEDEDE"/>
<path d="M27.1726 18.276C27.0849 18.398 26.9743 18.5032 26.8678 18.6105C24.6985 20.7984 22.5293 22.9863 20.3579 25.1722C19.5813 25.9569 18.9591 25.9548 18.1762 25.168C17.1239 24.1077 16.0737 23.0473 15.0194 21.9891C14.7438 21.7135 14.5601 21.4022 14.5705 20.9983C14.5893 20.4723 14.8231 20.081 15.3033 19.8622C15.8295 19.6224 16.3076 19.7381 16.7105 20.1357C17.4809 20.8973 18.2492 21.6652 19.0009 22.4478C19.2013 22.656 19.3015 22.6918 19.5291 22.4604C21.3998 20.5523 23.2872 18.661 25.1662 16.7612C25.4376 16.4856 25.732 16.2753 26.1329 16.2668C26.6423 16.2584 27.0369 16.4688 27.277 16.9232C27.5213 17.3903 27.4816 17.8489 27.1726 18.276Z" fill="#DEDEDE"/>
</g>
<defs>
<clipPath id="clip0_722_2231">
<rect width="30" height="36" fill="white" transform="translate(6 3)"/>
</clipPath>
</defs>
</svg>
