<svg width="42" height="42" viewBox="0 0 42 42" fill="none" xmlns="http://www.w3.org/2000/svg">
<g clip-path="url(#clip0_722_2213)">
<path d="M21.1352 4.00008C21.8745 4.00441 23.1811 4.16332 24.4684 4.48331C25.1136 4.6433 25.4616 5.13626 25.3222 5.68219C25.1774 6.24974 24.6705 6.51676 24.0231 6.36757C17.4562 4.84978 11.0514 7.63564 7.77005 13.4387C3.91593 20.2536 6.35313 29.1528 13.1416 33.0553C19.1173 36.4909 26.3609 35.4596 31.1023 30.4554C33.4001 28.0296 34.6798 25.1205 34.9899 21.7854C35.1413 20.1574 34.9964 18.5585 34.6257 16.9737C34.4733 16.3251 34.7414 15.8192 35.3099 15.6743C35.8567 15.5348 36.3518 15.8862 36.5095 16.5262C38.7382 25.541 33.1115 34.6034 24.0404 36.6098C15.1746 38.5698 6.36501 32.9537 4.39796 24.0881C2.4709 15.4051 7.72682 6.80107 16.3548 4.52655C17.7274 4.1644 19.1292 3.99576 21.1352 4.00008Z" fill="#DEDEDE"/>
<path d="M29.8516 27.7671C28.8994 25.7456 27.3431 24.4083 25.1966 23.7067C28.7848 20.6441 28.6962 15.6162 25.7813 12.6757C22.9183 9.78826 18.2752 9.73745 15.3375 12.5482C12.3081 15.4475 12.1427 20.643 15.7807 23.7024C15.4824 23.8213 15.1819 23.9273 14.8912 24.0581C13.1749 24.8289 11.9266 26.0764 11.1332 27.779C10.8749 28.3325 11.0565 28.886 11.545 29.1314C12.0508 29.3844 12.5934 29.1757 12.8885 28.6136C12.9263 28.5422 12.9544 28.4666 12.9922 28.3952C14.0406 26.4515 15.6683 25.4126 17.8742 25.3618C19.6251 25.3207 21.3781 25.3445 23.1301 25.3564C24.4422 25.3651 25.6051 25.8029 26.6157 26.6418C27.2696 27.1855 27.7419 27.8612 28.1115 28.6233C28.4022 29.2211 29.0086 29.4028 29.5241 29.0806C29.964 28.806 30.1023 28.299 29.8516 27.7671ZM20.4649 23.4116C17.4429 23.4019 14.9906 20.9252 14.9971 17.8907C15.0025 14.8659 17.4743 12.4076 20.5059 12.412C23.5343 12.4152 25.9942 14.8811 25.9942 17.9123C25.9942 20.9436 23.5149 23.4224 20.4649 23.4116Z" fill="#DEDEDE"/>
<path d="M36.265 10.8825C35.7257 10.6458 35.5809 10.3301 35.5495 9.68798C35.5085 8.82855 35.7841 8.42316 36.5028 8.08911C37.0205 7.84804 37.1286 7.23833 36.8497 6.76916C36.5828 6.32052 36.0445 6.17242 35.5484 6.42646C35.2739 6.567 35.0102 6.72916 34.7454 6.88915C34.6092 6.97131 34.5087 7.00915 34.3617 6.87186C34.0364 6.56484 33.6473 6.34322 33.2215 6.20593C33.0594 6.15404 33.0151 6.07837 33.0183 5.9227C33.0259 5.58541 33.0377 5.24704 33.0107 4.913C32.9675 4.36815 32.5319 3.9833 32.0164 3.99952C31.4944 4.01573 31.1053 4.41896 31.0826 4.97246C31.0761 5.12056 31.0815 5.26866 31.0815 5.41677H31.0804C31.0804 5.48379 31.0707 5.55298 31.0815 5.61892C31.1474 5.99188 31.0156 6.20377 30.6308 6.30863C30.3228 6.39295 30.0396 6.57997 29.8105 6.80591C29.6149 6.99942 29.4668 6.97888 29.2604 6.83834C29.0161 6.67294 28.7545 6.53241 28.4898 6.40268C28.132 6.22647 27.7818 6.26539 27.4684 6.51295C27.1506 6.76159 27.0534 7.10104 27.1301 7.48697C27.2058 7.86534 27.4835 8.08046 27.811 8.23073C28.3222 8.46532 28.734 8.73017 28.506 9.41556C28.3936 9.755 28.6973 10.1831 28.4973 10.4544C28.2984 10.7225 27.8888 10.8285 27.584 11.0242C27.1171 11.3214 26.9691 11.8706 27.2187 12.3247C27.476 12.7927 28.0401 12.9581 28.546 12.6987C28.8205 12.5592 29.0874 12.4014 29.3501 12.2392C29.4927 12.1506 29.5976 12.1301 29.7392 12.2587C30.0699 12.5614 30.4557 12.7798 30.8848 12.9171C31.0285 12.9635 31.0923 13.0425 31.0847 13.2079C31.0707 13.5441 31.0707 13.8824 31.088 14.2176C31.1128 14.6943 31.4555 15.0489 31.9234 15.1073C32.4087 15.1689 32.8237 14.8911 32.9707 14.4186C33.0453 14.1797 33.0421 13.9343 33.014 13.6976C32.9589 13.2241 33.0399 12.8857 33.5814 12.756C33.9597 12.6652 34.2245 12.1787 34.5595 12.1917C34.9194 12.2057 35.2566 12.5614 35.6209 12.73C36.2207 13.009 36.9102 12.6241 36.9827 11.9787C37.0443 11.4263 36.7276 11.0869 36.265 10.8825ZM32.0521 11.1744C31.1572 11.1787 30.4363 10.4631 30.4352 9.56798C30.4341 8.6599 31.1301 7.96263 32.038 7.96047C32.9426 7.95831 33.6603 8.66099 33.6657 9.55393C33.6711 10.4371 32.9405 11.1712 32.0521 11.1744Z" fill="#DEDEDE"/>
</g>
<defs>
<clipPath id="clip0_722_2213">
<rect width="33" height="33" fill="white" transform="translate(4 4)"/>
</clipPath>
</defs>
</svg>
