<svg width="42" height="42" viewBox="0 0 42 42" fill="none" xmlns="http://www.w3.org/2000/svg">
<g clip-path="url(#clip0_758_1925)">
<path d="M40.9786 29.7704C40.9048 31.1667 40.035 32.0644 38.8443 32.6305C37.2984 33.3655 35.7172 34.0279 34.1488 34.7169C33.737 34.8978 33.4064 34.8047 33.2534 34.4858C33.0951 34.1541 33.2502 33.8117 33.6599 33.6288C35.1759 32.9525 36.6929 32.2795 38.212 31.6108C38.4945 31.4856 38.7523 31.3261 38.9898 31.1303C39.7847 30.4701 39.9954 29.6473 39.5782 28.8298C39.1706 28.0316 38.3779 27.6839 37.4022 27.9578C35.791 28.4083 34.1927 28.9037 32.588 29.3798C30.8185 29.9052 29.049 30.4316 27.2774 30.9527C27.0666 31.0137 26.9136 31.1025 26.7938 31.308C26.2065 32.3137 25.2511 32.7118 24.1021 32.4379C22.2278 31.9906 20.3556 31.5326 18.4834 31.08C18.4053 31.0608 18.3272 31.0469 18.2512 31.0212C17.9046 30.9078 17.726 30.6018 17.8137 30.2775C17.8993 29.9608 18.2117 29.7789 18.569 29.8645C19.9009 30.1823 21.2296 30.5087 22.5605 30.8297C23.1938 30.9827 23.824 31.1507 24.4626 31.2748C25.234 31.4246 25.8213 30.9837 25.9476 30.2026C26.1005 29.2525 25.7764 28.6394 24.8681 28.2692C23.2334 27.6015 21.5912 26.9541 19.9501 26.3036C19.3082 26.0489 18.6685 25.7675 17.9806 25.6734C16.6155 25.4861 15.2418 25.6188 13.8714 25.6241C11.6194 25.6338 9.59849 26.4299 7.79048 27.6561C5.92685 28.9208 3.92841 29.7607 1.75025 30.2262C1.35762 30.3096 1.23459 30.4701 1.2378 30.8874C1.26134 33.6855 1.24957 36.4846 1.24957 39.2837C1.24957 39.7994 1.25171 39.8026 1.75025 39.6132C4.75539 38.4748 7.74983 37.3117 10.7657 36.2053C13.13 35.3365 15.5136 35.2145 17.8886 36.2246C18.8899 36.6504 19.9073 37.0388 20.9215 37.4369C22.3925 38.0136 23.8464 37.9911 25.2971 37.3342C27.1479 36.4963 29.0094 35.6832 30.8677 34.8646C31.2967 34.6752 31.6465 34.7822 31.7835 35.1225C31.9183 35.4574 31.7706 35.7688 31.3673 35.9485C29.3903 36.828 27.4207 37.7268 25.4298 38.5721C23.8229 39.2537 22.1839 39.2002 20.5653 38.586C19.5094 38.1859 18.4566 37.7771 17.42 37.332C15.383 36.4578 13.3258 36.5552 11.3049 37.286C8.12213 38.4362 4.96935 39.6732 1.80481 40.8758C1.77485 40.8865 1.75453 40.924 1.72992 40.9497C1.77271 40.695 2.01128 40.6897 2.18032 40.6244C4.10921 39.885 6.04025 39.151 7.97235 38.4223C9.00794 38.0329 10.0328 37.6166 11.0748 37.2443C12.8946 36.5937 14.7593 36.3444 16.639 36.9415C17.7677 37.2999 18.8546 37.7868 19.9565 38.2255C20.6134 38.4865 21.266 38.753 21.9732 38.8546C23.243 39.0365 24.4766 38.9188 25.6469 38.3774C27.4731 37.5332 29.3304 36.7585 31.1598 35.9207C31.2689 35.8704 31.3823 35.8297 31.4775 35.7559C31.6711 35.605 31.7171 35.4071 31.6401 35.1835C31.562 34.9588 31.3801 34.8978 31.1598 34.9128C31.0111 34.9224 30.8763 34.978 30.7415 35.0379C28.9131 35.8447 27.0837 36.6504 25.2575 37.4615C23.8186 38.1013 22.3679 38.1088 20.9044 37.546C19.6859 37.0774 18.4887 36.5498 17.2606 36.1069C15.091 35.3236 12.9246 35.5216 10.8053 36.3048C7.8429 37.3994 4.89446 38.5304 1.94709 39.6667C1.8476 39.7053 1.74811 39.7427 1.64433 39.7673C1.32232 39.8444 1.19394 39.7588 1.15114 39.4367C1.13724 39.3308 1.14152 39.2238 1.14152 39.1168C1.14152 36.3979 1.14045 33.678 1.14152 30.9591C1.14152 30.3225 1.19073 30.2615 1.79304 30.1031C2.4895 29.9202 3.17953 29.7179 3.87706 29.5403C4.96721 29.2643 5.93006 28.725 6.84797 28.099C8.11036 27.2388 9.45406 26.5368 10.8919 26.0243C11.66 25.7504 12.4581 25.6209 13.2755 25.5557C14.3934 25.4647 15.5125 25.5225 16.6294 25.4776C17.5826 25.439 18.4813 25.6295 19.3628 25.9623C21.2211 26.6642 23.058 27.4185 24.9002 28.16C26.0075 28.6062 26.307 29.5307 25.9304 30.5771C25.7058 31.1999 25.111 31.5177 24.4552 31.3903C23.6046 31.2245 22.7691 30.9923 21.9272 30.7911C20.8777 30.5408 19.8292 30.2829 18.7797 30.0304C18.6631 30.0026 18.5476 29.9662 18.4256 29.9694C18.1849 29.9758 18.0191 30.0956 17.9528 30.3268C17.8886 30.5504 17.9902 30.7141 18.1763 30.8329C18.2673 30.8917 18.3657 30.9335 18.4695 30.9591C20.4123 31.4278 22.3487 31.9285 24.3 32.3565C25.2746 32.5705 26.0652 32.2014 26.6151 31.3861C26.843 31.049 27.1265 30.88 27.4999 30.7697C30.6441 29.8431 33.7947 28.9347 36.9261 27.9674C37.5241 27.7823 38.1393 27.6817 38.7288 27.9161C40.1163 28.4671 40.2683 30.2743 39.0337 31.2373C38.564 31.6033 38.0163 31.8151 37.4824 32.0548C36.2789 32.5941 35.0678 33.1162 33.8621 33.6512C33.4224 33.846 33.2491 34.106 33.3625 34.3906C33.4813 34.6913 33.8183 34.7555 34.2655 34.5532C35.7718 33.8738 37.3016 33.2478 38.793 32.5352C39.8382 32.0355 40.602 31.2652 40.8363 30.0807C41.1295 28.5987 39.8895 26.7915 38.1532 26.8043C37.3262 26.8108 36.5827 27.0665 35.8199 27.2923C33.1111 28.0937 30.4002 28.8866 27.6946 29.6987C27.2249 29.8399 27.1254 29.7757 27.0399 29.3103C26.8837 28.4693 26.4354 27.8433 25.6705 27.4506C24.8852 27.0483 24.054 26.7573 23.2377 26.432C21.7763 25.851 20.3342 25.2208 18.8289 24.7575C18.2908 24.5927 17.7431 24.4964 17.1771 24.5007C16.271 24.5081 15.3648 24.5039 14.4587 24.5028C12.1682 24.4985 10.0403 25.0881 8.04938 26.2159C7.39893 26.585 6.75596 26.9616 6.14723 27.3939C5.10629 28.1343 3.9359 28.5538 2.70667 28.8427C2.2659 28.9465 1.83369 29.0824 1.39506 29.1969C0.900804 29.3253 0.473944 29.5489 0.232163 30.0314C0.197929 30.101 0.150857 30.1727 0.050293 30.1524C0.298493 29.5339 0.762797 29.2043 1.41218 29.0781C1.86686 28.9903 2.30549 28.8159 2.75802 28.7164C4.11563 28.4168 5.32881 27.8315 6.47674 27.0462C8.05259 25.9687 9.75575 25.1255 11.6269 24.6793C12.6293 24.4407 13.6595 24.4065 14.6844 24.4033C18.4117 24.3947 17.6874 24.109 21.7635 25.7269C22.8611 26.1634 23.9523 26.616 25.0553 27.0408C26.2161 27.4881 27.0506 28.1975 27.1757 29.5243C27.2035 29.8281 27.4047 29.6612 27.5288 29.6248C28.9698 29.2043 30.4087 28.7763 31.8477 28.3516C33.6567 27.8187 35.4498 27.2238 37.2781 26.769C39.2787 26.2704 41.0845 27.7609 40.9786 29.7704Z" fill="#FEFEFE"/>
<path d="M40.9872 16.1196C40.9572 14.5788 40.3602 13.2809 39.2369 12.2259C38.8422 11.8556 38.3832 11.5764 37.8975 11.3206C39.9644 9.63647 39.7312 7.07919 38.4378 5.68392C37.0513 4.19021 34.703 4.04362 33.1785 5.38218C32.4146 6.05199 31.9664 6.89836 31.884 7.91057C31.7685 9.31333 32.3248 10.4379 33.4299 11.3281C32.9784 11.5357 32.6168 11.8043 32.2467 12.0611C31.3534 10.4411 30.7853 9.90076 28.7237 8.70879C31.2678 6.94223 31.4935 3.76114 29.8107 1.72494C28.1075 -0.336936 25.0446 -0.586245 23.0772 1.16961C22.0876 2.05236 21.526 3.15338 21.4682 4.48552C21.3901 6.29702 22.1807 7.68266 23.6496 8.73447C23.4474 8.83291 23.2805 8.90781 23.1189 8.99341C21.8854 9.64717 20.9279 10.5845 20.2711 11.8171C20.1555 12.0322 20.0881 12.075 19.8795 11.907C19.5949 11.6802 19.2686 11.5047 18.9605 11.3078C21.0392 9.6033 20.7407 7.03532 19.4815 5.68713C18.0822 4.19021 15.7521 4.04148 14.2233 5.38004C13.4702 6.03915 13.0219 6.87054 12.931 7.86777C12.8015 9.28551 13.3536 10.4251 14.4566 11.3196C12.7919 12.1777 11.7435 13.4852 11.4503 15.2989C11.2235 16.6952 11.3113 18.1183 11.3894 19.5264C11.4354 20.3428 12.1179 20.8703 12.9492 20.88C13.5087 20.8853 14.0682 20.8842 14.6277 20.88C15.0835 20.8767 15.3274 20.6745 15.3359 20.3032C15.3456 19.9191 15.0867 19.688 14.6224 19.6826C14.0896 19.6773 13.5558 19.6741 13.023 19.6837C12.7288 19.6891 12.5501 19.5607 12.5533 19.2696C12.5694 18.0316 12.4314 16.783 12.6239 15.5567C12.8743 13.9582 13.7975 12.8165 15.3263 12.2794C16.8348 11.7497 18.2352 12.0482 19.4601 13.1011C19.6046 13.2252 19.6816 13.3483 19.626 13.5473C19.4644 14.1165 19.4516 14.704 19.4505 15.2903C19.4484 16.6364 19.443 17.9824 19.4558 19.3285C19.4591 19.5981 19.4034 19.704 19.1114 19.688C18.646 19.6623 18.1785 19.6794 17.712 19.6826C17.2274 19.6858 16.9353 19.9234 16.945 20.3011C16.9546 20.666 17.2295 20.88 17.7013 20.88C18.8075 20.8821 19.9137 20.9024 21.0189 20.8703C21.4554 20.8575 21.6329 20.9484 21.7421 21.4192C22.2256 23.5089 24.1342 24.916 26.3327 24.8742C28.3803 24.8357 30.2408 23.2981 30.6516 21.2652C30.7168 20.9409 30.826 20.8725 31.133 20.8746C33.8782 20.8864 36.6223 20.8842 39.3674 20.8789C40.3142 20.8778 40.9818 20.2176 40.9904 19.2782C40.9989 18.2253 41.0086 17.1714 40.9872 16.1196ZM16.7085 10.8263C15.2718 10.8359 14.1174 9.68997 14.1142 8.25083C14.111 6.81062 15.2589 5.66359 16.6978 5.6668C18.1368 5.67001 19.2868 6.82667 19.2761 8.26046C19.2654 9.68034 18.1282 10.8177 16.7085 10.8263ZM22.6621 4.70594C22.6717 2.75213 24.2583 1.18459 26.2086 1.20171C28.13 1.21883 29.7101 2.82061 29.6973 4.73697C29.6834 6.68115 28.0861 8.25297 26.1369 8.23906C24.208 8.22622 22.6525 6.6437 22.6621 4.70594ZM26.1776 23.6769C24.3032 23.678 22.7702 22.1479 22.7734 20.2808C22.7777 18.4179 24.3225 16.8814 26.1872 16.8878C28.038 16.8932 29.5582 18.4179 29.5614 20.2711C29.5657 22.1565 28.0551 23.6769 26.1776 23.6769ZM31.7075 19.4665C31.7107 19.612 31.6775 19.6998 31.5117 19.6816C31.486 19.6784 31.4593 19.6805 31.4325 19.6816C30.9896 19.698 30.7126 19.4993 30.6013 19.0856C30.06 17.0793 28.2156 15.6734 26.1444 15.6884C24.0604 15.7033 22.2203 17.1553 21.711 19.1755C21.6693 19.3424 21.7421 19.6109 21.5409 19.6602C21.2895 19.7222 21.0092 19.6987 20.7461 19.6698C20.5738 19.6516 20.6541 19.4751 20.6541 19.3723C20.6466 18.5591 20.6498 17.747 20.6498 16.769C20.6947 15.8061 20.5428 14.6686 20.8445 13.5537C21.5313 11.0136 23.9791 9.25448 26.5691 9.45136C29.2041 9.65038 31.3705 11.6909 31.6412 14.3134C31.8177 16.0243 31.6722 17.7481 31.7075 19.4665ZM33.0704 8.27865C33.0598 6.83309 34.1948 5.67429 35.6284 5.6668C37.0684 5.65931 38.2281 6.79885 38.2388 8.23264C38.2505 9.65573 37.0855 10.8252 35.6541 10.8263C34.2344 10.8284 33.0811 9.69104 33.0704 8.27865ZM39.7857 19.306C39.7911 19.6131 39.5622 19.6858 39.2872 19.6837C38.2762 19.6773 37.2642 19.6816 36.2532 19.6816C35.2422 19.6816 34.2826 19.6634 33.2983 19.6912C32.9496 19.7008 32.8929 19.5895 32.8971 19.2718C32.9164 17.9407 32.9014 16.6096 32.9068 15.2785C32.9089 14.704 32.8747 14.1326 32.7452 13.574C32.6949 13.3579 32.7495 13.2284 32.9046 13.0947C34.1007 12.0611 35.4711 11.7625 36.9571 12.2601C38.4592 12.763 39.4177 13.8351 39.7002 15.4005C39.9323 16.6888 39.7622 18.0038 39.7857 19.306ZM27.3544 19.1969C27.0933 19.443 26.8451 19.704 26.5894 19.9566C26.3915 20.1513 26.1958 20.4937 25.9903 20.5001C25.7411 20.5087 25.5667 20.1417 25.3527 19.9448C25.1687 19.7757 25.0147 19.5596 24.7354 19.5788C24.4691 19.5756 24.2947 19.6976 24.1845 19.9202C24.0614 20.1673 24.1181 20.3953 24.2957 20.5804C24.7108 21.0105 25.1302 21.4385 25.5667 21.8472C25.8299 22.0944 26.1519 22.0784 26.4226 21.8151C27.0217 21.2309 27.6122 20.636 28.1974 20.0368C28.4627 19.765 28.467 19.4237 28.238 19.1797C27.9995 18.9251 27.6422 18.9262 27.3544 19.1969Z" fill="#FEFEFE"/>
<path d="M40.9786 29.7704C40.9048 31.1667 40.035 32.0644 38.8443 32.6305C37.2984 33.3655 35.7172 34.0279 34.1488 34.7169C33.737 34.8978 33.4064 34.8047 33.2534 34.4858C33.0951 34.1541 33.2502 33.8117 33.6599 33.6288C35.1759 32.9525 36.6929 32.2795 38.212 31.6108C38.4945 31.4856 38.7523 31.3261 38.9898 31.1303C39.7847 30.4701 39.9954 29.6473 39.5782 28.8298C39.1706 28.0316 38.3779 27.6839 37.4022 27.9578C35.791 28.4083 34.1927 28.9037 32.588 29.3798C30.8185 29.9052 29.049 30.4316 27.2774 30.9527C27.0666 31.0137 26.9136 31.1025 26.7938 31.308C26.2065 32.3137 25.2511 32.7118 24.1021 32.4379C22.2278 31.9906 20.3556 31.5326 18.4834 31.08C18.4053 31.0608 18.3272 31.0469 18.2512 31.0212C17.9046 30.9078 17.726 30.6018 17.8137 30.2775C17.8993 29.9608 18.2117 29.7789 18.569 29.8645C19.9009 30.1823 21.2296 30.5087 22.5605 30.8297C23.1938 30.9827 23.824 31.1507 24.4626 31.2748C25.234 31.4246 25.8213 30.9837 25.9476 30.2026C26.1005 29.2525 25.7764 28.6394 24.8681 28.2692C23.2334 27.6015 21.5912 26.9541 19.9501 26.3036C19.3082 26.0489 18.6685 25.7675 17.9806 25.6734C16.6155 25.4861 15.2418 25.6188 13.8714 25.6241C11.6194 25.6338 9.59849 26.4299 7.79048 27.6561C5.92685 28.9208 3.92841 29.7607 1.75025 30.2262C1.35762 30.3096 1.23459 30.4701 1.2378 30.8874C1.26134 33.6855 1.24957 36.4846 1.24957 39.2837C1.24957 39.7994 1.25171 39.8026 1.75025 39.6132C4.75539 38.4748 7.74983 37.3117 10.7657 36.2053C13.13 35.3365 15.5136 35.2145 17.8886 36.2246C18.8899 36.6504 19.9073 37.0388 20.9215 37.4369C22.3925 38.0136 23.8464 37.9911 25.2971 37.3342C27.1479 36.4963 29.0094 35.6832 30.8677 34.8646C31.2967 34.6752 31.6465 34.7822 31.7835 35.1225C31.9183 35.4574 31.7706 35.7688 31.3673 35.9485C29.3903 36.828 27.4207 37.7268 25.4298 38.5721C23.8229 39.2537 22.1839 39.2002 20.5653 38.586C19.5094 38.1859 18.4566 37.7771 17.42 37.332C15.383 36.4578 13.3258 36.5552 11.3049 37.286C8.12213 38.4362 4.96935 39.6732 1.80481 40.8758C1.77485 40.8865 1.75453 40.924 1.72992 40.9497H1.09016C0.494271 40.8523 0.123041 40.5302 0.050293 39.9096V30.1524C0.298493 29.5339 0.762797 29.2043 1.41218 29.0781C1.86686 28.9903 2.30549 28.8159 2.75802 28.7164C4.11563 28.4168 5.32881 27.8315 6.47674 27.0462C8.05259 25.9687 9.75575 25.1255 11.6269 24.6793C12.6293 24.4407 13.6595 24.4065 14.6844 24.4033C18.4117 24.3947 17.6874 24.109 21.7635 25.7269C22.8611 26.1634 23.9523 26.616 25.0553 27.0408C26.2161 27.4881 27.0506 28.1975 27.1757 29.5243C27.2035 29.8281 27.4047 29.6612 27.5288 29.6248C28.9698 29.2043 30.4087 28.7763 31.8477 28.3516C33.6567 27.8187 35.4498 27.2238 37.2781 26.769C39.2787 26.2704 41.0845 27.7609 40.9786 29.7704Z" fill="#DEDEDE"/>
<path d="M0.0503103 39.9097C0.232181 40.4201 0.579874 40.7657 1.09018 40.9497C0.743557 40.9497 0.262136 41.0845 0.088824 40.9112C-0.0844878 40.7378 0.0503103 40.2563 0.0503103 39.9097Z" fill="#F9F9F9"/>
<path d="M40.9872 16.1196C40.9572 14.5788 40.3602 13.2809 39.2369 12.2259C38.8422 11.8556 38.3832 11.5764 37.8975 11.3206C39.9644 9.63647 39.7312 7.07919 38.4378 5.68392C37.0513 4.19021 34.703 4.04362 33.1785 5.38218C32.4146 6.05199 31.9664 6.89836 31.884 7.91057C31.7685 9.31333 32.3248 10.4379 33.4299 11.3281C32.9784 11.5357 32.6168 11.8043 32.2467 12.0611C31.3534 10.4411 30.7853 9.90076 28.7237 8.70879C31.2678 6.94223 31.4935 3.76114 29.8107 1.72494C28.1075 -0.336936 25.0446 -0.586245 23.0772 1.16961C22.0876 2.05236 21.526 3.15338 21.4682 4.48552C21.3901 6.29702 22.1807 7.68266 23.6496 8.73447C23.4474 8.83291 23.2805 8.90781 23.1189 8.99341C21.8854 9.64717 20.9279 10.5845 20.2711 11.8171C20.1555 12.0322 20.0881 12.075 19.8795 11.907C19.5949 11.6802 19.2686 11.5047 18.9605 11.3078C21.0392 9.6033 20.7407 7.03532 19.4815 5.68713C18.0822 4.19021 15.7521 4.04148 14.2233 5.38004C13.4702 6.03915 13.0219 6.87054 12.931 7.86777C12.8015 9.28551 13.3536 10.4251 14.4566 11.3196C12.7919 12.1777 11.7435 13.4852 11.4503 15.2989C11.2235 16.6952 11.3113 18.1183 11.3894 19.5264C11.4354 20.3428 12.1179 20.8703 12.9492 20.88C13.5087 20.8853 14.0682 20.8842 14.6277 20.88C15.0835 20.8767 15.3274 20.6745 15.3359 20.3032C15.3456 19.9191 15.0867 19.688 14.6224 19.6826C14.0896 19.6773 13.5558 19.6741 13.023 19.6837C12.7288 19.6891 12.5501 19.5607 12.5533 19.2696C12.5694 18.0316 12.4314 16.783 12.6239 15.5567C12.8743 13.9582 13.7975 12.8165 15.3263 12.2794C16.8348 11.7497 18.2352 12.0482 19.4601 13.1011C19.6046 13.2252 19.6816 13.3483 19.626 13.5473C19.4644 14.1165 19.4516 14.704 19.4505 15.2903C19.4484 16.6364 19.443 17.9824 19.4558 19.3285C19.4591 19.5981 19.4034 19.704 19.1114 19.688C18.646 19.6623 18.1785 19.6794 17.712 19.6826C17.2274 19.6858 16.9353 19.9234 16.945 20.3011C16.9546 20.666 17.2295 20.88 17.7013 20.88C18.8075 20.8821 19.9137 20.9024 21.0189 20.8703C21.4554 20.8575 21.6329 20.9484 21.7421 21.4192C22.2256 23.5089 24.1342 24.916 26.3327 24.8742C28.3803 24.8357 30.2408 23.2981 30.6516 21.2652C30.7168 20.9409 30.826 20.8725 31.133 20.8746C33.8782 20.8864 36.6223 20.8842 39.3674 20.8789C40.3142 20.8778 40.9818 20.2176 40.9904 19.2782C40.9989 18.2253 41.0086 17.1714 40.9872 16.1196ZM16.7085 10.8263C15.2718 10.8359 14.1174 9.68997 14.1142 8.25083C14.111 6.81062 15.2589 5.66359 16.6978 5.6668C18.1368 5.67001 19.2868 6.82667 19.2761 8.26046C19.2654 9.68034 18.1282 10.8177 16.7085 10.8263ZM22.6621 4.70594C22.6717 2.75213 24.2583 1.18459 26.2086 1.20171C28.13 1.21883 29.7101 2.82061 29.6973 4.73697C29.6834 6.68115 28.0861 8.25297 26.1369 8.23906C24.208 8.22622 22.6525 6.6437 22.6621 4.70594ZM26.1776 23.6769C24.3032 23.678 22.7702 22.1479 22.7734 20.2808C22.7777 18.4179 24.3225 16.8814 26.1872 16.8878C28.038 16.8932 29.5582 18.4179 29.5614 20.2711C29.5657 22.1565 28.0551 23.6769 26.1776 23.6769ZM31.7075 19.4665C31.7107 19.612 31.6775 19.6998 31.5117 19.6816C31.486 19.6784 31.4593 19.6805 31.4325 19.6816C30.9896 19.698 30.7126 19.4993 30.6013 19.0856C30.06 17.0793 28.2156 15.6734 26.1444 15.6884C24.0604 15.7033 22.2203 17.1553 21.711 19.1755C21.6693 19.3424 21.7421 19.6109 21.5409 19.6602C21.2895 19.7222 21.0092 19.6987 20.7461 19.6698C20.5738 19.6516 20.6541 19.4751 20.6541 19.3723C20.6466 18.5591 20.6498 17.747 20.6498 16.769C20.6947 15.8061 20.5428 14.6686 20.8445 13.5537C21.5313 11.0136 23.9791 9.25448 26.5691 9.45136C29.2041 9.65038 31.3705 11.6909 31.6412 14.3134C31.8177 16.0243 31.6722 17.7481 31.7075 19.4665ZM33.0704 8.27865C33.0598 6.83309 34.1948 5.67429 35.6284 5.6668C37.0684 5.65931 38.2281 6.79885 38.2388 8.23264C38.2505 9.65573 37.0855 10.8252 35.6541 10.8263C34.2344 10.8284 33.0811 9.69104 33.0704 8.27865ZM39.7857 19.306C39.7911 19.6131 39.5622 19.6858 39.2872 19.6837C38.2762 19.6773 37.2642 19.6816 36.2532 19.6816C35.2422 19.6816 34.2826 19.6634 33.2983 19.6912C32.9496 19.7008 32.8929 19.5895 32.8971 19.2718C32.9164 17.9407 32.9014 16.6096 32.9068 15.2785C32.9089 14.704 32.8747 14.1326 32.7452 13.574C32.6949 13.3579 32.7495 13.2284 32.9046 13.0947C34.1007 12.0611 35.4711 11.7625 36.9571 12.2601C38.4592 12.763 39.4177 13.8351 39.7002 15.4005C39.9323 16.6888 39.7622 18.0038 39.7857 19.306ZM27.3544 19.1969C27.0933 19.443 26.8451 19.704 26.5894 19.9566C26.3915 20.1513 26.1958 20.4937 25.9903 20.5001C25.7411 20.5087 25.5667 20.1417 25.3527 19.9448C25.1687 19.7757 25.0147 19.5596 24.7354 19.5788C24.4691 19.5756 24.2947 19.6976 24.1845 19.9202C24.0614 20.1673 24.1181 20.3953 24.2957 20.5804C24.7108 21.0105 25.1302 21.4385 25.5667 21.8472C25.8299 22.0944 26.1519 22.0784 26.4226 21.8151C27.0217 21.2309 27.6122 20.636 28.1974 20.0368C28.4627 19.765 28.467 19.4237 28.238 19.1797C27.9995 18.9251 27.6422 18.9262 27.3544 19.1969Z" fill="#DEDEDE"/>
<path d="M28.1974 20.0368C27.6122 20.636 27.0217 21.2309 26.4226 21.8151C26.1519 22.0783 25.8299 22.0944 25.5667 21.8472C25.1302 21.4385 24.7109 21.0105 24.2958 20.5803C24.1182 20.3952 24.0615 20.1673 24.1845 19.9202C24.2947 19.6976 24.4691 19.5756 24.7355 19.5788C25.0147 19.5596 25.1688 19.7757 25.3528 19.9448C25.5667 20.1416 25.7411 20.5087 25.9904 20.5001C26.1958 20.4937 26.3916 20.1513 26.5895 19.9565C26.8452 19.704 27.0934 19.4429 27.3544 19.1968C27.6422 18.9261 27.9995 18.9251 28.2381 19.1797C28.467 19.4237 28.4628 19.765 28.1974 20.0368Z" fill="#FEFEFE"/>
<path d="M28.1974 20.0368C27.6122 20.636 27.0217 21.2309 26.4226 21.8151C26.1519 22.0783 25.8299 22.0944 25.5667 21.8472C25.1302 21.4385 24.7109 21.0105 24.2958 20.5803C24.1182 20.3952 24.0615 20.1673 24.1845 19.9202C24.2947 19.6976 24.4691 19.5756 24.7355 19.5788C25.0147 19.5596 25.1688 19.7757 25.3528 19.9448C25.5667 20.1416 25.7411 20.5087 25.9904 20.5001C26.1958 20.4937 26.3916 20.1513 26.5895 19.9565C26.8452 19.704 27.0934 19.4429 27.3544 19.1968C27.6422 18.9261 27.9995 18.9251 28.2381 19.1797C28.467 19.4237 28.4628 19.765 28.1974 20.0368Z" fill="#DEDEDE"/>
</g>
<defs>
<clipPath id="clip0_758_1925">
<rect width="41" height="41" fill="white"/>
</clipPath>
</defs>
</svg>
