<svg width="30" height="30" viewBox="0 0 30 30" fill="none" xmlns="http://www.w3.org/2000/svg">
<g clip-path="url(#clip0_760_2150)">
<path d="M21.0349 2C21.5522 2.14806 22.0524 2.32482 22.4839 2.66725C23.4418 3.42712 23.8818 4.7264 23.5642 5.90696C23.2349 7.13188 22.2233 8.03525 20.9839 8.2094C20.8483 8.22831 20.7121 8.24462 20.5511 8.26549C20.6028 8.33137 20.6427 8.38811 20.6892 8.43899C21.5954 9.43236 22.5042 10.4238 23.4051 11.4211C23.5151 11.543 23.6277 11.5835 23.7862 11.5809C24.3008 11.573 24.8154 11.5685 25.3294 11.5809C26.231 11.6037 26.8995 12.2325 26.9912 13.1254C27.0717 13.9074 26.5171 14.6706 25.7177 14.8623C25.5527 14.9021 25.3779 14.9125 25.2076 14.9139C24.456 14.9191 23.705 14.9099 22.9533 14.9184C22.351 14.9249 21.8625 14.709 21.4677 14.2538C21.084 13.8116 20.6807 13.3863 20.2604 12.9251C20.2113 13.1013 20.17 13.2454 20.1314 13.3902C19.8898 14.3014 19.6541 15.2132 19.4039 16.1225C19.3647 16.2653 19.3928 16.3403 19.5035 16.4297C20.3474 17.1106 21.1757 17.8105 22.0301 18.4784C22.5114 18.8547 22.7582 19.325 22.8453 19.9198C23.0915 21.6007 23.3573 23.2783 23.6186 24.9572C23.7475 25.7868 23.3868 26.518 22.679 26.8415C21.9791 27.1618 21.1534 26.9935 20.6931 26.3823C20.5098 26.139 20.3717 25.8253 20.3212 25.5253C20.0666 24.0186 19.8485 22.506 19.6115 20.9967C19.5964 20.9002 19.5572 20.7821 19.4871 20.7241C18.7918 20.1455 18.0872 19.5774 17.3847 19.0067C17.3605 18.9871 17.3297 18.976 17.2819 18.9506C17.0423 19.747 16.8066 20.5297 16.5702 21.3117C16.1171 22.8126 15.6693 24.3153 15.2064 25.8136C14.9857 26.5278 14.3558 26.987 13.6369 26.9967C12.9232 27.0065 12.2757 26.5578 12.0387 25.8853C11.9064 25.5109 11.9261 25.1372 12.04 24.7602C12.6299 22.8087 13.2166 20.8552 13.8045 18.903C14.5942 16.2816 15.3838 13.6602 16.1734 11.0388C16.1944 10.9704 16.2088 10.8999 16.2343 10.7982C15.8624 10.864 15.5115 10.9195 15.1645 10.9945C15.1022 11.0082 15.0446 11.0962 15.0067 11.1621C14.623 11.8235 14.2563 12.4953 13.8576 13.1476C13.7168 13.3778 13.4994 13.5611 13.3213 13.7698C13.2611 13.8409 13.191 13.9172 13.1655 14.0027C12.2279 17.1902 11.2936 20.379 10.3658 23.5698C10.3383 23.6638 10.3638 23.7955 10.4116 23.8842C10.9171 24.8137 10.6991 25.9251 9.87736 26.561C9.0635 27.1911 7.93406 27.1304 7.1595 26.4234C7.06718 26.3393 6.94867 26.2708 6.83016 26.2297C6.19112 26.0092 5.5462 25.8025 4.90585 25.5846C4.17384 25.3355 3.83992 24.6943 4.06908 23.9605C4.4783 22.6502 4.88425 21.3385 5.31442 20.0346C5.87095 18.3466 7.51961 17.3167 9.30183 17.5163C9.36534 17.5235 9.43016 17.5241 9.51201 17.5287C9.70647 16.8686 9.90027 16.2157 10.0921 15.5628C10.316 14.7991 10.5419 14.0353 10.756 13.2682C10.7881 13.1528 10.7809 13.0139 10.7508 12.8958C10.6395 12.4588 10.6604 12.0374 10.8837 11.6428C11.4527 10.6377 12.0256 9.63456 12.607 8.63662C12.8637 8.19635 13.2631 7.94654 13.7646 7.85653C15.1212 7.61259 16.4772 7.36735 17.8339 7.12145C17.8974 7.10971 17.9596 7.09014 18.0388 7.06992C18.012 7.021 17.993 6.97926 17.9668 6.94143C16.6592 5.061 17.6368 2.55441 19.8727 2.05088C19.9179 2.04044 19.9598 2.01761 20.003 2C20.3461 2 20.6892 2 21.0323 2L21.0349 2ZM24.0664 14.0803C24.4665 14.0803 24.8672 14.0803 25.2672 14.0803C25.2836 14.0803 25.3 14.0803 25.3163 14.0796C25.7013 14.0614 25.9907 13.8618 26.1099 13.533C26.3115 12.9773 25.9128 12.4262 25.2875 12.4144C24.6995 12.4033 24.1109 12.404 23.5236 12.4157C23.282 12.4203 23.1111 12.3388 22.9494 12.1601C21.7519 10.8367 20.5432 9.52302 19.345 8.19961C19.0792 7.9061 18.7747 7.7887 18.3838 7.8611C16.8923 8.13765 15.3995 8.40964 13.9067 8.67967C13.6297 8.72989 13.4287 8.87469 13.2912 9.11537C12.734 10.0898 12.1709 11.0617 11.6236 12.042C11.545 12.1829 11.507 12.3675 11.5116 12.5292C11.5227 12.8932 11.8023 13.1991 12.1467 13.2734C12.516 13.353 12.8637 13.2063 13.0634 12.8638C13.5184 12.0837 13.9676 11.3004 14.4121 10.5144C14.5169 10.3292 14.6557 10.2294 14.8692 10.1942C15.4565 10.0977 16.0412 9.98286 16.6265 9.87589C17.1182 9.78588 17.348 10.037 17.2053 10.5131C16.9722 11.2913 16.7365 12.0687 16.5021 12.8469C15.2797 16.9078 14.0566 20.9693 12.8362 25.0309C12.6836 25.5396 12.9049 25.9825 13.3711 26.124C13.8366 26.2656 14.2688 26.0197 14.4265 25.5142C14.5745 25.0413 14.7159 24.5658 14.8587 24.0916C15.4493 22.131 16.0392 20.1703 16.6304 18.2103C16.7548 17.7981 17.0573 17.6716 17.3644 17.9188C18.3171 18.6858 19.2651 19.4581 20.2073 20.2381C20.2983 20.3138 20.371 20.4488 20.39 20.5662C20.5642 21.6333 20.7226 22.703 20.8883 23.7707C20.9793 24.3571 21.0598 24.9454 21.1744 25.5272C21.2503 25.912 21.5888 26.1579 21.9692 26.1651C22.3241 26.1716 22.6685 25.9407 22.7635 25.5918C22.8086 25.4255 22.8106 25.235 22.7844 25.0628C22.5297 23.367 22.2619 21.6724 22.0059 19.9766C21.9548 19.6361 21.8101 19.3746 21.5371 19.1561C20.5943 18.4027 19.6672 17.6298 18.725 16.8758C18.4945 16.6912 18.4369 16.4969 18.5128 16.2164C18.8847 14.8441 19.2455 13.4685 19.6063 12.0935C19.656 11.9031 19.7215 11.7315 19.931 11.6748C20.1504 11.6148 20.3016 11.727 20.4411 11.8829C20.9917 12.4947 21.5541 13.0967 22.0995 13.7124C22.3274 13.97 22.5932 14.094 22.937 14.0848C23.3121 14.0744 23.6886 14.0822 24.0638 14.0822L24.0664 14.0803ZM9.60564 23.0865C9.62462 23.0656 9.63314 23.0611 9.6351 23.0539C10.0168 21.7618 10.4012 20.4703 10.7724 19.175C10.7927 19.1052 10.7311 18.9728 10.6663 18.9232C9.03731 17.6872 6.71885 18.4132 6.08833 20.3529C5.94494 20.7932 5.80744 21.2348 5.66733 21.6757C5.40477 22.5034 5.14091 23.3311 4.88032 24.1601C4.78996 24.4471 4.84169 24.6604 5.0643 24.7445C5.53965 24.9252 6.02547 25.0772 6.52177 25.2461C6.30112 23.5555 7.99954 22.2771 9.60695 23.0865H9.60564ZM22.8093 5.13144C22.8132 3.86934 21.7964 2.84205 20.5347 2.83292C19.2645 2.82314 18.2241 3.84912 18.2169 5.1184C18.2103 6.37202 19.237 7.40778 20.4961 7.41692C21.7696 7.4267 22.8054 6.40267 22.8093 5.13209V5.13144ZM7.34675 24.9161C7.34741 25.6048 7.8974 26.1593 8.58488 26.1651C9.2763 26.1703 9.85313 25.6009 9.85248 24.9135C9.85182 24.2214 9.2835 23.6651 8.58226 23.6703C7.8902 23.6755 7.34545 24.224 7.3461 24.9161H7.34675ZM11.0736 18.166C11.4736 16.8002 11.8691 15.448 12.2613 14.1083C11.9883 14.0242 11.7362 13.9472 11.4612 13.8624C11.0801 15.165 10.6997 16.4669 10.3219 17.7596C10.5851 17.9018 10.8136 18.0251 11.0736 18.166Z" fill="white"/>
</g>
<defs>
<clipPath id="clip0_760_2150">
<rect width="23" height="25" fill="white" transform="translate(4 2)"/>
</clipPath>
</defs>
</svg>
