<svg width="30" height="30" viewBox="0 0 30 30" fill="none" xmlns="http://www.w3.org/2000/svg">
<g clip-path="url(#clip0_760_2178)">
<path d="M10.6589 13.5997C10.5898 14.2171 10.5112 14.7676 10.4698 15.3209C10.3185 17.3202 10.4538 19.3059 10.7913 21.2807C10.8684 21.7318 10.7964 21.8492 10.3323 22.0185C10.4559 22.5344 10.5811 23.0546 10.7062 23.5748C10.8306 24.0899 10.9579 24.6036 11.0786 25.1195C11.1695 25.5071 10.9797 25.7557 10.5789 25.7621C10.1162 25.7693 9.65359 25.7657 9.19095 25.7636C8.85415 25.7614 8.72103 25.6634 8.6141 25.3435C8.39369 24.68 8.17619 24.015 7.90923 23.3478C7.78047 23.9062 7.65172 24.4653 7.52369 25.0236C7.47932 25.216 7.44222 25.4105 7.39348 25.6015C7.32802 25.8587 7.16726 26.0013 6.88865 25.9999C6.47111 25.9977 6.05357 26.0028 5.63676 25.9992C5.21267 25.9956 5.03736 25.8061 5.08173 25.3918C5.19594 24.3291 5.31523 23.2671 5.43235 22.2044C5.4389 22.1431 5.43962 22.0819 5.44544 21.9861C5.14574 21.9861 4.85841 21.989 4.57108 21.9854C4.19136 21.9803 4.01678 21.8254 4.00805 21.4464C3.90112 16.9088 4.85187 12.6378 7.28946 8.74359C7.84667 7.8538 8.64756 7.42583 9.70015 7.5973C10.7222 7.76302 11.3259 8.39776 11.6322 9.37618C11.8693 10.1341 12.1959 10.8654 12.4833 11.6082C12.5153 11.6025 12.5473 11.5967 12.58 11.5909C12.6106 11.5326 12.6462 11.4764 12.6709 11.4159C13.175 10.1961 13.8981 9.11825 14.8074 8.15856C16.5518 6.317 19.6826 6.6967 20.7774 8.97631C21.619 10.7292 22.8578 12.1176 24.2777 13.39C24.5891 13.6688 24.8146 13.988 24.792 14.4131C24.7789 14.6487 24.624 14.8872 24.6516 15.1105C24.6793 15.3331 24.9019 15.5277 24.9542 15.7539C25.0153 16.0198 25.0037 16.3072 24.9877 16.5832C24.9739 16.8224 24.7505 16.9881 24.5178 16.9809C24.2806 16.973 24.0944 16.7993 24.0762 16.5529C24.0653 16.4009 24.0704 16.2474 24.0726 16.0947C24.0755 15.8958 24.0333 15.7193 23.7882 15.7229C23.5627 15.7265 23.5154 15.8901 23.5197 16.0817C23.5241 16.2705 23.5205 16.4593 23.5205 16.648C23.5205 19.4341 23.5205 22.2202 23.5205 25.0064C23.5205 25.087 23.5234 25.1685 23.5197 25.2492C23.5052 25.5626 23.3132 25.7701 23.0447 25.7657C22.7734 25.7614 22.593 25.559 22.593 25.2347C22.5908 22.1612 22.5908 19.0876 22.5952 16.014C22.5952 15.8461 22.6388 15.6782 22.6672 15.4686C21.0421 14.55 19.7895 13.1933 18.6715 11.676C18.0793 12.2841 17.7193 12.9937 17.4894 13.7661C16.9053 15.7323 16.8136 17.7244 17.245 19.7317C17.6298 21.5221 18.0306 23.3089 18.4256 25.0971C18.5151 25.5013 18.3732 25.7103 17.9593 25.7729C17.5651 25.8327 17.1701 25.8882 16.7765 25.9538C16.1233 26.0626 16.0346 25.9617 15.8985 25.3118C15.6272 24.0135 15.3086 22.7253 15.0096 21.4328C14.9769 21.4342 14.9441 21.4349 14.9114 21.4364C14.8852 21.5567 14.8539 21.6756 14.8343 21.7966C14.6466 22.9487 14.4611 24.1014 14.2756 25.2535C14.2145 25.6332 14.0661 25.765 13.6777 25.7665C13.1605 25.7686 12.6433 25.7715 12.1261 25.765C11.7391 25.76 11.5369 25.5056 11.6322 25.1425C12.0039 23.7232 12.1327 22.2714 12.1327 20.816C12.1327 19.1459 12.0061 17.4766 11.9974 15.8065C11.9944 15.1667 11.8526 14.671 11.323 14.2841C11.0939 14.117 10.9208 13.8742 10.6603 13.6004L10.6589 13.5997ZM17.4065 24.912C17.3905 24.8176 17.381 24.7477 17.3657 24.6793C17.0529 23.2685 16.7482 21.8557 16.423 20.4479C15.9567 18.4298 15.9094 16.4088 16.3481 14.3828C16.6063 13.1919 17.0391 12.078 17.8698 11.1493C17.9528 11.0563 18.0364 10.9648 18.1201 10.8719C18.0131 10.6961 17.912 10.5369 17.8175 10.3733C17.6327 10.0534 17.672 9.79046 17.9215 9.64348C18.1761 9.49362 18.4147 9.59232 18.6198 9.89925C19.0352 10.5203 19.436 11.1536 19.8921 11.7437C20.7803 12.8921 21.7914 13.9181 23.0789 14.6386C23.4535 14.8483 23.658 14.8446 23.8042 14.6386C23.9453 14.439 23.8784 14.2704 23.5634 13.9866C22.0991 12.6659 20.8021 11.2343 19.967 9.40932C19.2149 7.76518 16.9206 7.379 15.6388 8.64633C13.7133 10.5513 12.7793 12.8712 12.8797 15.5774C12.9154 16.5464 13.0317 17.5148 13.0317 18.4838C13.0317 19.9738 12.9808 21.4645 12.9146 22.953C12.887 23.5755 12.7619 24.1944 12.6797 24.8241H13.3838C13.4107 24.667 13.4362 24.5258 13.4595 24.3846C13.7381 22.6741 14.0145 20.9637 14.2953 19.254C14.3498 18.9233 14.4917 18.7727 14.7361 18.7554C14.9972 18.7367 15.1595 18.8686 15.2562 19.2029C15.5879 20.3499 15.9269 21.4947 16.2397 22.6468C16.4506 23.4249 16.6223 24.2131 16.8158 25.0136C17.0071 24.9811 17.1992 24.9487 17.4072 24.9134L17.4065 24.912ZM12.0337 13.7214C12.0723 13.5125 12.0846 13.3583 12.1305 13.2149C12.2134 12.957 12.161 12.7488 12.0148 12.5146C11.4416 11.5945 10.9964 10.6154 10.7105 9.56783C10.5425 8.95109 10.1373 8.57284 9.49428 8.49287C8.8847 8.41649 8.42788 8.67659 8.09981 9.18669C7.34766 10.3575 6.74608 11.6003 6.26525 12.9022C5.36252 15.3468 4.95443 17.8779 4.91879 20.4738C4.91588 20.6597 4.91879 20.8463 4.91879 21.0444H9.76198C9.67614 20.1597 9.56775 19.2958 9.51465 18.4291C9.40699 16.6848 9.45209 14.9441 9.80489 13.2257C9.88709 12.8251 9.89437 12.4851 9.62449 12.1515C9.49719 11.9944 9.41281 11.7941 9.34298 11.601C9.23096 11.2898 9.12912 10.972 9.05856 10.6493C8.99745 10.3676 9.1764 10.1356 9.43827 10.0916C9.68196 10.0506 9.90382 10.2163 9.96711 10.4872C9.9853 10.5657 9.99548 10.6464 10.0166 10.7242C10.349 11.9224 11.1746 12.7934 12.0337 13.7221V13.7214ZM10.0457 24.8428C9.80926 23.8687 9.5823 22.9328 9.35607 21.9976H8.4868C8.79159 22.9278 9.08838 23.8377 9.39245 24.7455C9.40699 24.7888 9.48265 24.8349 9.53284 24.8385C9.69214 24.8507 9.85218 24.8428 10.0457 24.8428ZM6.38746 21.9983C6.27398 23.0344 6.16414 24.0402 6.0543 25.0445C6.54094 25.1288 6.54531 25.1267 6.64133 24.7037C6.7308 24.3096 6.821 23.9163 6.90975 23.5222C7.02323 23.0193 7.13452 22.5156 7.25018 21.9983H6.38746Z" fill="white"/>
<path d="M21.9645 3C23.4251 2.99856 24.6181 4.17871 24.6101 5.61752C24.6021 7.04552 23.4164 8.21702 21.9718 8.22351C20.5184 8.22927 19.3312 7.0484 19.3341 5.59879C19.337 4.16142 20.5111 3.00144 21.9645 3ZM21.9696 3.92006C21.0188 3.91934 20.2608 4.6708 20.2616 5.61248C20.2623 6.53758 21.0145 7.28832 21.9521 7.29913C22.8905 7.31065 23.6725 6.54838 23.6797 5.61536C23.687 4.68377 22.9174 3.92078 21.9688 3.92006H21.9696Z" fill="white"/>
<path d="M9.90309 5.7522C9.89945 4.38256 11.0029 3.28094 12.3836 3.2759C13.7795 3.27085 14.8954 4.37391 14.8903 5.75292C14.8852 7.11896 13.7701 8.22346 12.396 8.22346C11.024 8.22346 9.90599 7.11535 9.90309 5.7522ZM13.9607 5.74355C13.9599 4.87897 13.2616 4.19163 12.388 4.19451C11.5289 4.19739 10.8378 4.88113 10.8327 5.73347C10.8276 6.59588 11.5238 7.29619 12.3916 7.2998C13.2572 7.30412 13.9614 6.60525 13.9607 5.74355Z" fill="white"/>
</g>
<defs>
<clipPath id="clip0_760_2178">
<rect width="21" height="23" fill="white" transform="translate(4 3)"/>
</clipPath>
</defs>
</svg>
