<svg width="28" height="28" viewBox="0 0 28 28" fill="none" xmlns="http://www.w3.org/2000/svg">
<g clip-path="url(#clip0_758_2056)">
<path d="M14.3856 3.33273C14.3856 3.20218 14.3585 3.15322 14.2171 3.15866C13.8854 3.16954 13.5537 3.1641 13.2275 3.1641H12.6457C12.0476 3.1641 12.0531 3.1641 12.0585 3.76791C12.0585 3.89846 12.0911 3.94198 12.2325 3.94198C12.7545 3.9311 13.2764 3.93654 13.8039 3.93654C14.199 3.93654 14.3929 3.73527 14.3856 3.33273ZM15.5492 24.2484C15.5655 24.0961 15.5112 24.058 15.3643 24.0635C14.5868 24.0689 13.8147 24.0635 13.0426 24.0635C12.4282 24.0635 12.4337 24.0635 12.4445 24.6836C12.45 24.8087 12.4826 24.8468 12.6077 24.8413C13.0698 24.8359 13.5266 24.8413 13.9833 24.8413C14.3095 24.8413 14.6303 24.8413 14.9511 24.8359C15.1414 24.8359 15.3915 24.9229 15.5112 24.8033C15.6253 24.689 15.5275 24.4388 15.5492 24.2484ZM15.5383 3.1641C15.2846 3.1641 15.1577 3.2874 15.1577 3.534C15.1577 3.7806 15.29 3.91478 15.5547 3.93654C15.8193 3.9583 15.9443 3.835 15.9298 3.56664C15.9153 3.29828 15.7848 3.1641 15.5383 3.1641ZM15.5492 24.2484C15.5655 24.0961 15.5112 24.058 15.3643 24.0635C14.5868 24.0689 13.8147 24.0635 13.0426 24.0635C12.4282 24.0635 12.4337 24.0635 12.4445 24.6836C12.45 24.8087 12.4826 24.8468 12.6077 24.8413C13.0698 24.8359 13.5266 24.8413 13.9833 24.8413C14.3095 24.8413 14.6303 24.8413 14.9511 24.8359C15.1414 24.8359 15.3915 24.9229 15.5112 24.8033C15.6253 24.689 15.5275 24.4388 15.5492 24.2484ZM15.5383 3.1641C15.2846 3.1641 15.1577 3.2874 15.1577 3.534C15.1577 3.80236 15.29 3.93654 15.5547 3.93654C15.8048 3.93654 15.9298 3.81324 15.9298 3.56664C15.9298 3.29828 15.7993 3.1641 15.5383 3.1641ZM14.3856 3.33273C14.3856 3.20218 14.3585 3.15322 14.2171 3.15866C13.8854 3.16954 13.5537 3.1641 13.2275 3.1641H12.6457C12.0476 3.1641 12.0531 3.1641 12.0585 3.76791C12.0585 3.89846 12.0911 3.94198 12.2325 3.94198C12.7545 3.9311 13.2764 3.93654 13.8039 3.93654C14.199 3.93654 14.3929 3.73527 14.3856 3.33273ZM5.89267 12.0689C5.6208 12.0689 5.48487 12.1995 5.48487 12.4606C5.48487 12.7144 5.60812 12.8413 5.85461 12.8413C6.12284 12.8413 6.25696 12.709 6.25696 12.4442C6.25696 12.194 6.13553 12.0689 5.89267 12.0689ZM6.25696 8.77788C6.25696 8.17951 6.25696 8.18495 5.65343 8.19039C5.5175 8.19583 5.47944 8.22847 5.48487 8.36446C5.49031 8.82684 5.48487 9.28377 5.48487 9.74615V10.709C5.48487 11.2965 5.48487 11.291 6.06666 11.2965C6.22434 11.2965 6.2624 11.2529 6.2624 11.1006C6.25696 10.3228 6.25696 9.55032 6.25696 8.77788ZM14.3856 3.33273C14.3856 3.20218 14.3585 3.15322 14.2171 3.15866C13.8854 3.16954 13.5537 3.1641 13.2275 3.1641H12.6457C12.0476 3.1641 12.0531 3.1641 12.0585 3.76791C12.0585 3.89846 12.0911 3.94198 12.2325 3.94198C12.7545 3.9311 13.2764 3.93654 13.8039 3.93654C14.199 3.93654 14.3929 3.73527 14.3856 3.33273ZM15.5492 24.2484C15.5655 24.0961 15.5112 24.058 15.3643 24.0635C14.5868 24.0689 13.8147 24.0635 13.0426 24.0635C12.4282 24.0635 12.4337 24.0635 12.4445 24.6836C12.45 24.8087 12.4826 24.8468 12.6077 24.8413C13.0698 24.8359 13.5266 24.8413 13.9833 24.8413C14.3095 24.8413 14.6303 24.8413 14.9511 24.8359C15.1414 24.8359 15.3915 24.9229 15.5112 24.8033C15.6253 24.689 15.5275 24.4388 15.5492 24.2484ZM15.5383 3.1641C15.2846 3.1641 15.1577 3.2874 15.1577 3.534C15.1577 3.80236 15.29 3.93654 15.5547 3.93654C15.8048 3.93654 15.9298 3.81324 15.9298 3.56664C15.9298 3.29828 15.7993 3.1641 15.5383 3.1641ZM23.7975 12.6455C23.4985 12.6455 23.1994 12.6401 22.9004 12.6455C22.7536 12.651 22.6883 12.6183 22.6992 12.4551C22.7155 12.1559 22.7046 11.8568 22.7046 11.5576C22.6992 11.2421 22.5578 11.0952 22.2533 11.0952C21.9054 11.0898 21.5574 11.0898 21.2094 11.0952C20.9158 11.0952 20.7744 11.2421 20.769 11.5413C20.7635 11.8568 20.7635 12.1723 20.769 12.4823C20.7744 12.6129 20.7363 12.6455 20.6113 12.6455C20.2959 12.6346 19.9806 12.6455 19.6706 12.6455C19.3716 12.6455 19.2248 12.7924 19.2194 13.0916V14.1306C19.2248 14.4297 19.3662 14.5766 19.6652 14.582C19.9534 14.5875 20.2416 14.5929 20.5352 14.5766C20.7092 14.5766 20.7907 14.6038 20.7744 14.8051C20.7527 15.0879 20.769 15.3708 20.769 15.6537C20.769 15.9964 20.9049 16.1269 21.2583 16.1324H22.2479C22.5578 16.1269 22.6992 15.9855 22.7046 15.67C22.7046 15.3545 22.7101 15.039 22.6992 14.7289C22.6992 14.6092 22.7318 14.5766 22.8514 14.582C23.1722 14.5875 23.493 14.5875 23.8138 14.582C24.0966 14.5766 24.2434 14.4297 24.2488 14.1469C24.2542 13.7933 24.2542 13.4397 24.2488 13.0861C24.2434 12.7924 24.0966 12.651 23.7975 12.6455ZM23.2973 13.815C22.9928 13.7987 22.6883 13.8042 22.3838 13.8096C22.0739 13.8096 21.9325 13.9565 21.9271 14.272C21.9271 14.5875 21.9162 14.8976 21.9325 15.2131C21.9434 15.3926 21.8347 15.3545 21.7368 15.3545C21.6335 15.3599 21.5302 15.3871 21.5356 15.2131C21.5519 14.8976 21.5465 14.582 21.5356 14.2665C21.5356 13.9565 21.3943 13.815 21.0789 13.8096C20.9266 13.8042 20.7744 13.8096 20.6222 13.8096C20.4699 13.8096 20.334 13.7987 20.1872 13.8096C20.0404 13.8205 19.9751 13.7879 19.9806 13.6192C19.986 13.4723 20.0078 13.4071 20.1763 13.418C20.4754 13.4343 20.7744 13.4234 21.068 13.4234C21.3943 13.418 21.5356 13.2765 21.5356 12.9447C21.5356 12.6401 21.5519 12.3354 21.5356 12.0308C21.5247 11.835 21.6444 11.8785 21.7477 11.8731C21.8727 11.8622 21.938 11.8785 21.9325 12.0308C21.9217 12.3463 21.9271 12.6618 21.9325 12.9719C21.9325 13.2711 22.0793 13.418 22.373 13.418C22.6774 13.4234 22.9874 13.4343 23.2919 13.418C23.4658 13.4071 23.4822 13.4778 23.4822 13.6247C23.4822 13.7607 23.4604 13.8205 23.2973 13.815ZM23.7975 12.6455C23.4985 12.6455 23.1994 12.6401 22.9004 12.6455C22.7536 12.651 22.6883 12.6183 22.6992 12.4551C22.7155 12.1559 22.7046 11.8568 22.7046 11.5576C22.6992 11.2421 22.5578 11.0952 22.2533 11.0952C21.9054 11.0898 21.5574 11.0898 21.2094 11.0952C20.9158 11.0952 20.7744 11.2421 20.769 11.5413C20.7635 11.8568 20.7635 12.1723 20.769 12.4823C20.7744 12.6129 20.7363 12.6455 20.6113 12.6455C20.2959 12.6346 19.9806 12.6455 19.6706 12.6455C19.3716 12.6455 19.2248 12.7924 19.2194 13.0916V14.1306C19.2248 14.4297 19.3662 14.5766 19.6652 14.582C19.9534 14.5875 20.2416 14.5929 20.5352 14.5766C20.7092 14.5766 20.7907 14.6038 20.7744 14.8051C20.7527 15.0879 20.769 15.3708 20.769 15.6537C20.769 15.9964 20.9049 16.1269 21.2583 16.1324H22.2479C22.5578 16.1269 22.6992 15.9855 22.7046 15.67C22.7046 15.3545 22.7101 15.039 22.6992 14.7289C22.6992 14.6092 22.7318 14.5766 22.8514 14.582C23.1722 14.5875 23.493 14.5875 23.8138 14.582C24.0966 14.5766 24.2434 14.4297 24.2488 14.1469C24.2542 13.7933 24.2542 13.4397 24.2488 13.0861C24.2434 12.7924 24.0966 12.651 23.7975 12.6455ZM23.2973 13.815C22.9928 13.7987 22.6883 13.8042 22.3838 13.8096C22.0739 13.8096 21.9325 13.9565 21.9271 14.272C21.9271 14.5875 21.9162 14.8976 21.9325 15.2131C21.9434 15.3926 21.8347 15.3545 21.7368 15.3545C21.6335 15.3599 21.5302 15.3871 21.5356 15.2131C21.5519 14.8976 21.5465 14.582 21.5356 14.2665C21.5356 13.9565 21.3943 13.815 21.0789 13.8096C20.9266 13.8042 20.7744 13.8096 20.6222 13.8096C20.4699 13.8096 20.334 13.7987 20.1872 13.8096C20.0404 13.8205 19.9751 13.7879 19.9806 13.6192C19.986 13.4723 20.0078 13.4071 20.1763 13.418C20.4754 13.4343 20.7744 13.4234 21.068 13.4234C21.3943 13.418 21.5356 13.2765 21.5356 12.9447C21.5356 12.6401 21.5519 12.3354 21.5356 12.0308C21.5247 11.835 21.6444 11.8785 21.7477 11.8731C21.8727 11.8622 21.938 11.8785 21.9325 12.0308C21.9217 12.3463 21.9271 12.6618 21.9325 12.9719C21.9325 13.2711 22.0793 13.418 22.373 13.418C22.6774 13.4234 22.9874 13.4343 23.2919 13.418C23.4658 13.4071 23.4822 13.4778 23.4822 13.6247C23.4822 13.7607 23.4604 13.8205 23.2973 13.815ZM15.5492 24.2484C15.5655 24.0961 15.5112 24.058 15.3643 24.0635C14.5868 24.0689 13.8147 24.0635 13.0426 24.0635C12.4282 24.0635 12.4337 24.0635 12.4445 24.6836C12.45 24.8087 12.4826 24.8468 12.6077 24.8413C13.0698 24.8359 13.5266 24.8413 13.9833 24.8413C14.3095 24.8413 14.6303 24.8413 14.9511 24.8359C15.1414 24.8359 15.3915 24.9229 15.5112 24.8033C15.6253 24.689 15.5275 24.4388 15.5492 24.2484ZM6.06666 11.2965C6.22434 11.2965 6.2624 11.2529 6.2624 11.1006C6.25696 10.3228 6.25696 9.55032 6.25696 8.77788C6.25696 8.17951 6.25696 8.18495 5.65343 8.19039C5.5175 8.19583 5.47944 8.22847 5.48487 8.36446C5.49031 8.82684 5.48487 9.28377 5.48487 9.74615V10.709C5.48487 11.2965 5.48487 11.291 6.06666 11.2965ZM5.89267 12.0689C5.6208 12.0689 5.48487 12.1995 5.48487 12.4606C5.48487 12.7144 5.60812 12.8413 5.85461 12.8413C6.12284 12.8413 6.25696 12.709 6.25696 12.4442C6.25696 12.194 6.13553 12.0689 5.89267 12.0689ZM15.5383 3.1641C15.2846 3.1641 15.1577 3.2874 15.1577 3.534C15.1577 3.80236 15.29 3.93654 15.5547 3.93654C15.8048 3.93654 15.9298 3.81324 15.9298 3.56664C15.9298 3.29828 15.7993 3.1641 15.5383 3.1641ZM14.2171 3.15866C13.8854 3.16954 13.5537 3.1641 13.2275 3.1641H12.6457C12.0476 3.1641 12.0531 3.1641 12.0585 3.76791C12.0585 3.89846 12.0911 3.94198 12.2325 3.94198C12.7545 3.9311 13.2764 3.93654 13.8039 3.93654C14.199 3.93654 14.3929 3.73527 14.3856 3.33273C14.3856 3.20218 14.3585 3.15322 14.2171 3.15866ZM25.9833 13.2765C25.7767 11.0571 23.9715 9.37625 21.7803 9.35449C21.2366 9.34905 20.7146 9.46328 20.1872 9.64279V3.26745C20.1872 2.47869 19.7087 2 18.9257 2H8.69828C7.89357 2 7.42053 2.47325 7.42053 3.27833V6.96102C7.34441 6.93382 7.29004 6.9175 7.2411 6.89574C6.50708 6.62919 5.76761 6.5748 5.0064 6.74343C3.16317 7.15141 1.83104 8.96827 2.01591 10.845C2.20621 12.825 3.83195 14.3808 5.76761 14.3699C6.28415 14.3645 6.70282 14.4787 7.09973 14.7724C7.1378 14.7996 7.18129 14.8268 7.22479 14.8432C7.38791 14.9139 7.42597 15.0281 7.42597 15.2076C7.42053 18.3735 7.42053 21.5449 7.42053 24.7108C7.42053 25.5267 7.89357 26 8.70916 26H18.9094C19.7141 26 20.1872 25.5267 20.1872 24.7271V18.3626C20.1872 18.0036 20.5406 17.7099 20.894 17.786C21.4649 17.9003 22.0304 17.9003 22.6013 17.7806C24.6838 17.3563 26.1736 15.3762 25.9833 13.2765ZM8.19262 3.31097C8.19262 2.89755 8.31224 2.77788 8.72003 2.77788H18.9149C19.2792 2.77788 19.4151 2.90843 19.4151 3.26745C19.4151 3.54488 19.4042 3.81686 19.4205 4.08885C19.426 4.2738 19.3825 4.3282 19.1867 4.3282C17.3924 4.32276 15.5981 4.32276 13.7984 4.32276C11.9987 4.32276 10.2098 4.32276 8.41555 4.3282C8.23612 4.3282 8.17631 4.29012 8.18718 4.10517C8.20893 3.84406 8.19262 3.57752 8.19262 3.31097ZM8.18718 5.32366C8.18175 5.12239 8.25243 5.0952 8.42642 5.0952C12.015 5.10063 15.5981 5.10063 19.1867 5.0952C19.3498 5.0952 19.4205 5.11151 19.4151 5.31278C19.4097 6.82502 19.4097 8.3427 19.4151 9.85494C19.4151 10.0073 19.3607 10.0834 19.2465 10.1704C17.2783 11.5956 16.8868 14.3318 18.3875 16.2357C18.4962 16.3717 18.4908 16.4424 18.382 16.573C17.4794 17.6664 16.5877 18.7706 15.6906 19.8694C15.5112 20.087 15.4948 20.272 15.6253 20.4352C15.7667 20.6038 15.9516 20.6256 16.1854 20.4841C17.1532 19.8966 18.1102 19.3146 19.0725 18.7271C19.1759 18.6673 19.2792 18.6074 19.4097 18.5258C19.4097 19.9565 19.4042 21.3382 19.4151 22.7144C19.4151 22.883 19.3553 22.9102 19.2085 22.9048H8.37749C8.29049 22.9048 8.19262 22.9374 8.19262 22.7743C8.19806 20.3427 8.19262 17.9057 8.19262 15.4361C8.49711 15.621 8.77441 15.7842 9.05171 15.9529C9.82923 16.4261 10.6068 16.8994 11.3788 17.3726C11.6398 17.5249 11.8193 17.5195 11.9661 17.3509C12.1129 17.1822 12.0911 16.9973 11.9008 16.7634C10.9221 15.5666 9.94885 14.3645 8.96471 13.1732C8.85597 13.0372 8.86684 12.9665 8.96471 12.8305C10.199 11.1659 9.93254 8.89755 8.34486 7.55394C8.23612 7.46147 8.18718 7.37443 8.18718 7.233C8.19806 6.59655 8.2035 5.96011 8.18718 5.32366ZM6.81156 13.6845C6.64301 13.5811 6.47989 13.5485 6.28415 13.5757C4.64754 13.8205 3.05986 12.6455 2.82062 11.0136C2.57051 9.28921 3.71233 7.7117 5.39244 7.46147C6.71913 7.26564 7.99144 7.90209 8.61129 9.07162C9.2257 10.2412 9.03539 11.6555 8.12737 12.6346C7.8827 12.9012 7.87726 13.0426 8.10562 13.3309C8.63304 13.9782 9.16589 14.6256 9.6933 15.2783C9.74767 15.3382 9.79117 15.4034 9.84011 15.4633C9.83467 15.4796 9.82379 15.4959 9.81292 15.5068C9.39425 15.2566 8.98102 15.0063 8.56235 14.7561C7.98057 14.3971 7.39335 14.049 6.81156 13.6845ZM19.4151 24.7706C19.4097 25.0753 19.2683 25.2276 18.9747 25.2276H8.63304C8.33943 25.2276 8.19806 25.0752 8.19262 24.7761C8.19262 24.4769 8.2035 24.1777 8.18718 23.884C8.18175 23.7044 8.24156 23.6718 8.40467 23.6772C10.2044 23.6827 12.0096 23.6772 13.8147 23.6772C15.6199 23.6772 17.3761 23.6827 19.1541 23.6772C19.3825 23.6772 19.4314 23.748 19.4205 23.9547C19.3988 24.2267 19.4151 24.5041 19.4151 24.7761V24.7706ZM25.1242 14.4025C24.8252 15.7244 23.716 16.796 22.373 17.0408C21.8564 17.1333 21.3453 17.117 20.8397 16.9755C20.6657 16.9266 20.5189 16.9538 20.3612 17.0462C19.5945 17.5195 18.8224 17.9873 18.0503 18.4497C17.9742 18.4986 17.9035 18.5802 17.7785 18.5422C18.2896 17.9112 18.7952 17.2965 19.2955 16.6709C19.4912 16.4316 19.4695 16.2847 19.2194 16.0236C17.6861 14.4025 18.0177 11.8187 19.9099 10.6546C21.1006 9.92022 22.6013 9.96374 23.7323 10.7634C24.8958 11.5902 25.4341 12.9991 25.1242 14.4025ZM23.7975 12.6455C23.4985 12.6455 23.1994 12.6401 22.9004 12.6455C22.7536 12.651 22.6883 12.6183 22.6992 12.4551C22.7155 12.1559 22.7046 11.8568 22.7046 11.5576C22.6992 11.2421 22.5578 11.0952 22.2533 11.0952C21.9054 11.0898 21.5574 11.0898 21.2094 11.0952C20.9158 11.0952 20.7744 11.2421 20.769 11.5413C20.7635 11.8568 20.7635 12.1723 20.769 12.4823C20.7744 12.6129 20.7363 12.6455 20.6113 12.6455C20.2959 12.6346 19.9806 12.6455 19.6706 12.6455C19.3716 12.6455 19.2248 12.7924 19.2194 13.0916V14.1306C19.2248 14.4297 19.3662 14.5766 19.6652 14.582C19.9534 14.5875 20.2416 14.5929 20.5352 14.5766C20.7092 14.5766 20.7907 14.6038 20.7744 14.8051C20.7527 15.0879 20.769 15.3708 20.769 15.6537C20.769 15.9964 20.9049 16.1269 21.2583 16.1324H22.2479C22.5578 16.1269 22.6992 15.9855 22.7046 15.67C22.7046 15.3545 22.7101 15.039 22.6992 14.7289C22.6992 14.6092 22.7318 14.5766 22.8514 14.582C23.1722 14.5875 23.493 14.5875 23.8138 14.582C24.0966 14.5766 24.2434 14.4297 24.2488 14.1469C24.2542 13.7933 24.2542 13.4397 24.2488 13.0861C24.2434 12.7924 24.0966 12.651 23.7975 12.6455ZM23.2973 13.815C22.9928 13.7987 22.6883 13.8042 22.3838 13.8096C22.0739 13.8096 21.9325 13.9565 21.9271 14.272C21.9271 14.5875 21.9162 14.8976 21.9325 15.2131C21.9434 15.3926 21.8347 15.3545 21.7368 15.3545C21.6335 15.3599 21.5302 15.3871 21.5356 15.2131C21.5519 14.8976 21.5465 14.582 21.5356 14.2665C21.5356 13.9565 21.3943 13.815 21.0789 13.8096C20.9266 13.8042 20.7744 13.8096 20.6222 13.8096C20.4699 13.8096 20.334 13.7987 20.1872 13.8096C20.0404 13.8205 19.9751 13.7879 19.9806 13.6192C19.986 13.4723 20.0078 13.4071 20.1763 13.418C20.4754 13.4343 20.7744 13.4234 21.068 13.4234C21.3943 13.418 21.5356 13.2765 21.5356 12.9447C21.5356 12.6401 21.5519 12.3354 21.5356 12.0308C21.5247 11.835 21.6444 11.8785 21.7477 11.8731C21.8727 11.8622 21.938 11.8785 21.9325 12.0308C21.9217 12.3463 21.9271 12.6618 21.9325 12.9719C21.9325 13.2711 22.0793 13.418 22.373 13.418C22.6774 13.4234 22.9874 13.4343 23.2919 13.418C23.4658 13.4071 23.4822 13.4778 23.4822 13.6247C23.4822 13.7607 23.4604 13.8205 23.2973 13.815ZM15.5547 3.93654C15.8048 3.93654 15.9298 3.81324 15.9298 3.56664C15.9298 3.29828 15.7993 3.1641 15.5383 3.1641C15.2774 3.1641 15.1505 3.2874 15.1577 3.534C15.165 3.7806 15.2973 3.91478 15.5547 3.93654ZM15.3643 24.0635C14.5868 24.0689 13.8147 24.0635 13.0426 24.0635C12.4282 24.0635 12.4337 24.0635 12.4445 24.6836C12.45 24.8087 12.4826 24.8468 12.6077 24.8413C13.0698 24.8359 13.5266 24.8413 13.9833 24.8413C14.3095 24.8413 14.6303 24.8413 14.9511 24.8359C15.1414 24.8359 15.3915 24.9229 15.5112 24.8033C15.6253 24.689 15.5275 24.4388 15.5492 24.2484C15.5655 24.0961 15.5112 24.058 15.3643 24.0635ZM12.2325 3.94198C12.7545 3.9311 13.2764 3.93654 13.8039 3.93654C14.199 3.93654 14.3929 3.73527 14.3856 3.33273C14.3856 3.20218 14.3585 3.15322 14.2171 3.15866C13.8854 3.16954 13.5537 3.1641 13.2275 3.1641H12.6457C12.0476 3.1641 12.0531 3.1641 12.0585 3.76791C12.0585 3.89846 12.0911 3.94198 12.2325 3.94198ZM5.65343 8.19039C5.5175 8.19583 5.47944 8.22847 5.48487 8.36446C5.49031 8.82684 5.48487 9.28377 5.48487 9.74615V10.709C5.48487 11.2965 5.48487 11.291 6.06666 11.2965C6.22434 11.2965 6.2624 11.2529 6.2624 11.1006C6.25696 10.3228 6.25696 9.55032 6.25696 8.77788C6.25696 8.17951 6.25696 8.18495 5.65343 8.19039ZM5.89267 12.0689C5.6208 12.0689 5.48487 12.1995 5.48487 12.4606C5.48487 12.7144 5.60812 12.8413 5.85461 12.8413C6.12284 12.8413 6.25696 12.709 6.25696 12.4442C6.25696 12.194 6.13553 12.0689 5.89267 12.0689ZM14.3856 3.33273C14.3856 3.20218 14.3585 3.15322 14.2171 3.15866C13.8854 3.16954 13.5537 3.1641 13.2275 3.1641H12.6457C12.0476 3.1641 12.0531 3.1641 12.0585 3.76791C12.0585 3.89846 12.0911 3.94198 12.2325 3.94198C12.7545 3.9311 13.2764 3.93654 13.8039 3.93654C14.199 3.93654 14.3929 3.73527 14.3856 3.33273ZM15.5383 3.1641C15.2846 3.1641 15.1577 3.2874 15.1577 3.534C15.1577 3.80236 15.29 3.93654 15.5547 3.93654C15.8193 3.93654 15.9443 3.81324 15.9298 3.56664C15.9153 3.32004 15.7848 3.18586 15.5383 3.1641ZM5.89267 12.0689C5.6208 12.0689 5.48487 12.1995 5.48487 12.4606C5.48487 12.7144 5.60812 12.8413 5.85461 12.8413C6.12284 12.8413 6.25696 12.709 6.25696 12.4442C6.25696 12.194 6.13553 12.0689 5.89267 12.0689ZM6.25696 8.77788C6.25696 8.17951 6.25696 8.18495 5.65343 8.19039C5.5175 8.19583 5.47944 8.22847 5.48487 8.36446C5.49031 8.82684 5.48487 9.28377 5.48487 9.74615V10.709C5.48487 11.2965 5.48487 11.291 6.06666 11.2965C6.22434 11.2965 6.2624 11.2529 6.2624 11.1006C6.25696 10.3228 6.25696 9.55032 6.25696 8.77788ZM15.5492 24.2484C15.5655 24.0961 15.5112 24.058 15.3643 24.0635C14.5868 24.0689 13.8147 24.0635 13.0426 24.0635C12.4282 24.0635 12.4337 24.0635 12.4445 24.6836C12.45 24.8087 12.4826 24.8468 12.6077 24.8413C13.0698 24.8359 13.5266 24.8413 13.9833 24.8413C14.3095 24.8413 14.6303 24.8413 14.9511 24.8359C15.1414 24.8359 15.3915 24.9229 15.5112 24.8033C15.6253 24.689 15.5275 24.4388 15.5492 24.2484ZM15.5383 3.1641C15.2846 3.1641 15.1577 3.2874 15.1577 3.534C15.1577 3.80236 15.29 3.93654 15.5547 3.93654C15.8048 3.93654 15.9298 3.81324 15.9298 3.56664C15.9298 3.29828 15.7993 3.1641 15.5383 3.1641ZM15.5492 24.2484C15.5655 24.0961 15.5112 24.058 15.3643 24.0635C14.5868 24.0689 13.8147 24.0635 13.0426 24.0635C12.4282 24.0635 12.4337 24.0635 12.4445 24.6836C12.45 24.8087 12.4826 24.8468 12.6077 24.8413C13.0698 24.8359 13.5266 24.8413 13.9833 24.8413C14.3095 24.8413 14.6303 24.8413 14.9511 24.8359C15.1414 24.8359 15.3915 24.9229 15.5112 24.8033C15.6253 24.689 15.5275 24.4388 15.5492 24.2484ZM14.3856 3.33273C14.3856 3.20218 14.3585 3.15322 14.2171 3.15866C13.8854 3.16954 13.5537 3.1641 13.2275 3.1641H12.6457C12.0476 3.1641 12.0531 3.1641 12.0585 3.76791C12.0585 3.89846 12.0911 3.94198 12.2325 3.94198C12.7545 3.9311 13.2764 3.93654 13.8039 3.93654C14.199 3.93654 14.3929 3.73527 14.3856 3.33273ZM6.25696 8.77788C6.25696 8.17951 6.25696 8.18495 5.65343 8.19039C5.5175 8.19583 5.47944 8.22847 5.48487 8.36446C5.49031 8.82684 5.48487 9.28377 5.48487 9.74615V10.709C5.48487 11.2965 5.48487 11.291 6.06666 11.2965C6.22434 11.2965 6.2624 11.2529 6.2624 11.1006C6.25696 10.3228 6.25696 9.55032 6.25696 8.77788ZM5.89267 12.0689C5.6208 12.0689 5.48487 12.1995 5.48487 12.4606C5.48487 12.7144 5.60812 12.8413 5.85461 12.8413C6.12284 12.8413 6.25696 12.709 6.25696 12.4442C6.25696 12.194 6.13553 12.0689 5.89267 12.0689ZM14.3856 3.33273C14.3856 3.20218 14.3585 3.15322 14.2171 3.15866C13.8854 3.16954 13.5537 3.1641 13.2275 3.1641H12.6457C12.0476 3.1641 12.0531 3.1641 12.0585 3.76791C12.0585 3.89846 12.0911 3.94198 12.2325 3.94198C12.7545 3.9311 13.2764 3.93654 13.8039 3.93654C14.199 3.93654 14.3929 3.73527 14.3856 3.33273ZM15.5383 3.1641C15.2846 3.1641 15.1577 3.2874 15.1577 3.534C15.1577 3.80236 15.29 3.93654 15.5547 3.93654C15.8048 3.93654 15.9298 3.81324 15.9298 3.56664C15.9298 3.29828 15.7993 3.1641 15.5383 3.1641ZM15.5383 3.1641C15.2846 3.1641 15.1577 3.2874 15.1577 3.534C15.1577 3.80236 15.29 3.93654 15.5547 3.93654C15.8048 3.93654 15.9298 3.81324 15.9298 3.56664C15.9298 3.29828 15.7993 3.1641 15.5383 3.1641ZM14.3856 3.33273C14.3856 3.20218 14.3585 3.15322 14.2171 3.15866C13.8854 3.16954 13.5537 3.1641 13.2275 3.1641H12.6457C12.0476 3.1641 12.0531 3.1641 12.0585 3.76791C12.0585 3.89846 12.0911 3.94198 12.2325 3.94198C12.7545 3.9311 13.2764 3.93654 13.8039 3.93654C14.199 3.93654 14.3929 3.73527 14.3856 3.33273Z" fill="#FEFEFE"/>
<path d="M14.3856 3.33273C14.3856 3.20218 14.3585 3.15322 14.2171 3.15866C13.8854 3.16954 13.5537 3.1641 13.2275 3.1641H12.6457C12.0476 3.1641 12.0531 3.1641 12.0585 3.76791C12.0585 3.89846 12.0911 3.94198 12.2325 3.94198C12.7545 3.9311 13.2764 3.93654 13.8039 3.93654C14.199 3.93654 14.3929 3.73527 14.3856 3.33273ZM15.5492 24.2484C15.5655 24.0961 15.5112 24.058 15.3643 24.0635C14.5868 24.0689 13.8147 24.0635 13.0426 24.0635C12.4282 24.0635 12.4337 24.0635 12.4445 24.6836C12.45 24.8087 12.4826 24.8468 12.6077 24.8413C13.0698 24.8359 13.5266 24.8413 13.9833 24.8413C14.3095 24.8413 14.6303 24.8413 14.9511 24.8359C15.1414 24.8359 15.3915 24.9229 15.5112 24.8033C15.6253 24.689 15.5275 24.4388 15.5492 24.2484ZM15.5383 3.1641C15.2846 3.1641 15.1577 3.2874 15.1577 3.534C15.1577 3.7806 15.29 3.91478 15.5547 3.93654C15.8193 3.9583 15.9443 3.835 15.9298 3.56664C15.9153 3.29828 15.7848 3.1641 15.5383 3.1641ZM15.5492 24.2484C15.5655 24.0961 15.5112 24.058 15.3643 24.0635C14.5868 24.0689 13.8147 24.0635 13.0426 24.0635C12.4282 24.0635 12.4337 24.0635 12.4445 24.6836C12.45 24.8087 12.4826 24.8468 12.6077 24.8413C13.0698 24.8359 13.5266 24.8413 13.9833 24.8413C14.3095 24.8413 14.6303 24.8413 14.9511 24.8359C15.1414 24.8359 15.3915 24.9229 15.5112 24.8033C15.6253 24.689 15.5275 24.4388 15.5492 24.2484ZM15.5383 3.1641C15.2846 3.1641 15.1577 3.2874 15.1577 3.534C15.1577 3.80236 15.29 3.93654 15.5547 3.93654C15.8048 3.93654 15.9298 3.81324 15.9298 3.56664C15.9298 3.29828 15.7993 3.1641 15.5383 3.1641ZM14.3856 3.33273C14.3856 3.20218 14.3585 3.15322 14.2171 3.15866C13.8854 3.16954 13.5537 3.1641 13.2275 3.1641H12.6457C12.0476 3.1641 12.0531 3.1641 12.0585 3.76791C12.0585 3.89846 12.0911 3.94198 12.2325 3.94198C12.7545 3.9311 13.2764 3.93654 13.8039 3.93654C14.199 3.93654 14.3929 3.73527 14.3856 3.33273ZM5.89267 12.0689C5.6208 12.0689 5.48487 12.1995 5.48487 12.4606C5.48487 12.7144 5.60812 12.8413 5.85461 12.8413C6.12284 12.8413 6.25696 12.709 6.25696 12.4442C6.25696 12.194 6.13553 12.0689 5.89267 12.0689ZM6.25696 8.77788C6.25696 8.17951 6.25696 8.18495 5.65343 8.19039C5.5175 8.19583 5.47944 8.22847 5.48487 8.36446C5.49031 8.82684 5.48487 9.28377 5.48487 9.74615V10.709C5.48487 11.2965 5.48487 11.291 6.06666 11.2965C6.22434 11.2965 6.2624 11.2529 6.2624 11.1006C6.25696 10.3228 6.25696 9.55032 6.25696 8.77788ZM14.3856 3.33273C14.3856 3.20218 14.3585 3.15322 14.2171 3.15866C13.8854 3.16954 13.5537 3.1641 13.2275 3.1641H12.6457C12.0476 3.1641 12.0531 3.1641 12.0585 3.76791C12.0585 3.89846 12.0911 3.94198 12.2325 3.94198C12.7545 3.9311 13.2764 3.93654 13.8039 3.93654C14.199 3.93654 14.3929 3.73527 14.3856 3.33273ZM15.5492 24.2484C15.5655 24.0961 15.5112 24.058 15.3643 24.0635C14.5868 24.0689 13.8147 24.0635 13.0426 24.0635C12.4282 24.0635 12.4337 24.0635 12.4445 24.6836C12.45 24.8087 12.4826 24.8468 12.6077 24.8413C13.0698 24.8359 13.5266 24.8413 13.9833 24.8413C14.3095 24.8413 14.6303 24.8413 14.9511 24.8359C15.1414 24.8359 15.3915 24.9229 15.5112 24.8033C15.6253 24.689 15.5275 24.4388 15.5492 24.2484ZM15.5383 3.1641C15.2846 3.1641 15.1577 3.2874 15.1577 3.534C15.1577 3.80236 15.29 3.93654 15.5547 3.93654C15.8048 3.93654 15.9298 3.81324 15.9298 3.56664C15.9298 3.29828 15.7993 3.1641 15.5383 3.1641ZM23.7975 12.6455C23.4985 12.6455 23.1994 12.6401 22.9004 12.6455C22.7536 12.651 22.6883 12.6183 22.6992 12.4551C22.7155 12.1559 22.7046 11.8568 22.7046 11.5576C22.6992 11.2421 22.5578 11.0952 22.2533 11.0952C21.9054 11.0898 21.5574 11.0898 21.2094 11.0952C20.9158 11.0952 20.7744 11.2421 20.769 11.5413C20.7635 11.8568 20.7635 12.1723 20.769 12.4823C20.7744 12.6129 20.7363 12.6455 20.6113 12.6455C20.2959 12.6346 19.9806 12.6455 19.6706 12.6455C19.3716 12.6455 19.2248 12.7924 19.2194 13.0916V14.1306C19.2248 14.4297 19.3662 14.5766 19.6652 14.582C19.9534 14.5875 20.2416 14.5929 20.5352 14.5766C20.7092 14.5766 20.7907 14.6038 20.7744 14.8051C20.7527 15.0879 20.769 15.3708 20.769 15.6537C20.769 15.9964 20.9049 16.1269 21.2583 16.1324H22.2479C22.5578 16.1269 22.6992 15.9855 22.7046 15.67C22.7046 15.3545 22.7101 15.039 22.6992 14.7289C22.6992 14.6092 22.7318 14.5766 22.8514 14.582C23.1722 14.5875 23.493 14.5875 23.8138 14.582C24.0966 14.5766 24.2434 14.4297 24.2488 14.1469C24.2542 13.7933 24.2542 13.4397 24.2488 13.0861C24.2434 12.7924 24.0966 12.651 23.7975 12.6455ZM23.2973 13.815C22.9928 13.7987 22.6883 13.8042 22.3838 13.8096C22.0739 13.8096 21.9325 13.9565 21.9271 14.272C21.9271 14.5875 21.9162 14.8976 21.9325 15.2131C21.9434 15.3926 21.8347 15.3545 21.7368 15.3545C21.6335 15.3599 21.5302 15.3871 21.5356 15.2131C21.5519 14.8976 21.5465 14.582 21.5356 14.2665C21.5356 13.9565 21.3943 13.815 21.0789 13.8096C20.9266 13.8042 20.7744 13.8096 20.6222 13.8096C20.4699 13.8096 20.334 13.7987 20.1872 13.8096C20.0404 13.8205 19.9751 13.7879 19.9806 13.6192C19.986 13.4723 20.0078 13.4071 20.1763 13.418C20.4754 13.4343 20.7744 13.4234 21.068 13.4234C21.3943 13.418 21.5356 13.2765 21.5356 12.9447C21.5356 12.6401 21.5519 12.3354 21.5356 12.0308C21.5247 11.835 21.6444 11.8785 21.7477 11.8731C21.8727 11.8622 21.938 11.8785 21.9325 12.0308C21.9217 12.3463 21.9271 12.6618 21.9325 12.9719C21.9325 13.2711 22.0793 13.418 22.373 13.418C22.6774 13.4234 22.9874 13.4343 23.2919 13.418C23.4658 13.4071 23.4822 13.4778 23.4822 13.6247C23.4822 13.7607 23.4604 13.8205 23.2973 13.815ZM23.7975 12.6455C23.4985 12.6455 23.1994 12.6401 22.9004 12.6455C22.7536 12.651 22.6883 12.6183 22.6992 12.4551C22.7155 12.1559 22.7046 11.8568 22.7046 11.5576C22.6992 11.2421 22.5578 11.0952 22.2533 11.0952C21.9054 11.0898 21.5574 11.0898 21.2094 11.0952C20.9158 11.0952 20.7744 11.2421 20.769 11.5413C20.7635 11.8568 20.7635 12.1723 20.769 12.4823C20.7744 12.6129 20.7363 12.6455 20.6113 12.6455C20.2959 12.6346 19.9806 12.6455 19.6706 12.6455C19.3716 12.6455 19.2248 12.7924 19.2194 13.0916V14.1306C19.2248 14.4297 19.3662 14.5766 19.6652 14.582C19.9534 14.5875 20.2416 14.5929 20.5352 14.5766C20.7092 14.5766 20.7907 14.6038 20.7744 14.8051C20.7527 15.0879 20.769 15.3708 20.769 15.6537C20.769 15.9964 20.9049 16.1269 21.2583 16.1324H22.2479C22.5578 16.1269 22.6992 15.9855 22.7046 15.67C22.7046 15.3545 22.7101 15.039 22.6992 14.7289C22.6992 14.6092 22.7318 14.5766 22.8514 14.582C23.1722 14.5875 23.493 14.5875 23.8138 14.582C24.0966 14.5766 24.2434 14.4297 24.2488 14.1469C24.2542 13.7933 24.2542 13.4397 24.2488 13.0861C24.2434 12.7924 24.0966 12.651 23.7975 12.6455ZM23.2973 13.815C22.9928 13.7987 22.6883 13.8042 22.3838 13.8096C22.0739 13.8096 21.9325 13.9565 21.9271 14.272C21.9271 14.5875 21.9162 14.8976 21.9325 15.2131C21.9434 15.3926 21.8347 15.3545 21.7368 15.3545C21.6335 15.3599 21.5302 15.3871 21.5356 15.2131C21.5519 14.8976 21.5465 14.582 21.5356 14.2665C21.5356 13.9565 21.3943 13.815 21.0789 13.8096C20.9266 13.8042 20.7744 13.8096 20.6222 13.8096C20.4699 13.8096 20.334 13.7987 20.1872 13.8096C20.0404 13.8205 19.9751 13.7879 19.9806 13.6192C19.986 13.4723 20.0078 13.4071 20.1763 13.418C20.4754 13.4343 20.7744 13.4234 21.068 13.4234C21.3943 13.418 21.5356 13.2765 21.5356 12.9447C21.5356 12.6401 21.5519 12.3354 21.5356 12.0308C21.5247 11.835 21.6444 11.8785 21.7477 11.8731C21.8727 11.8622 21.938 11.8785 21.9325 12.0308C21.9217 12.3463 21.9271 12.6618 21.9325 12.9719C21.9325 13.2711 22.0793 13.418 22.373 13.418C22.6774 13.4234 22.9874 13.4343 23.2919 13.418C23.4658 13.4071 23.4822 13.4778 23.4822 13.6247C23.4822 13.7607 23.4604 13.8205 23.2973 13.815ZM15.5492 24.2484C15.5655 24.0961 15.5112 24.058 15.3643 24.0635C14.5868 24.0689 13.8147 24.0635 13.0426 24.0635C12.4282 24.0635 12.4337 24.0635 12.4445 24.6836C12.45 24.8087 12.4826 24.8468 12.6077 24.8413C13.0698 24.8359 13.5266 24.8413 13.9833 24.8413C14.3095 24.8413 14.6303 24.8413 14.9511 24.8359C15.1414 24.8359 15.3915 24.9229 15.5112 24.8033C15.6253 24.689 15.5275 24.4388 15.5492 24.2484ZM6.06666 11.2965C6.22434 11.2965 6.2624 11.2529 6.2624 11.1006C6.25696 10.3228 6.25696 9.55032 6.25696 8.77788C6.25696 8.17951 6.25696 8.18495 5.65343 8.19039C5.5175 8.19583 5.47944 8.22847 5.48487 8.36446C5.49031 8.82684 5.48487 9.28377 5.48487 9.74615V10.709C5.48487 11.2965 5.48487 11.291 6.06666 11.2965ZM5.89267 12.0689C5.6208 12.0689 5.48487 12.1995 5.48487 12.4606C5.48487 12.7144 5.60812 12.8413 5.85461 12.8413C6.12284 12.8413 6.25696 12.709 6.25696 12.4442C6.25696 12.194 6.13553 12.0689 5.89267 12.0689ZM15.5383 3.1641C15.2846 3.1641 15.1577 3.2874 15.1577 3.534C15.1577 3.80236 15.29 3.93654 15.5547 3.93654C15.8048 3.93654 15.9298 3.81324 15.9298 3.56664C15.9298 3.29828 15.7993 3.1641 15.5383 3.1641ZM14.2171 3.15866C13.8854 3.16954 13.5537 3.1641 13.2275 3.1641H12.6457C12.0476 3.1641 12.0531 3.1641 12.0585 3.76791C12.0585 3.89846 12.0911 3.94198 12.2325 3.94198C12.7545 3.9311 13.2764 3.93654 13.8039 3.93654C14.199 3.93654 14.3929 3.73527 14.3856 3.33273C14.3856 3.20218 14.3585 3.15322 14.2171 3.15866ZM25.9833 13.2765C25.7767 11.0571 23.9715 9.37625 21.7803 9.35449C21.2366 9.34905 20.7146 9.46328 20.1872 9.64279V3.26745C20.1872 2.47869 19.7087 2 18.9257 2H8.69828C7.89357 2 7.42053 2.47325 7.42053 3.27833V6.96102C7.34441 6.93382 7.29004 6.9175 7.2411 6.89574C6.50708 6.62919 5.76761 6.5748 5.0064 6.74343C3.16317 7.15141 1.83104 8.96827 2.01591 10.845C2.20621 12.825 3.83195 14.3808 5.76761 14.3699C6.28415 14.3645 6.70282 14.4787 7.09973 14.7724C7.1378 14.7996 7.18129 14.8268 7.22479 14.8432C7.38791 14.9139 7.42597 15.0281 7.42597 15.2076C7.42053 18.3735 7.42053 21.5449 7.42053 24.7108C7.42053 25.5267 7.89357 26 8.70916 26H18.9094C19.7141 26 20.1872 25.5267 20.1872 24.7271V18.3626C20.1872 18.0036 20.5406 17.7099 20.894 17.786C21.4649 17.9003 22.0304 17.9003 22.6013 17.7806C24.6838 17.3563 26.1736 15.3762 25.9833 13.2765ZM8.19262 3.31097C8.19262 2.89755 8.31224 2.77788 8.72003 2.77788H18.9149C19.2792 2.77788 19.4151 2.90843 19.4151 3.26745C19.4151 3.54488 19.4042 3.81686 19.4205 4.08885C19.426 4.2738 19.3825 4.3282 19.1867 4.3282C17.3924 4.32276 15.5981 4.32276 13.7984 4.32276C11.9987 4.32276 10.2098 4.32276 8.41555 4.3282C8.23612 4.3282 8.17631 4.29012 8.18718 4.10517C8.20893 3.84406 8.19262 3.57752 8.19262 3.31097ZM8.18718 5.32366C8.18175 5.12239 8.25243 5.0952 8.42642 5.0952C12.015 5.10063 15.5981 5.10063 19.1867 5.0952C19.3498 5.0952 19.4205 5.11151 19.4151 5.31278C19.4097 6.82502 19.4097 8.3427 19.4151 9.85494C19.4151 10.0073 19.3607 10.0834 19.2465 10.1704C17.2783 11.5956 16.8868 14.3318 18.3875 16.2357C18.4962 16.3717 18.4908 16.4424 18.382 16.573C17.4794 17.6664 16.5877 18.7706 15.6906 19.8694C15.5112 20.087 15.4948 20.272 15.6253 20.4352C15.7667 20.6038 15.9516 20.6256 16.1854 20.4841C17.1532 19.8966 18.1102 19.3146 19.0725 18.7271C19.1759 18.6673 19.2792 18.6074 19.4097 18.5258C19.4097 19.9565 19.4042 21.3382 19.4151 22.7144C19.4151 22.883 19.3553 22.9102 19.2085 22.9048H8.37749C8.29049 22.9048 8.19262 22.9374 8.19262 22.7743C8.19806 20.3427 8.19262 17.9057 8.19262 15.4361C8.49711 15.621 8.77441 15.7842 9.05171 15.9529C9.82923 16.4261 10.6068 16.8994 11.3788 17.3726C11.6398 17.5249 11.8193 17.5195 11.9661 17.3509C12.1129 17.1822 12.0911 16.9973 11.9008 16.7634C10.9221 15.5666 9.94885 14.3645 8.96471 13.1732C8.85597 13.0372 8.86684 12.9665 8.96471 12.8305C10.199 11.1659 9.93254 8.89755 8.34486 7.55394C8.23612 7.46147 8.18718 7.37443 8.18718 7.233C8.19806 6.59655 8.2035 5.96011 8.18718 5.32366ZM6.81156 13.6845C6.64301 13.5811 6.47989 13.5485 6.28415 13.5757C4.64754 13.8205 3.05986 12.6455 2.82062 11.0136C2.57051 9.28921 3.71233 7.7117 5.39244 7.46147C6.71913 7.26564 7.99144 7.90209 8.61129 9.07162C9.2257 10.2412 9.03539 11.6555 8.12737 12.6346C7.8827 12.9012 7.87726 13.0426 8.10562 13.3309C8.63304 13.9782 9.16589 14.6256 9.6933 15.2783C9.74767 15.3382 9.79117 15.4034 9.84011 15.4633C9.83467 15.4796 9.82379 15.4959 9.81292 15.5068C9.39425 15.2566 8.98102 15.0063 8.56235 14.7561C7.98057 14.3971 7.39335 14.049 6.81156 13.6845ZM19.4151 24.7706C19.4097 25.0753 19.2683 25.2276 18.9747 25.2276H8.63304C8.33943 25.2276 8.19806 25.0752 8.19262 24.7761C8.19262 24.4769 8.2035 24.1777 8.18718 23.884C8.18175 23.7044 8.24156 23.6718 8.40467 23.6772C10.2044 23.6827 12.0096 23.6772 13.8147 23.6772C15.6199 23.6772 17.3761 23.6827 19.1541 23.6772C19.3825 23.6772 19.4314 23.748 19.4205 23.9547C19.3988 24.2267 19.4151 24.5041 19.4151 24.7761V24.7706ZM25.1242 14.4025C24.8252 15.7244 23.716 16.796 22.373 17.0408C21.8564 17.1333 21.3453 17.117 20.8397 16.9755C20.6657 16.9266 20.5189 16.9538 20.3612 17.0462C19.5945 17.5195 18.8224 17.9873 18.0503 18.4497C17.9742 18.4986 17.9035 18.5802 17.7785 18.5422C18.2896 17.9112 18.7952 17.2965 19.2955 16.6709C19.4912 16.4316 19.4695 16.2847 19.2194 16.0236C17.6861 14.4025 18.0177 11.8187 19.9099 10.6546C21.1006 9.92022 22.6013 9.96374 23.7323 10.7634C24.8958 11.5902 25.4341 12.9991 25.1242 14.4025ZM23.7975 12.6455C23.4985 12.6455 23.1994 12.6401 22.9004 12.6455C22.7536 12.651 22.6883 12.6183 22.6992 12.4551C22.7155 12.1559 22.7046 11.8568 22.7046 11.5576C22.6992 11.2421 22.5578 11.0952 22.2533 11.0952C21.9054 11.0898 21.5574 11.0898 21.2094 11.0952C20.9158 11.0952 20.7744 11.2421 20.769 11.5413C20.7635 11.8568 20.7635 12.1723 20.769 12.4823C20.7744 12.6129 20.7363 12.6455 20.6113 12.6455C20.2959 12.6346 19.9806 12.6455 19.6706 12.6455C19.3716 12.6455 19.2248 12.7924 19.2194 13.0916V14.1306C19.2248 14.4297 19.3662 14.5766 19.6652 14.582C19.9534 14.5875 20.2416 14.5929 20.5352 14.5766C20.7092 14.5766 20.7907 14.6038 20.7744 14.8051C20.7527 15.0879 20.769 15.3708 20.769 15.6537C20.769 15.9964 20.9049 16.1269 21.2583 16.1324H22.2479C22.5578 16.1269 22.6992 15.9855 22.7046 15.67C22.7046 15.3545 22.7101 15.039 22.6992 14.7289C22.6992 14.6092 22.7318 14.5766 22.8514 14.582C23.1722 14.5875 23.493 14.5875 23.8138 14.582C24.0966 14.5766 24.2434 14.4297 24.2488 14.1469C24.2542 13.7933 24.2542 13.4397 24.2488 13.0861C24.2434 12.7924 24.0966 12.651 23.7975 12.6455ZM23.2973 13.815C22.9928 13.7987 22.6883 13.8042 22.3838 13.8096C22.0739 13.8096 21.9325 13.9565 21.9271 14.272C21.9271 14.5875 21.9162 14.8976 21.9325 15.2131C21.9434 15.3926 21.8347 15.3545 21.7368 15.3545C21.6335 15.3599 21.5302 15.3871 21.5356 15.2131C21.5519 14.8976 21.5465 14.582 21.5356 14.2665C21.5356 13.9565 21.3943 13.815 21.0789 13.8096C20.9266 13.8042 20.7744 13.8096 20.6222 13.8096C20.4699 13.8096 20.334 13.7987 20.1872 13.8096C20.0404 13.8205 19.9751 13.7879 19.9806 13.6192C19.986 13.4723 20.0078 13.4071 20.1763 13.418C20.4754 13.4343 20.7744 13.4234 21.068 13.4234C21.3943 13.418 21.5356 13.2765 21.5356 12.9447C21.5356 12.6401 21.5519 12.3354 21.5356 12.0308C21.5247 11.835 21.6444 11.8785 21.7477 11.8731C21.8727 11.8622 21.938 11.8785 21.9325 12.0308C21.9217 12.3463 21.9271 12.6618 21.9325 12.9719C21.9325 13.2711 22.0793 13.418 22.373 13.418C22.6774 13.4234 22.9874 13.4343 23.2919 13.418C23.4658 13.4071 23.4822 13.4778 23.4822 13.6247C23.4822 13.7607 23.4604 13.8205 23.2973 13.815ZM15.5547 3.93654C15.8048 3.93654 15.9298 3.81324 15.9298 3.56664C15.9298 3.29828 15.7993 3.1641 15.5383 3.1641C15.2774 3.1641 15.1505 3.2874 15.1577 3.534C15.165 3.7806 15.2973 3.91478 15.5547 3.93654ZM15.3643 24.0635C14.5868 24.0689 13.8147 24.0635 13.0426 24.0635C12.4282 24.0635 12.4337 24.0635 12.4445 24.6836C12.45 24.8087 12.4826 24.8468 12.6077 24.8413C13.0698 24.8359 13.5266 24.8413 13.9833 24.8413C14.3095 24.8413 14.6303 24.8413 14.9511 24.8359C15.1414 24.8359 15.3915 24.9229 15.5112 24.8033C15.6253 24.689 15.5275 24.4388 15.5492 24.2484C15.5655 24.0961 15.5112 24.058 15.3643 24.0635ZM12.2325 3.94198C12.7545 3.9311 13.2764 3.93654 13.8039 3.93654C14.199 3.93654 14.3929 3.73527 14.3856 3.33273C14.3856 3.20218 14.3585 3.15322 14.2171 3.15866C13.8854 3.16954 13.5537 3.1641 13.2275 3.1641H12.6457C12.0476 3.1641 12.0531 3.1641 12.0585 3.76791C12.0585 3.89846 12.0911 3.94198 12.2325 3.94198ZM5.65343 8.19039C5.5175 8.19583 5.47944 8.22847 5.48487 8.36446C5.49031 8.82684 5.48487 9.28377 5.48487 9.74615V10.709C5.48487 11.2965 5.48487 11.291 6.06666 11.2965C6.22434 11.2965 6.2624 11.2529 6.2624 11.1006C6.25696 10.3228 6.25696 9.55032 6.25696 8.77788C6.25696 8.17951 6.25696 8.18495 5.65343 8.19039ZM5.89267 12.0689C5.6208 12.0689 5.48487 12.1995 5.48487 12.4606C5.48487 12.7144 5.60812 12.8413 5.85461 12.8413C6.12284 12.8413 6.25696 12.709 6.25696 12.4442C6.25696 12.194 6.13553 12.0689 5.89267 12.0689ZM14.3856 3.33273C14.3856 3.20218 14.3585 3.15322 14.2171 3.15866C13.8854 3.16954 13.5537 3.1641 13.2275 3.1641H12.6457C12.0476 3.1641 12.0531 3.1641 12.0585 3.76791C12.0585 3.89846 12.0911 3.94198 12.2325 3.94198C12.7545 3.9311 13.2764 3.93654 13.8039 3.93654C14.199 3.93654 14.3929 3.73527 14.3856 3.33273ZM15.5383 3.1641C15.2846 3.1641 15.1577 3.2874 15.1577 3.534C15.1577 3.80236 15.29 3.93654 15.5547 3.93654C15.8193 3.93654 15.9443 3.81324 15.9298 3.56664C15.9153 3.32004 15.7848 3.18586 15.5383 3.1641ZM5.89267 12.0689C5.6208 12.0689 5.48487 12.1995 5.48487 12.4606C5.48487 12.7144 5.60812 12.8413 5.85461 12.8413C6.12284 12.8413 6.25696 12.709 6.25696 12.4442C6.25696 12.194 6.13553 12.0689 5.89267 12.0689ZM6.25696 8.77788C6.25696 8.17951 6.25696 8.18495 5.65343 8.19039C5.5175 8.19583 5.47944 8.22847 5.48487 8.36446C5.49031 8.82684 5.48487 9.28377 5.48487 9.74615V10.709C5.48487 11.2965 5.48487 11.291 6.06666 11.2965C6.22434 11.2965 6.2624 11.2529 6.2624 11.1006C6.25696 10.3228 6.25696 9.55032 6.25696 8.77788ZM15.5492 24.2484C15.5655 24.0961 15.5112 24.058 15.3643 24.0635C14.5868 24.0689 13.8147 24.0635 13.0426 24.0635C12.4282 24.0635 12.4337 24.0635 12.4445 24.6836C12.45 24.8087 12.4826 24.8468 12.6077 24.8413C13.0698 24.8359 13.5266 24.8413 13.9833 24.8413C14.3095 24.8413 14.6303 24.8413 14.9511 24.8359C15.1414 24.8359 15.3915 24.9229 15.5112 24.8033C15.6253 24.689 15.5275 24.4388 15.5492 24.2484ZM15.5383 3.1641C15.2846 3.1641 15.1577 3.2874 15.1577 3.534C15.1577 3.80236 15.29 3.93654 15.5547 3.93654C15.8048 3.93654 15.9298 3.81324 15.9298 3.56664C15.9298 3.29828 15.7993 3.1641 15.5383 3.1641ZM15.5492 24.2484C15.5655 24.0961 15.5112 24.058 15.3643 24.0635C14.5868 24.0689 13.8147 24.0635 13.0426 24.0635C12.4282 24.0635 12.4337 24.0635 12.4445 24.6836C12.45 24.8087 12.4826 24.8468 12.6077 24.8413C13.0698 24.8359 13.5266 24.8413 13.9833 24.8413C14.3095 24.8413 14.6303 24.8413 14.9511 24.8359C15.1414 24.8359 15.3915 24.9229 15.5112 24.8033C15.6253 24.689 15.5275 24.4388 15.5492 24.2484ZM14.3856 3.33273C14.3856 3.20218 14.3585 3.15322 14.2171 3.15866C13.8854 3.16954 13.5537 3.1641 13.2275 3.1641H12.6457C12.0476 3.1641 12.0531 3.1641 12.0585 3.76791C12.0585 3.89846 12.0911 3.94198 12.2325 3.94198C12.7545 3.9311 13.2764 3.93654 13.8039 3.93654C14.199 3.93654 14.3929 3.73527 14.3856 3.33273ZM6.25696 8.77788C6.25696 8.17951 6.25696 8.18495 5.65343 8.19039C5.5175 8.19583 5.47944 8.22847 5.48487 8.36446C5.49031 8.82684 5.48487 9.28377 5.48487 9.74615V10.709C5.48487 11.2965 5.48487 11.291 6.06666 11.2965C6.22434 11.2965 6.2624 11.2529 6.2624 11.1006C6.25696 10.3228 6.25696 9.55032 6.25696 8.77788ZM5.89267 12.0689C5.6208 12.0689 5.48487 12.1995 5.48487 12.4606C5.48487 12.7144 5.60812 12.8413 5.85461 12.8413C6.12284 12.8413 6.25696 12.709 6.25696 12.4442C6.25696 12.194 6.13553 12.0689 5.89267 12.0689ZM14.3856 3.33273C14.3856 3.20218 14.3585 3.15322 14.2171 3.15866C13.8854 3.16954 13.5537 3.1641 13.2275 3.1641H12.6457C12.0476 3.1641 12.0531 3.1641 12.0585 3.76791C12.0585 3.89846 12.0911 3.94198 12.2325 3.94198C12.7545 3.9311 13.2764 3.93654 13.8039 3.93654C14.199 3.93654 14.3929 3.73527 14.3856 3.33273ZM15.5383 3.1641C15.2846 3.1641 15.1577 3.2874 15.1577 3.534C15.1577 3.80236 15.29 3.93654 15.5547 3.93654C15.8048 3.93654 15.9298 3.81324 15.9298 3.56664C15.9298 3.29828 15.7993 3.1641 15.5383 3.1641ZM15.5383 3.1641C15.2846 3.1641 15.1577 3.2874 15.1577 3.534C15.1577 3.80236 15.29 3.93654 15.5547 3.93654C15.8048 3.93654 15.9298 3.81324 15.9298 3.56664C15.9298 3.29828 15.7993 3.1641 15.5383 3.1641ZM14.3856 3.33273C14.3856 3.20218 14.3585 3.15322 14.2171 3.15866C13.8854 3.16954 13.5537 3.1641 13.2275 3.1641H12.6457C12.0476 3.1641 12.0531 3.1641 12.0585 3.76791C12.0585 3.89846 12.0911 3.94198 12.2325 3.94198C12.7545 3.9311 13.2764 3.93654 13.8039 3.93654C14.199 3.93654 14.3929 3.73527 14.3856 3.33273Z" fill="#126AED"/>
<path d="M6.25732 12.4442C6.25732 12.709 6.12321 12.8413 5.85497 12.8413C5.58673 12.8413 5.46349 12.7144 5.48523 12.4606C5.50698 12.2067 5.64291 12.0762 5.89303 12.0689C6.14314 12.0616 6.26457 12.1868 6.25732 12.4442Z" fill="#FEFEFE"/>
<path d="M5.48524 10.7091V9.74624C5.48524 9.28387 5.49068 8.82693 5.48524 8.36456C5.4798 8.22856 5.51786 8.19593 5.65379 8.19049C6.25733 8.18505 6.25733 8.17961 6.25733 8.77797C6.25733 9.55041 6.25733 10.3229 6.26276 11.1007C6.26276 11.253 6.2247 11.2966 6.06702 11.2966C5.48524 11.2911 5.48524 11.2966 5.48524 10.7091Z" fill="#FEFEFE"/>
<path d="M23.7979 12.6455C23.4988 12.6455 23.1998 12.64 22.9007 12.6455C22.7539 12.6509 22.6887 12.6183 22.6996 12.4551C22.7159 12.1559 22.705 11.8567 22.705 11.5575C22.6996 11.242 22.5582 11.0951 22.2537 11.0951C21.9057 11.0897 21.5577 11.0897 21.2098 11.0951C20.9161 11.0951 20.7748 11.242 20.7693 11.5412C20.7639 11.8567 20.7639 12.1722 20.7693 12.4823C20.7748 12.6128 20.7367 12.6455 20.6117 12.6455C20.2963 12.6346 19.9809 12.6455 19.671 12.6455C19.372 12.6455 19.2252 12.7923 19.2197 13.0915V14.1305C19.2252 14.4297 19.3665 14.5766 19.6656 14.582C19.9538 14.5874 20.2419 14.5929 20.5355 14.5766C20.7095 14.5766 20.7911 14.6038 20.7748 14.805C20.753 15.0879 20.7693 15.3708 20.7693 15.6536C20.7693 15.9963 20.9053 16.1269 21.2587 16.1323H22.2483C22.5582 16.1269 22.6996 15.9854 22.705 15.6699C22.705 15.3544 22.7104 15.0389 22.6996 14.7289C22.6996 14.6092 22.7322 14.5766 22.8518 14.582C23.1726 14.5874 23.4934 14.5874 23.8142 14.582C24.0969 14.5766 24.2437 14.4297 24.2492 14.1468C24.2546 13.7932 24.2546 13.4397 24.2492 13.0861C24.2437 12.7923 24.0969 12.6509 23.7979 12.6455ZM23.2977 13.815C22.9932 13.7987 22.6887 13.8041 22.3842 13.8096C22.0743 13.8096 21.9329 13.9564 21.9275 14.2719C21.9275 14.5874 21.9166 14.8975 21.9329 15.213C21.9438 15.3925 21.835 15.3544 21.7372 15.3544C21.6339 15.3599 21.5306 15.3871 21.536 15.213C21.5523 14.8975 21.5469 14.582 21.536 14.2665C21.536 13.9564 21.3946 13.815 21.0793 13.8096C20.927 13.8041 20.7748 13.8096 20.6225 13.8096C20.4703 13.8096 20.3344 13.7987 20.1876 13.8096C20.0408 13.8204 19.9755 13.7878 19.9809 13.6192C19.9864 13.4723 20.0081 13.407 20.1767 13.4179C20.4757 13.4342 20.7748 13.4233 21.0684 13.4233C21.3946 13.4179 21.536 13.2765 21.536 12.9446C21.536 12.64 21.5523 12.3354 21.536 12.0308C21.5251 11.8349 21.6447 11.8785 21.748 11.873C21.8731 11.8621 21.9383 11.8785 21.9329 12.0308C21.922 12.3463 21.9275 12.6618 21.9329 12.9718C21.9329 13.271 22.0797 13.4179 22.3733 13.4179C22.6778 13.4233 22.9877 13.4342 23.2922 13.4179C23.4662 13.407 23.4825 13.4777 23.4825 13.6246C23.4825 13.7606 23.4608 13.8204 23.2977 13.815Z" fill="#FEFEFE"/>
<path d="M14.386 3.33268C14.3932 3.73522 14.1993 3.93649 13.8042 3.93649C13.2768 3.93649 12.7548 3.93105 12.2328 3.94193C12.0915 3.94193 12.0589 3.89841 12.0589 3.76786C12.0589 3.16405 12.048 3.16405 12.6461 3.16405H13.2279C13.5541 3.16405 13.8858 3.16949 14.2174 3.15861C14.3588 3.15317 14.386 3.20213 14.386 3.33268Z" fill="#FEFEFE"/>
<path d="M15.9302 3.56661C15.9302 3.81321 15.8051 3.93651 15.555 3.93651C15.3049 3.93651 15.1726 3.80233 15.1581 3.53397C15.1436 3.26561 15.2705 3.14231 15.5387 3.16407C15.8069 3.18583 15.9374 3.32001 15.9302 3.56661Z" fill="#FEFEFE"/>
<path d="M15.5116 24.8033C15.392 24.923 15.1419 24.8359 14.9516 24.8359C14.6308 24.8414 14.31 24.8414 13.9837 24.8414C13.527 24.8414 13.0703 24.8359 12.6081 24.8414C12.4831 24.8468 12.4504 24.8087 12.445 24.6836C12.4341 24.0635 12.4287 24.0635 13.0431 24.0635C13.8152 24.0635 14.5873 24.0689 15.3648 24.0635C15.5116 24.058 15.566 24.0961 15.5497 24.2484C15.5279 24.4388 15.6258 24.689 15.5116 24.8033Z" fill="#FEFEFE"/>
<path d="M6.26276 11.1007C6.26276 11.253 6.2247 11.2966 6.06702 11.2966C5.48524 11.2911 5.48524 11.2966 5.48524 10.7091V9.74624C5.48524 9.28387 5.49068 8.82693 5.48524 8.36456C5.4798 8.22856 5.51786 8.19593 5.65379 8.19049C6.25733 8.18505 6.25733 8.17961 6.25733 8.77797C6.25733 9.55041 6.25733 10.3229 6.26276 11.1007Z" fill="#126AED"/>
<path d="M6.25732 12.4442C6.25732 12.709 6.12321 12.8413 5.85497 12.8413C5.58673 12.8413 5.46349 12.7144 5.48523 12.4606C5.50698 12.2067 5.64291 12.0762 5.89303 12.0689C6.14314 12.0616 6.26457 12.1868 6.25732 12.4442Z" fill="#126AED"/>
<path d="M23.7979 12.6455C23.4988 12.6455 23.1998 12.64 22.9007 12.6455C22.7539 12.6509 22.6887 12.6183 22.6996 12.4551C22.7159 12.1559 22.705 11.8567 22.705 11.5575C22.6996 11.242 22.5582 11.0951 22.2537 11.0951C21.9057 11.0897 21.5577 11.0897 21.2098 11.0951C20.9161 11.0951 20.7748 11.242 20.7693 11.5412C20.7639 11.8567 20.7639 12.1722 20.7693 12.4823C20.7748 12.6128 20.7367 12.6455 20.6117 12.6455C20.2963 12.6346 19.9809 12.6455 19.671 12.6455C19.372 12.6455 19.2252 12.7923 19.2197 13.0915V14.1305C19.2252 14.4297 19.3665 14.5766 19.6656 14.582C19.9538 14.5874 20.2419 14.5929 20.5355 14.5766C20.7095 14.5766 20.7911 14.6038 20.7748 14.805C20.753 15.0879 20.7693 15.3708 20.7693 15.6536C20.7693 15.9963 20.9053 16.1269 21.2587 16.1323H22.2483C22.5582 16.1269 22.6996 15.9854 22.705 15.6699C22.705 15.3544 22.7104 15.0389 22.6996 14.7289C22.6996 14.6092 22.7322 14.5766 22.8518 14.582C23.1726 14.5874 23.4934 14.5874 23.8142 14.582C24.0969 14.5766 24.2437 14.4297 24.2492 14.1468C24.2546 13.7932 24.2546 13.4397 24.2492 13.0861C24.2437 12.7923 24.0969 12.6509 23.7979 12.6455ZM23.2977 13.815C22.9932 13.7987 22.6887 13.8041 22.3842 13.8096C22.0743 13.8096 21.9329 13.9564 21.9275 14.2719C21.9275 14.5874 21.9166 14.8975 21.9329 15.213C21.9438 15.3925 21.835 15.3544 21.7372 15.3544C21.6339 15.3599 21.5306 15.3871 21.536 15.213C21.5523 14.8975 21.5469 14.582 21.536 14.2665C21.536 13.9564 21.3946 13.815 21.0793 13.8096C20.927 13.8041 20.7748 13.8096 20.6225 13.8096C20.4703 13.8096 20.3344 13.7987 20.1876 13.8096C20.0408 13.8204 19.9755 13.7878 19.9809 13.6192C19.9864 13.4723 20.0081 13.407 20.1767 13.4179C20.4757 13.4342 20.7748 13.4233 21.0684 13.4233C21.3946 13.4179 21.536 13.2765 21.536 12.9446C21.536 12.64 21.5523 12.3354 21.536 12.0308C21.5251 11.8349 21.6447 11.8785 21.748 11.873C21.8731 11.8621 21.9383 11.8785 21.9329 12.0308C21.922 12.3463 21.9275 12.6618 21.9329 12.9718C21.9329 13.271 22.0797 13.4179 22.3733 13.4179C22.6778 13.4233 22.9877 13.4342 23.2922 13.4179C23.4662 13.407 23.4825 13.4777 23.4825 13.6246C23.4825 13.7606 23.4608 13.8204 23.2977 13.815Z" fill="#126AED"/>
<path d="M13.8042 3.93649C13.2768 3.93649 12.7548 3.93105 12.2328 3.94193C12.0915 3.94193 12.0589 3.89841 12.0589 3.76786C12.0589 3.16405 12.048 3.16405 12.6461 3.16405H13.2279C13.5541 3.16405 13.8858 3.16949 14.2174 3.15861C14.3588 3.15317 14.386 3.20213 14.386 3.33268C14.3932 3.73522 14.1993 3.93649 13.8042 3.93649Z" fill="#126AED"/>
<path d="M15.9302 3.56661C15.9302 3.81321 15.8051 3.93651 15.555 3.93651C15.3049 3.93651 15.1726 3.80233 15.1581 3.53397C15.1436 3.26561 15.2705 3.14231 15.5387 3.16407C15.8069 3.18583 15.9374 3.32001 15.9302 3.56661Z" fill="#126AED"/>
<path d="M15.5116 24.8033C15.392 24.923 15.1419 24.8359 14.9516 24.8359C14.6308 24.8414 14.31 24.8414 13.9837 24.8414C13.527 24.8414 13.0703 24.8359 12.6081 24.8414C12.4831 24.8468 12.4504 24.8087 12.445 24.6836C12.4341 24.0635 12.4287 24.0635 13.0431 24.0635C13.8152 24.0635 14.5873 24.0689 15.3648 24.0635C15.5116 24.058 15.566 24.0961 15.5497 24.2484C15.5279 24.4388 15.6258 24.689 15.5116 24.8033Z" fill="#126AED"/>
</g>
<defs>
<clipPath id="clip0_758_2056">
<rect width="24" height="24" fill="white" transform="translate(2 2)"/>
</clipPath>
</defs>
</svg>
