<svg width="28" height="28" viewBox="0 0 28 28" fill="none" xmlns="http://www.w3.org/2000/svg">
<g clip-path="url(#clip0_758_2081)">
<path d="M5.78707 15.2799C5.67511 14.8138 5.63559 14.341 5.60266 13.8614C5.59607 13.7263 5.60266 13.5845 5.60266 13.4494C5.62242 11.6053 6.14272 9.93013 7.2031 8.43057C7.31506 8.26846 7.44679 8.14011 7.65754 8.18064C7.96709 8.23468 8.07906 8.57917 7.8683 8.87638C7.41386 9.52484 7.05162 10.2206 6.80134 10.9771C6.37983 12.274 6.28103 13.598 6.53789 14.9422C6.54448 15.0097 6.55765 15.0773 6.56424 15.1448C6.57741 15.388 6.45227 15.5636 6.2481 15.5974C6.02417 15.6379 5.84635 15.5298 5.78707 15.2799Z" fill="#FEFEFE"/>
<path d="M8.84303 6.90408C9.06696 6.89057 9.24479 7.05944 9.25796 7.28234C9.27113 7.52552 9.05379 7.76869 8.81669 7.77544C8.60593 7.77544 8.41493 7.59982 8.40834 7.37691C8.40176 7.16076 8.62569 6.91083 8.84303 6.90408Z" fill="#FEFEFE"/>
<path d="M2 17.178C2.00659 16.9213 2.18441 16.7727 2.50714 16.7727H4.52909C5.12184 16.793 5.69484 16.7187 6.27442 16.5633C7.72997 16.1918 9.06696 16.4485 10.1866 17.5427C10.3578 17.7184 10.5225 17.9075 10.6345 18.1237C10.7464 18.3466 10.9045 18.4614 11.1284 18.556C11.787 18.8194 12.4457 19.1031 13.1043 19.3935C13.6509 19.6367 14.1449 19.961 14.5005 20.4743C15.0077 21.2106 14.9879 21.9941 14.6586 22.7844C14.5532 23.0276 14.3491 23.0817 14.0659 22.9668C13.0911 22.5548 12.1164 22.136 11.1416 21.7172C10.6476 21.5078 10.1471 21.2984 9.64654 21.0822C9.36334 20.9607 9.25137 20.7377 9.35016 20.5013C9.44896 20.2852 9.67947 20.2041 9.94951 20.319C11.247 20.8728 12.5445 21.42 13.8353 21.9806C14.0461 22.0752 14.079 22.0076 14.0856 21.8118C14.1054 21.3457 13.9276 20.9674 13.5917 20.6567C13.3282 20.4068 13.0121 20.2379 12.6762 20.1028C11.9188 19.7786 11.1614 19.4543 10.3974 19.1369C10.2656 19.0828 10.1734 18.995 10.1142 18.8667C9.68606 17.921 8.92865 17.4482 7.96048 17.2861C7.26235 17.1712 6.58397 17.2726 5.92536 17.5225C5.80022 17.5698 5.67508 17.5968 5.53677 17.5968H2.51372C2.18441 17.5968 2 17.4414 2 17.178Z" fill="#FEFEFE"/>
<path d="M17.5105 11.8551C16.9375 11.8484 16.3579 11.8416 15.7849 11.8551C15.6268 11.8619 15.5939 11.8146 15.5939 11.6593C15.6071 11.0716 15.6005 10.4772 15.6005 9.8895C15.6005 9.53825 15.4556 9.38965 15.1131 9.38965H12.887C12.5445 9.38965 12.3996 9.53825 12.3996 9.88275C12.3996 10.4501 12.3864 11.0108 12.4062 11.5782C12.4062 11.7876 12.3733 11.8687 12.1428 11.8551C11.6027 11.8349 11.056 11.8484 10.516 11.8484C10.1406 11.8551 10.0023 11.9902 10.0023 12.3685C9.99567 13.1183 9.99567 13.8748 10.0023 14.6246C10.0023 14.9894 10.1406 15.1312 10.5028 15.1312C11.0758 15.138 11.6488 15.138 12.2218 15.1312C12.3667 15.1312 12.4062 15.1717 12.3996 15.3136C12.393 15.9148 12.3996 16.5092 12.3996 17.1104C12.3996 17.4413 12.5445 17.5899 12.8738 17.5967H15.0934C15.4556 17.5967 15.6005 17.4548 15.6005 17.0901C15.6005 16.5227 15.6071 15.962 15.5939 15.3946C15.5873 15.192 15.6268 15.1177 15.8442 15.1245C16.3908 15.1447 16.9441 15.1312 17.4907 15.1312C17.853 15.1312 17.9979 14.9894 17.9979 14.6314V12.3482C17.9979 11.997 17.853 11.8551 17.5105 11.8551ZM17.2009 14.1247C17.2075 14.3004 17.1482 14.3206 17.0034 14.3139C16.4369 14.3071 15.8705 14.3139 15.3041 14.3139C14.9353 14.3139 14.797 14.4557 14.797 14.8407C14.797 15.4217 14.7904 16.0026 14.797 16.5835C14.797 16.7456 14.7575 16.7861 14.606 16.7794C14.1845 16.7659 13.7695 16.7726 13.3546 16.7794C13.2229 16.7794 13.19 16.7388 13.19 16.6105C13.1965 16.0093 13.1965 15.4149 13.19 14.8137C13.19 14.4625 13.0451 14.3139 12.7092 14.3139C12.1362 14.3139 11.5566 14.3071 10.9836 14.3139C10.8387 14.3206 10.7794 14.2936 10.786 14.1247C10.7992 13.7059 10.8058 13.2872 10.786 12.8684C10.7794 12.686 10.8453 12.6657 10.9968 12.6657C11.2931 12.6792 11.5829 12.6725 11.8727 12.6725H12.7223C13.0451 12.6657 13.19 12.5171 13.19 12.1794C13.1965 11.5849 13.1965 10.9838 13.19 10.3894C13.19 10.2408 13.2295 10.207 13.3678 10.207C13.7827 10.2137 14.2042 10.2137 14.6192 10.207C14.7641 10.2002 14.797 10.2475 14.797 10.3894C14.797 10.977 14.797 11.5714 14.797 12.1591C14.797 12.5239 14.9419 12.6725 15.2975 12.6725C15.8705 12.6725 16.4435 12.6725 17.0165 12.6657C17.1548 12.6657 17.2075 12.6927 17.2009 12.8481C17.1944 13.2736 17.1878 13.6992 17.2009 14.1247Z" fill="#FEFEFE"/>
<path d="M19.1965 20.0825C18.9792 20.0757 18.8013 19.8798 18.8079 19.6637C18.8145 19.434 19.0318 19.2381 19.2624 19.2516C19.4731 19.2584 19.6575 19.4475 19.6509 19.6637C19.6444 19.8798 19.4138 20.0892 19.1965 20.0825Z" fill="#FEFEFE"/>
<path d="M19.8749 22.8586C19.7958 23.1491 19.6378 23.3585 19.3611 23.4733C18.2151 23.9529 17.0692 24.4393 15.9297 24.9256C15.8178 24.9729 15.7058 24.9796 15.5873 24.9796H13.4402C13.0318 24.9796 12.6169 24.9594 12.2151 24.9864C10.9308 25.0675 9.74534 24.7635 8.61251 24.1421C7.84852 23.7165 7.05159 23.345 6.26125 22.9735C5.60263 22.656 4.9045 22.5209 4.18002 22.5209H2.4742C2.18441 22.5142 2 22.3656 2 22.1156C2 21.8657 2.17783 21.6968 2.46762 21.6968C3.3831 21.7238 4.29857 21.6293 5.20746 21.7914C5.78705 21.8927 6.3337 22.0886 6.86059 22.3453C7.74973 22.7911 8.63886 23.2302 9.52799 23.676C10.1734 23.9935 10.8518 24.1623 11.5763 24.1623C12.8672 24.1623 14.1581 24.1623 15.449 24.1623C15.5609 24.1623 15.6597 24.1488 15.7651 24.1083C16.8255 23.6557 17.8793 23.2031 18.9462 22.7641C19.1109 22.6965 19.1504 22.602 19.1306 22.4331C19.0779 22.0075 18.854 21.7576 18.4325 21.6901C17.9385 21.6158 17.4775 21.7576 17.0099 21.886C16.7398 21.9603 16.4698 22.0616 16.1998 22.1494C15.9363 22.2305 15.7256 22.1359 15.6465 21.913C15.5609 21.6698 15.6729 21.4672 15.9561 21.3658C16.6147 21.1362 17.2799 20.9133 17.9846 20.8592C18.3996 20.8255 18.8013 20.8727 19.1701 21.0889C19.7563 21.4401 20.0527 22.1899 19.8749 22.8586Z" fill="#FEFEFE"/>
<path d="M22.2327 11.7944C22.3249 12.2605 22.3842 12.7333 22.3973 13.2129V13.5236C22.3776 15.3812 21.8507 17.0631 20.7903 18.5695C20.6915 18.7046 20.5927 18.8194 20.4083 18.8261C20.2568 18.8329 20.1317 18.7653 20.0593 18.6302C19.9605 18.4614 19.9868 18.306 20.0922 18.1507C20.3754 17.7589 20.6257 17.3468 20.8364 16.9078C21.5543 15.3677 21.7717 13.7533 21.4687 12.0714C21.4687 12.0173 21.4489 11.97 21.4489 11.916C21.4226 11.6323 21.5477 11.4432 21.7848 11.4094C21.9956 11.3824 22.1866 11.531 22.2327 11.7944Z" fill="#FEFEFE"/>
<path d="M8.18447 5.1072C8.06592 4.80323 8.05275 4.49251 8.11202 4.17504C8.1713 3.85756 8.34912 3.6279 8.65867 3.49956C9.78491 3.03348 10.9046 2.56065 12.0242 2.08106C12.1493 2.02702 12.2745 2 12.4062 2C13.1241 2.00675 13.842 2.00675 14.5599 2.00675C15.3041 2.01351 16.0418 1.99325 16.786 2.01351C17.7015 2.04728 18.5313 2.40529 19.3349 2.82408C20.1054 3.22261 20.8826 3.60764 21.6664 3.9859C22.3447 4.31013 23.0692 4.46549 23.82 4.46549H25.5193C25.8156 4.46549 25.9935 4.62085 26.0001 4.87078C26.0066 5.1207 25.8222 5.28957 25.5324 5.28282C24.617 5.26256 23.7015 5.35712 22.7926 5.19501C22.213 5.08693 21.6664 4.8978 21.1395 4.64112C20.2174 4.18179 19.3019 3.72247 18.3799 3.2699C17.7673 2.96593 17.1285 2.82408 16.4501 2.82408H12.5511C12.4194 2.82408 12.3074 2.8511 12.1889 2.89838C11.1548 3.33745 10.1208 3.78326 9.08019 4.20881C8.89578 4.28311 8.8365 4.38443 8.86943 4.57357C8.92871 4.98561 9.15264 5.22878 9.56098 5.28957C10.0549 5.37063 10.5226 5.22878 10.9836 5.10044C11.2602 5.02614 11.5237 4.92482 11.7937 4.837C12.0637 4.75595 12.2745 4.84376 12.3535 5.07342C12.4325 5.30984 12.3206 5.51924 12.044 5.62056C11.3656 5.85698 10.6872 6.07988 9.96274 6.13392C9.11971 6.19471 8.46109 5.81645 8.18447 5.1072Z" fill="#FEFEFE"/>
<path d="M26 9.77466C26.0131 10.0313 25.8287 10.207 25.5257 10.207C24.5708 10.2137 23.6092 10.2137 22.6542 10.207C22.5027 10.207 22.3578 10.234 22.2129 10.288C20.7837 10.7676 19.4138 10.6933 18.1558 9.74764C17.8002 9.47745 17.5104 9.13296 17.293 8.73443C17.2272 8.6196 17.1416 8.54529 17.0164 8.49801C16.2722 8.18054 15.5279 7.86982 14.7903 7.53883C14.1712 7.25513 13.6311 6.84985 13.3216 6.20814C12.9989 5.54617 13.0581 4.8707 13.3413 4.20873C13.4467 3.95205 13.6509 3.89801 13.9473 4.02635C15.0735 4.50594 16.1997 4.98553 17.326 5.46512C17.6619 5.60697 17.9912 5.74882 18.3205 5.89067C18.63 6.02576 18.742 6.22841 18.6498 6.47158C18.551 6.71475 18.3205 6.7823 18.0175 6.6472C16.7069 6.09331 15.3896 5.53266 14.079 4.97202C14.0461 4.95851 14.0065 4.945 13.9538 4.92473C13.8353 5.4381 13.9736 5.86365 14.3095 6.22841C14.5532 6.4986 14.8627 6.68773 15.1986 6.82958C15.9824 7.16732 16.7727 7.50506 17.5631 7.83604C17.7014 7.89684 17.8133 7.97114 17.8792 8.10623C18.3205 9.07892 19.0976 9.55175 20.1053 9.70711C20.7771 9.80844 21.4291 9.70036 22.0614 9.4707C22.18 9.42341 22.2985 9.38964 22.4237 9.38964H25.5257C25.809 9.38964 25.9802 9.53824 26 9.77466Z" fill="#FEFEFE"/>
<path d="M17.5105 11.8551C16.9375 11.8484 16.3579 11.8416 15.7849 11.8551C15.6268 11.8619 15.5939 11.8146 15.5939 11.6593C15.6071 11.0716 15.6005 10.4772 15.6005 9.8895C15.6005 9.53825 15.4556 9.38965 15.1131 9.38965H12.887C12.5445 9.38965 12.3996 9.53825 12.3996 9.88275C12.3996 10.4501 12.3864 11.0108 12.4062 11.5782C12.4062 11.7876 12.3733 11.8687 12.1428 11.8551C11.6027 11.8349 11.056 11.8484 10.516 11.8484C10.1406 11.8551 10.0023 11.9902 10.0023 12.3685C9.99567 13.1183 9.99567 13.8748 10.0023 14.6246C10.0023 14.9894 10.1406 15.1312 10.5028 15.1312C11.0758 15.138 11.6488 15.138 12.2218 15.1312C12.3667 15.1312 12.4062 15.1717 12.3996 15.3136C12.393 15.9148 12.3996 16.5092 12.3996 17.1104C12.3996 17.4413 12.5445 17.5899 12.8738 17.5967H15.0934C15.4556 17.5967 15.6005 17.4548 15.6005 17.0901C15.6005 16.5227 15.6071 15.962 15.5939 15.3946C15.5873 15.192 15.6268 15.1177 15.8442 15.1245C16.3908 15.1447 16.9441 15.1312 17.4907 15.1312C17.853 15.1312 17.9979 14.9894 17.9979 14.6314V12.3482C17.9979 11.997 17.853 11.8551 17.5105 11.8551ZM17.2009 14.1247C17.2075 14.3004 17.1482 14.3206 17.0034 14.3139C16.4369 14.3071 15.8705 14.3139 15.3041 14.3139C14.9353 14.3139 14.797 14.4557 14.797 14.8407C14.797 15.4217 14.7904 16.0026 14.797 16.5835C14.797 16.7456 14.7575 16.7861 14.606 16.7794C14.1845 16.7659 13.7695 16.7726 13.3546 16.7794C13.2229 16.7794 13.19 16.7388 13.19 16.6105C13.1965 16.0093 13.1965 15.4149 13.19 14.8137C13.19 14.4625 13.0451 14.3139 12.7092 14.3139C12.1362 14.3139 11.5566 14.3071 10.9836 14.3139C10.8387 14.3206 10.7794 14.2936 10.786 14.1247C10.7992 13.7059 10.8058 13.2872 10.786 12.8684C10.7794 12.686 10.8453 12.6657 10.9968 12.6657C11.2931 12.6792 11.5829 12.6725 11.8727 12.6725H12.7223C13.0451 12.6657 13.19 12.5171 13.19 12.1794C13.1965 11.5849 13.1965 10.9838 13.19 10.3894C13.19 10.2408 13.2295 10.207 13.3678 10.207C13.7827 10.2137 14.2042 10.2137 14.6192 10.207C14.7641 10.2002 14.797 10.2475 14.797 10.3894C14.797 10.977 14.797 11.5714 14.797 12.1591C14.797 12.5239 14.9419 12.6725 15.2975 12.6725C15.8705 12.6725 16.4435 12.6725 17.0165 12.6657C17.1548 12.6657 17.2075 12.6927 17.2009 12.8481C17.1944 13.2736 17.1878 13.6992 17.2009 14.1247Z" fill="#126AED"/>
<path d="M19.8749 22.8586C19.7958 23.1491 19.6378 23.3585 19.3611 23.4733C18.2151 23.9529 17.0692 24.4393 15.9297 24.9256C15.8178 24.9729 15.7058 24.9796 15.5873 24.9796H13.4402C13.0318 24.9796 12.6169 24.9594 12.2151 24.9864C10.9308 25.0675 9.74534 24.7635 8.61251 24.1421C7.84852 23.7165 7.05159 23.345 6.26125 22.9735C5.60263 22.656 4.9045 22.5209 4.18002 22.5209H2.4742C2.18441 22.5142 2 22.3656 2 22.1156C2 21.8657 2.17783 21.6968 2.46762 21.6968C3.3831 21.7238 4.29857 21.6293 5.20746 21.7914C5.78705 21.8927 6.3337 22.0886 6.86059 22.3453C7.74973 22.7911 8.63886 23.2302 9.52799 23.676C10.1734 23.9935 10.8518 24.1623 11.5763 24.1623C12.8672 24.1623 14.1581 24.1623 15.449 24.1623C15.5609 24.1623 15.6597 24.1488 15.7651 24.1083C16.8255 23.6557 17.8793 23.2031 18.9462 22.7641C19.1109 22.6965 19.1504 22.602 19.1306 22.4331C19.0779 22.0075 18.854 21.7576 18.4325 21.6901C17.9385 21.6158 17.4775 21.7576 17.0099 21.886C16.7398 21.9603 16.4698 22.0616 16.1998 22.1494C15.9363 22.2305 15.7256 22.1359 15.6465 21.913C15.5609 21.6698 15.6729 21.4672 15.9561 21.3658C16.6147 21.1362 17.2799 20.9133 17.9846 20.8592C18.3996 20.8255 18.8013 20.8727 19.1701 21.0889C19.7563 21.4401 20.0527 22.1899 19.8749 22.8586Z" fill="#126AED"/>
<path d="M26.0001 4.87078C26.0066 5.1207 25.8222 5.28957 25.5324 5.28282C24.617 5.26256 23.7015 5.35712 22.7926 5.19501C22.213 5.08693 21.6664 4.8978 21.1395 4.64112C20.2174 4.18179 19.3019 3.72247 18.3799 3.2699C17.7673 2.96593 17.1285 2.82408 16.4501 2.82408H12.5511C12.4194 2.82408 12.3074 2.8511 12.1889 2.89838C11.1548 3.33745 10.1208 3.78326 9.08019 4.20881C8.89578 4.28311 8.8365 4.38443 8.86943 4.57357C8.92871 4.98561 9.15264 5.22878 9.56098 5.28957C10.0549 5.37063 10.5226 5.22878 10.9836 5.10044C11.2602 5.02614 11.5237 4.92482 11.7937 4.837C12.0637 4.75595 12.2745 4.84376 12.3535 5.07342C12.4325 5.30984 12.3206 5.51924 12.044 5.62056C11.3656 5.85698 10.6872 6.07988 9.96274 6.13392C9.11971 6.19471 8.46109 5.81645 8.18447 5.1072C8.06592 4.80323 8.05275 4.49251 8.11202 4.17504C8.1713 3.85756 8.34912 3.6279 8.65867 3.49956C9.78491 3.03348 10.9046 2.56065 12.0242 2.08106C12.1493 2.02702 12.2745 2 12.4062 2C13.1241 2.00675 13.842 2.00675 14.5599 2.00675C15.3041 2.01351 16.0418 1.99325 16.786 2.01351C17.7015 2.04728 18.5313 2.40529 19.3349 2.82408C20.1054 3.22261 20.8826 3.60764 21.6664 3.9859C22.3447 4.31013 23.0692 4.46549 23.82 4.46549H25.5193C25.8156 4.46549 25.9935 4.62085 26.0001 4.87078Z" fill="#126AED"/>
<path d="M26 9.77466C26.0131 10.0313 25.8287 10.207 25.5257 10.207C24.5708 10.2137 23.6092 10.2137 22.6542 10.207C22.5027 10.207 22.3578 10.234 22.2129 10.288C20.7837 10.7676 19.4138 10.6933 18.1558 9.74764C17.8002 9.47745 17.5104 9.13296 17.293 8.73443C17.2272 8.6196 17.1416 8.54529 17.0164 8.49801C16.2722 8.18054 15.5279 7.86982 14.7903 7.53883C14.1712 7.25513 13.6311 6.84985 13.3216 6.20814C12.9989 5.54617 13.0581 4.8707 13.3413 4.20873C13.4467 3.95205 13.6509 3.89801 13.9473 4.02635C15.0735 4.50594 16.1997 4.98553 17.326 5.46512C17.6619 5.60697 17.9912 5.74882 18.3205 5.89067C18.63 6.02576 18.742 6.22841 18.6498 6.47158C18.551 6.71475 18.3205 6.7823 18.0175 6.6472C16.7069 6.09331 15.3896 5.53266 14.079 4.97202C14.0461 4.95851 14.0065 4.945 13.9538 4.92473C13.8353 5.4381 13.9736 5.86365 14.3095 6.22841C14.5532 6.4986 14.8627 6.68773 15.1986 6.82958C15.9824 7.16732 16.7727 7.50506 17.5631 7.83604C17.7014 7.89684 17.8133 7.97114 17.8792 8.10623C18.3205 9.07892 19.0976 9.55175 20.1053 9.70711C20.7771 9.80844 21.4291 9.70036 22.0614 9.4707C22.18 9.42341 22.2985 9.38964 22.4237 9.38964H25.5257C25.809 9.38964 25.9802 9.53824 26 9.77466Z" fill="#126AED"/>
<path d="M14.6586 22.7844C14.5532 23.0276 14.3491 23.0817 14.0659 22.9668C13.0911 22.5548 12.1164 22.136 11.1416 21.7172C10.6476 21.5078 10.1471 21.2984 9.64654 21.0822C9.36334 20.9607 9.25137 20.7377 9.35016 20.5013C9.44896 20.2852 9.67947 20.2041 9.94951 20.319C11.247 20.8728 12.5445 21.42 13.8353 21.9806C14.0461 22.0752 14.079 22.0076 14.0856 21.8118C14.1054 21.3457 13.9276 20.9674 13.5917 20.6567C13.3282 20.4068 13.0121 20.2379 12.6762 20.1028C11.9188 19.7786 11.1614 19.4543 10.3974 19.1369C10.2656 19.0828 10.1734 18.995 10.1142 18.8667C9.68606 17.921 8.92865 17.4482 7.96048 17.2861C7.26235 17.1712 6.58397 17.2726 5.92536 17.5225C5.80022 17.5698 5.67508 17.5968 5.53677 17.5968H2.51372C2.18441 17.5968 2 17.4414 2 17.178C2.00659 16.9213 2.18441 16.7727 2.50714 16.7727H4.52909C5.12184 16.793 5.69484 16.7187 6.27442 16.5633C7.72997 16.1918 9.06696 16.4485 10.1866 17.5427C10.3578 17.7184 10.5225 17.9075 10.6345 18.1237C10.7464 18.3466 10.9045 18.4614 11.1284 18.556C11.787 18.8194 12.4457 19.1031 13.1043 19.3935C13.6509 19.6367 14.1449 19.961 14.5005 20.4743C15.0077 21.2106 14.9879 21.9941 14.6586 22.7844Z" fill="#126AED"/>
<path d="M22.3973 13.2129V13.5236C22.3776 15.3812 21.8507 17.0631 20.7903 18.5695C20.6915 18.7046 20.5927 18.8194 20.4083 18.8261C20.2568 18.8329 20.1317 18.7653 20.0593 18.6302C19.9605 18.4614 19.9868 18.306 20.0922 18.1507C20.3754 17.7589 20.6257 17.3468 20.8364 16.9078C21.5543 15.3677 21.7717 13.7533 21.4687 12.0714C21.4687 12.0173 21.4489 11.97 21.4489 11.916C21.4226 11.6323 21.5477 11.4432 21.7848 11.4094C21.9956 11.3824 22.1866 11.531 22.2327 11.7944C22.3249 12.2605 22.3842 12.7333 22.3973 13.2129Z" fill="#126AED"/>
<path d="M7.8683 8.87638C7.41386 9.52484 7.05162 10.2206 6.80134 10.9771C6.37983 12.274 6.28103 13.598 6.53789 14.9422C6.54448 15.0097 6.55765 15.0773 6.56424 15.1448C6.57741 15.388 6.45227 15.5636 6.2481 15.5974C6.02417 15.6379 5.84635 15.5298 5.78707 15.2799C5.67511 14.8138 5.63559 14.341 5.60266 13.8614C5.59607 13.7263 5.60266 13.5845 5.60266 13.4494C5.62242 11.6053 6.14272 9.93013 7.2031 8.43057C7.31506 8.26846 7.44679 8.14011 7.65754 8.18064C7.96709 8.23468 8.07906 8.57917 7.8683 8.87638Z" fill="#126AED"/>
<path d="M9.25796 7.28234C9.27113 7.52552 9.05379 7.76869 8.81669 7.77544C8.60593 7.77544 8.41493 7.59982 8.40834 7.37691C8.40176 7.16076 8.62569 6.91083 8.84303 6.90408C9.06696 6.89057 9.24479 7.05944 9.25796 7.28234Z" fill="#126AED"/>
<path d="M19.6509 19.6637C19.6444 19.8798 19.4138 20.0892 19.1965 20.0825C18.9792 20.0757 18.8013 19.8798 18.8079 19.6637C18.8145 19.434 19.0318 19.2381 19.2624 19.2516C19.4731 19.2584 19.6575 19.4475 19.6509 19.6637Z" fill="#126AED"/>
</g>
<defs>
<clipPath id="clip0_758_2081">
<rect width="24" height="23" fill="white" transform="translate(2 2)"/>
</clipPath>
</defs>
</svg>
