<svg width="30" height="30" viewBox="0 0 30 30" fill="none" xmlns="http://www.w3.org/2000/svg">
<g clip-path="url(#clip0_758_2137)">
<path d="M3.83917 14.104C4.87753 13.726 5.61775 14.1539 6.30431 14.8099C8.05309 16.4812 9.83252 18.1244 11.566 19.8094C12.1478 20.3743 12.6537 21.0149 13.1503 21.6516C13.5745 22.1955 13.8147 22.816 13.7219 23.5147C13.6972 23.7008 13.7492 23.8137 13.9562 23.9031C14.4349 24.1086 14.6674 24.4938 14.6759 24.987C14.6862 25.5801 14.6844 26.1732 14.6759 26.7655C14.6666 27.4561 14.147 27.9847 13.417 27.9896C11.0694 28.0033 8.72091 28.0033 6.37331 27.9896C5.64331 27.9856 5.1237 27.4545 5.11518 26.7647C5.10752 26.1716 5.10581 25.5785 5.11604 24.9862C5.12455 24.4793 5.37925 24.1086 5.86137 23.8814C6.12969 23.7548 6.14673 23.6694 5.92611 23.4752C4.52658 22.2423 3.14324 20.9932 1.71815 19.7868C0.600575 18.8408 0.058822 17.6529 0.0264531 16.2757C-0.0203966 14.2466 0.00686141 12.2159 0.0170832 10.1851C0.022194 9.17379 0.872303 8.39292 1.93026 8.39453C2.98565 8.39615 3.82724 9.17943 3.83661 10.194C3.84769 11.3802 3.83917 12.5656 3.83917 13.7518C3.83917 13.8606 3.83917 13.9694 3.83917 14.104ZM6.69104 23.75H13.0507C13.1887 23.0876 13.0328 22.5009 12.6282 21.9908C12.1631 21.4058 11.7057 20.807 11.1682 20.2848C9.36573 18.537 7.53433 16.8149 5.69782 15.0984C5.47209 14.8873 5.1714 14.7188 4.87412 14.6101C4.40903 14.44 3.88772 14.6794 3.57425 15.1379C3.32552 15.5021 3.38174 15.9276 3.72928 16.2967C3.79998 16.3716 3.8775 16.4401 3.95246 16.5119C5.13222 17.628 6.31113 18.7441 7.49174 19.8586C7.65018 20.0084 7.75325 20.1704 7.56755 20.3533C7.39719 20.5202 7.22427 20.4597 7.06924 20.3122C5.80089 19.1099 4.52062 17.9189 3.2676 16.7028C2.66537 16.1186 2.633 15.3933 3.09639 14.7205C3.15516 14.6342 3.19775 14.5206 3.1986 14.4191C3.20542 13.0121 3.20883 11.605 3.20031 10.198C3.19605 9.50983 2.6347 8.9957 1.92259 8.99731C1.21132 8.99892 0.657647 9.51466 0.655091 10.2069C0.648277 12.2272 0.625278 14.2474 0.664461 16.2677C0.685756 17.3507 1.05459 18.354 1.90896 19.1196C3.37408 20.4323 4.86475 21.7209 6.35031 23.0135C6.57775 23.2109 6.79326 23.3978 6.69189 23.75H6.69104ZM9.90493 24.377C8.76946 24.377 7.63399 24.3745 6.49853 24.3778C5.98744 24.3794 5.7566 24.5978 5.75319 25.0748C5.74978 25.6067 5.74978 26.1393 5.75319 26.6712C5.75575 27.162 5.9934 27.3908 6.51471 27.3916C8.77457 27.3941 11.0353 27.3949 13.2951 27.3916C13.7977 27.3916 14.0371 27.1587 14.0405 26.6865C14.0447 26.1643 14.043 25.6421 14.0405 25.1208C14.0388 24.5849 13.8207 24.3794 13.2466 24.3778C12.1324 24.3753 11.0182 24.3778 9.90408 24.3778L9.90493 24.377Z" fill="white"/>
<path d="M26.1558 14.1111C26.1558 12.7838 26.1507 11.4985 26.1575 10.2124C26.1617 9.36301 26.7273 8.66998 27.5715 8.4532C28.7427 8.15262 29.9548 8.95847 29.9702 10.1052C29.9983 12.1956 30.0221 14.2876 29.9608 16.3763C29.9216 17.7173 29.3594 18.8728 28.2666 19.7955C26.8483 20.993 25.4735 22.2373 24.0816 23.463C23.8414 23.6749 23.8559 23.7523 24.1421 23.8876C24.6131 24.1093 24.8636 24.4751 24.8755 24.9675C24.89 25.5703 24.8857 26.1738 24.8772 26.7766C24.867 27.4632 24.3397 27.9878 23.608 27.991C21.2706 28.0031 18.9332 28.0023 16.5967 27.991C15.8497 27.9878 15.325 27.4608 15.3173 26.7549C15.3105 26.1722 15.3113 25.5888 15.3173 25.0062C15.3233 24.4856 15.5805 24.1125 16.0703 23.8723C16.1546 23.8312 16.2705 23.7216 16.262 23.6556C16.1223 22.5556 16.7194 21.7256 17.3753 20.9237C17.6802 20.5514 18.0124 20.1952 18.3634 19.8608C20.188 18.1194 22.0177 16.382 23.8567 14.6542C24.4828 14.0659 25.2094 13.7493 26.1549 14.1111H26.1558ZM23.1778 23.7579C23.3064 23.5153 23.361 23.2849 23.5117 23.1503C24.9479 21.8666 26.3849 20.5829 27.8543 19.3338C28.8475 18.4901 29.3083 17.4304 29.333 16.2127C29.3739 14.2231 29.3467 12.2326 29.3424 10.243C29.3407 9.52418 28.8023 9.00118 28.0792 8.99715C27.3406 8.99312 26.7972 9.51854 26.7946 10.2527C26.7904 11.6299 26.7921 13.0063 26.7963 14.3835C26.7963 14.4794 26.81 14.5881 26.8585 14.6679C27.3952 15.5463 27.3159 16.1595 26.5595 16.8759C25.3883 17.9848 24.2162 19.0936 23.0432 20.2017C22.9683 20.2726 22.8959 20.3758 22.8064 20.3943C22.6897 20.4193 22.5134 20.4152 22.4419 20.3484C22.3703 20.2815 22.3643 20.1147 22.389 20.0043C22.4078 19.9196 22.5168 19.8503 22.5918 19.7794C23.7852 18.6488 24.982 17.5206 26.1737 16.3876C26.6387 15.946 26.7026 15.4851 26.3704 15.0684C25.9598 14.5535 25.3968 14.4165 24.8312 14.7147C24.6387 14.8162 24.4538 14.9443 24.298 15.091C22.4623 16.8228 20.6292 18.5561 18.8038 20.2976C18.1589 20.9124 17.5899 21.5845 17.1427 22.3477C16.8787 22.7981 16.8949 23.2631 16.9289 23.7587H23.1787L23.1778 23.7579ZM20.096 24.3768C18.9605 24.3768 17.825 24.3736 16.6896 24.3784C16.1844 24.38 15.957 24.6024 15.9545 25.0843C15.951 25.6267 15.9502 26.1682 15.9545 26.7105C15.9587 27.1457 16.2023 27.3891 16.6615 27.3899C18.9537 27.3947 21.2459 27.3947 23.5381 27.3899C23.9964 27.3891 24.2366 27.1441 24.2409 26.7065C24.246 26.1746 24.2434 25.642 24.2417 25.1101C24.24 24.5895 24.0203 24.3784 23.47 24.3768C22.3448 24.3744 21.2204 24.376 20.0951 24.3768H20.096Z" fill="white"/>
<path d="M12.1613 5.9382C12.6204 4.48928 13.6963 3.65603 15.0847 3.71244C16.4647 3.76804 17.5133 4.63514 17.8242 5.94545C18.3216 5.56993 18.8336 5.18312 19.3625 4.78422C18.7748 4.31925 18.4324 3.6794 18.5192 2.88161C18.5789 2.33041 18.8421 1.86624 19.2918 1.50441C20.1965 0.777536 21.5398 0.845227 22.3481 1.6543C23.2613 2.56733 23.1599 3.74548 22.056 4.84547C22.1531 4.89382 22.2451 4.93653 22.3354 4.98327C23.5143 5.60297 24.1617 6.54581 24.2315 7.82389C24.2383 7.94879 24.1531 8.1293 24.0475 8.197C23.8346 8.33318 23.6233 8.14945 23.6029 7.83517C23.5415 6.89958 23.1071 6.159 22.274 5.65132C21.0517 4.90591 19.4818 5.14363 18.532 6.19929C18.2876 6.47086 18.2143 6.48376 17.8744 6.30083C17.877 7.32265 17.4391 8.12769 16.5677 8.70629C17.0388 8.93354 17.5303 9.11728 17.9596 9.38885C19.5116 10.372 20.3234 11.7661 20.4086 13.5317C20.4145 13.6558 20.3515 13.8073 20.2655 13.9008C20.2144 13.9556 20.0082 13.9653 19.9545 13.9153C19.8617 13.8291 19.791 13.6832 19.785 13.5591C19.739 12.5647 19.4085 11.6718 18.7629 10.8845C17.5277 9.3816 15.4186 8.77479 13.5012 9.37112C11.6042 9.961 10.2848 11.6307 10.2115 13.5156C10.2064 13.651 10.1374 13.8001 10.0514 13.9105C10.013 13.9596 9.81286 13.9701 9.76601 13.9242C9.67402 13.8347 9.58713 13.6937 9.58799 13.5744C9.59821 12.5752 9.90145 11.6541 10.4926 10.8257C11.18 9.86269 12.1034 9.18336 13.2738 8.81186C13.33 8.79413 13.3828 8.76754 13.4663 8.73369C12.5659 8.13333 12.1153 7.33393 12.1238 6.2823C11.8231 6.52486 11.6349 6.40156 11.4279 6.16867C10.6706 5.31447 9.44659 5.00825 8.33667 5.37088C7.22165 5.73512 6.46098 6.682 6.39454 7.78924C6.39454 7.79891 6.39369 7.80938 6.39369 7.81905C6.39539 8.04308 6.33747 8.23971 6.05041 8.22359C5.76079 8.20747 5.74205 7.99392 5.75653 7.77957C5.82468 6.78273 6.26166 5.96157 7.08877 5.34026C7.34261 5.14927 7.63648 5.00583 7.93717 4.82532C7.30598 4.32972 6.96525 3.69874 7.03936 2.91223C7.09132 2.36023 7.34772 1.89283 7.79151 1.52536C8.68506 0.787206 10.0292 0.835557 10.8504 1.63335C11.7823 2.53832 11.6911 3.7068 10.6383 4.78986C11.1494 5.17586 11.663 5.56348 12.1605 5.939L12.1613 5.9382ZM14.9902 8.53142C16.2245 8.53384 17.2262 7.59503 17.2287 6.4338C17.2313 5.27498 16.2287 4.31844 15.0047 4.3128C13.784 4.30716 12.7704 5.26128 12.767 6.41929C12.7635 7.58374 13.7576 8.52901 14.9902 8.53142ZM9.25748 4.61016C10.1434 4.61016 10.8555 3.93727 10.8521 3.10161C10.8487 2.274 10.1144 1.58742 9.24385 1.59789C8.38011 1.60837 7.6697 2.28367 7.66544 3.1C7.66118 3.93566 8.3716 4.61016 9.25748 4.61016ZM20.7212 4.61016C21.6096 4.61499 22.3268 3.94856 22.3294 3.11531C22.3328 2.28689 21.6088 1.59789 20.7348 1.59789C19.8736 1.59789 19.153 2.27239 19.1428 3.0871C19.1317 3.92438 19.837 4.60532 20.7203 4.61016H20.7212Z" fill="white"/>
</g>
<defs>
<clipPath id="clip0_758_2137">
<rect width="30" height="27" fill="white" transform="translate(0 1)"/>
</clipPath>
</defs>
</svg>
