<svg width="28" height="28" viewBox="0 0 28 28" fill="none" xmlns="http://www.w3.org/2000/svg">
<g clip-path="url(#clip0_758_2039)">
<path d="M13.9932 12.6118C12.6248 12.6186 11.5196 13.7031 11.5155 15.0439C11.5114 16.3874 12.6124 17.4759 13.9815 17.4827C15.3684 17.4901 16.4812 16.411 16.4846 15.056C16.488 13.7058 15.3664 12.6051 13.9932 12.6118ZM14.0028 16.4816C13.1863 16.4823 12.5286 15.8398 12.5334 15.0459C12.5375 14.2514 13.2035 13.6048 14.0104 13.6109C14.8097 13.6176 15.4598 14.2561 15.4674 15.0412C15.4743 15.8351 14.8186 16.4803 14.0028 16.4816Z" fill="#126AED"/>
<path d="M20.5973 22.1417C20.3134 21.7938 19.9498 21.5483 19.545 21.3552C18.8351 21.0161 18.0756 20.8298 17.3107 20.6764C17.3107 20.6481 17.3038 20.6279 17.3113 20.6165C17.367 20.5324 17.4254 20.4497 17.4832 20.3669C18.1739 19.3685 18.8296 18.35 19.3258 17.2406C19.7471 16.2987 19.9464 15.3339 19.7491 14.3046C19.2825 11.8678 17.4172 10.0615 14.8557 9.65377C12.5698 9.28981 10.1636 10.338 8.91959 12.4989C8.30722 13.5632 8.02131 14.7096 8.24605 15.9314C8.39382 16.7367 8.75464 17.472 9.14502 18.1898C9.60756 19.0409 10.1491 19.8435 10.7292 20.669C10.2433 20.7672 9.7945 20.8648 9.35808 21.006C8.70516 21.2173 8.07011 21.4649 7.5732 21.9546C6.81031 22.7061 6.80962 23.6803 7.56701 24.4324C7.94777 24.8099 8.41581 25.0494 8.91684 25.2317C10.3526 25.7551 11.8502 25.9448 13.3711 25.9892C15.1698 26.0424 16.9478 25.9078 18.6749 25.375C19.4062 25.1496 20.1058 24.8543 20.6028 24.2427C21.1354 23.5868 21.1306 22.7963 20.5973 22.1417ZM9.82062 17.287C9.51822 16.7044 9.2543 16.1036 9.20206 15.4389C9.1945 15.3387 9.20138 15.2377 9.20138 15.1375C9.30653 12.5204 11.477 10.5277 14.1505 10.5869C16.8234 10.6454 19.0433 13.0223 18.7869 15.5566C18.7333 16.0888 18.5251 16.5779 18.2942 17.0549C17.5278 18.6386 16.4942 20.0561 15.4213 21.4474C14.9979 21.9957 14.5478 22.5238 14.1155 23.0654C14.0309 23.171 13.9835 23.1851 13.8893 23.0714C12.3787 21.2469 10.9141 19.3914 9.82062 17.287ZM19.7718 23.6655C19.5107 23.9561 19.1643 24.1243 18.8069 24.2676C17.8227 24.6625 16.7849 24.822 15.7361 24.9269C15.156 24.9848 14.5732 24.9935 13.9904 25.0043C12.4619 24.9868 10.9471 24.867 9.48729 24.3766C9.08935 24.2434 8.70516 24.0792 8.37938 23.8115C7.90516 23.4219 7.90103 22.9712 8.38145 22.5843C8.95877 22.1188 9.66461 21.9345 10.3704 21.7609C10.644 21.6936 10.9265 21.664 11.2 21.5974C11.3526 21.5604 11.4309 21.6142 11.5189 21.7252C12.0364 22.3818 12.5553 23.0385 13.0866 23.685C13.6577 24.38 14.3388 24.382 14.9086 23.6904C15.4357 23.0506 15.9505 22.402 16.4619 21.7515C16.5601 21.6263 16.6454 21.5678 16.8186 21.5987C17.6364 21.7447 18.4433 21.9203 19.1883 22.3011C19.4096 22.4148 19.6158 22.5487 19.778 22.7377C20.044 23.0459 20.044 23.3621 19.7718 23.6655Z" fill="#126AED"/>
<path d="M13.9973 0.999929C16.3024 1.03693 18.3148 1.77159 19.945 3.40843C20.178 3.64256 20.3918 3.89484 20.5787 4.16664C20.7574 4.42566 20.7203 4.71629 20.4935 4.88314C20.2529 5.06007 19.9574 5.01365 19.7526 4.74926C18.1141 2.63744 15.8873 1.8281 13.2612 2.04406C11.2282 2.21091 9.52716 3.06936 8.28593 4.70351C8.05775 5.00423 7.77046 5.06882 7.51411 4.88717C7.26256 4.70889 7.23782 4.41287 7.46187 4.11282C8.5574 2.64619 10.0378 1.74266 11.8124 1.27509C12.5265 1.08672 13.255 0.995219 13.9973 0.999929Z" fill="#126AED"/>
<path d="M19.1257 6.31154C19.1051 6.53423 19.0041 6.69905 18.7869 6.77642C18.5711 6.85312 18.38 6.80131 18.2295 6.63447C18.0708 6.45888 17.9354 6.26176 17.767 6.09693C16.6316 4.98686 15.2364 4.53476 13.6598 4.62357C12.2268 4.70363 10.991 5.23242 10.0336 6.31154C9.95529 6.39967 9.88794 6.4979 9.81234 6.58805C9.60753 6.83293 9.3223 6.8807 9.08794 6.71184C8.84533 6.53759 8.80753 6.24561 9.00409 5.98054C9.71406 5.0205 10.6536 4.3511 11.7952 3.9831C14.0474 3.25853 16.145 3.55253 18.0419 4.98619C18.4096 5.26404 18.7182 5.60177 18.9917 5.9691C19.0701 6.07405 19.1168 6.18641 19.1264 6.31154H19.1257Z" fill="#126AED"/>
<path d="M13.9979 6.11108C15.5127 6.16491 16.7237 6.77847 17.5828 8.02309C17.7938 8.32919 17.7573 8.62656 17.5023 8.79879C17.2426 8.97438 16.9456 8.8849 16.725 8.56466C15.3924 6.63113 12.6137 6.63382 11.2728 8.57004C11.0597 8.8775 10.7704 8.969 10.514 8.81022C10.2446 8.64338 10.202 8.3339 10.4206 8.01905C11.2755 6.7852 12.4776 6.16961 13.9979 6.11176V6.11108Z" fill="#126AED"/>
<path d="M13.9932 12.6118C12.6248 12.6186 11.5196 13.7031 11.5155 15.0439C11.5114 16.3874 12.6124 17.4759 13.9815 17.4827C15.3684 17.4901 16.4812 16.411 16.4846 15.056C16.488 13.7058 15.3664 12.6051 13.9932 12.6118ZM14.0028 16.4816C13.1863 16.4823 12.5286 15.8398 12.5334 15.0459C12.5375 14.2514 13.2035 13.6048 14.0104 13.6109C14.8097 13.6176 15.4598 14.2561 15.4674 15.0412C15.4743 15.8351 14.8186 16.4803 14.0028 16.4816Z" fill="#FEFEFE"/>
<path d="M13.9932 12.6118C12.6248 12.6186 11.5196 13.7031 11.5155 15.0439C11.5114 16.3874 12.6124 17.4759 13.9815 17.4827C15.3684 17.4901 16.4812 16.411 16.4846 15.056C16.488 13.7058 15.3664 12.6051 13.9932 12.6118ZM14.0028 16.4816C13.1863 16.4823 12.5286 15.8398 12.5334 15.0459C12.5375 14.2514 13.2035 13.6048 14.0104 13.6109C14.8097 13.6176 15.4598 14.2561 15.4674 15.0412C15.4743 15.8351 14.8186 16.4803 14.0028 16.4816Z" fill="#126AED"/>
</g>
<defs>
<clipPath id="clip0_758_2039">
<rect width="14" height="25" fill="white" transform="translate(7 1)"/>
</clipPath>
</defs>
</svg>
