<svg width="30" height="30" viewBox="0 0 30 30" fill="none" xmlns="http://www.w3.org/2000/svg">
<g clip-path="url(#clip0_760_2161)">
<path d="M12.795 16.2025C12.1502 16.2277 11.5055 16.2659 10.8608 16.272C10.6686 16.2735 10.5603 16.1123 10.5595 15.9153C10.5572 15.2103 10.5434 14.5053 10.568 13.8011C10.5833 13.3466 10.83 13.0075 11.255 12.8288C11.4117 12.7631 11.4663 12.6806 11.4755 12.5164C11.5139 11.8175 11.5186 11.8175 10.87 11.5739C10.4942 11.4326 10.1177 11.2936 9.74188 11.153C9.13787 10.9277 8.92885 10.6336 8.92808 9.99434C8.92655 8.8517 8.91502 7.7083 8.93577 6.56566C8.94115 6.27084 8.84125 6.15627 8.57305 6.06996C7.82765 5.82936 7.09146 5.55745 6.35221 5.297C6.01408 5.17784 5.84733 4.98308 5.84963 4.71575C5.85194 4.44765 6.01946 4.25594 6.35912 4.13679C9.25468 3.12018 12.1502 2.10586 15.0435 1.08466C15.347 0.977729 15.6314 0.969327 15.9372 1.07702C18.8397 2.10051 21.7445 3.11789 24.6477 4.13832C24.9927 4.25976 25.1518 4.45071 25.151 4.72109C25.1503 4.98613 24.9835 5.18395 24.6446 5.30387C23.87 5.57884 23.0962 5.85609 22.317 6.11808C22.1325 6.17994 22.068 6.26167 22.0695 6.45949C22.0795 7.63116 22.0757 8.80282 22.0741 9.97372C22.0734 10.639 21.8805 10.9178 21.2519 11.1561C19.4906 11.8229 17.7277 12.4843 15.9679 13.1542C15.646 13.2764 15.3409 13.2733 15.0197 13.1496C14.1021 12.7944 13.18 12.4499 12.2609 12.1024C12.0772 12.521 12.1226 12.7203 12.4492 13.0029C12.7081 13.2275 12.8488 13.5124 12.8511 13.8546C12.8564 14.5214 12.8564 15.1882 12.8503 15.855C12.8495 15.9749 12.8073 16.0948 12.7834 16.2147L12.7934 16.204L12.795 16.2025ZM6.79868 4.71957C8.60379 5.35504 10.3428 5.9699 12.0857 6.57254C12.1702 6.60156 12.3093 6.55497 12.3915 6.49845C12.9656 6.10204 13.5319 5.69417 14.1006 5.29012C14.4902 5.01363 14.8729 4.72568 15.2748 4.46828C15.3755 4.40335 15.5545 4.39266 15.6675 4.43543C15.7528 4.46828 15.8519 4.64013 15.8327 4.72491C15.8027 4.85629 15.6997 4.99682 15.5876 5.07855C14.8391 5.62543 14.0798 6.15779 13.3244 6.69551C13.2361 6.7589 13.15 6.82535 13.0347 6.9109C13.7717 7.17135 14.4679 7.40966 15.1572 7.66553C15.3954 7.75413 15.6106 7.75184 15.8504 7.66629C17.7684 6.98346 19.6904 6.30979 21.6107 5.63383C22.453 5.33748 23.2952 5.04112 24.1835 4.72873C24.0737 4.6829 24.0137 4.65464 23.9522 4.63326C21.2204 3.67087 18.4893 2.7062 15.7535 1.75375C15.5991 1.70028 15.3916 1.70868 15.2348 1.76291C13.4996 2.3602 11.7691 2.97124 10.037 3.57998C8.98264 3.95042 7.92909 4.32239 6.79791 4.72033L6.79868 4.71957ZM12.5829 7.49062C12.516 8.31857 12.4592 9.11445 12.3831 9.90803C12.3646 10.1051 12.42 10.1906 12.6075 10.2586C13.4789 10.5748 14.3473 10.9017 15.211 11.2386C15.4131 11.3172 15.5852 11.3195 15.7874 11.2424C17.4034 10.6252 19.0241 10.0173 20.6425 9.40622C21.4955 9.0839 21.3679 9.22214 21.3756 8.33843C21.381 7.72281 21.3764 7.10719 21.3764 6.46408C21.2503 6.50303 21.1604 6.52824 21.0713 6.55955C19.5105 7.10719 17.9421 7.63192 16.3944 8.21393C15.782 8.4446 15.2341 8.47592 14.627 8.21699C13.9715 7.93744 13.2822 7.7358 12.5821 7.49138L12.5829 7.49062ZM11.6853 9.90345C11.7414 9.22291 11.7844 8.58743 11.8475 7.95348C11.9166 7.25919 11.9251 7.25919 11.2711 7.02852C10.734 6.8391 10.196 6.65044 9.62892 6.45109C9.62892 7.3012 9.622 8.10929 9.63814 8.91739C9.63968 9.01439 9.74342 9.15875 9.83487 9.19617C10.4343 9.44059 11.0437 9.66133 11.6853 9.90345ZM12.337 10.9002C12.1933 11.2538 12.3108 11.3974 12.6175 11.5051C13.5012 11.8137 14.3703 12.162 15.251 12.479C15.3916 12.5294 15.5799 12.5477 15.7159 12.4973C17.5072 11.8336 19.2938 11.1561 21.0797 10.4786C21.3794 10.3648 21.4294 10.2342 21.3241 9.89734C21.2434 9.9256 21.1627 9.95081 21.0828 9.98136C19.3761 10.6252 17.6678 11.2661 15.9626 11.9153C15.6498 12.0344 15.357 12.0406 15.0443 11.9168C14.4495 11.68 13.8485 11.4601 13.2499 11.2347C12.9487 11.1217 12.6459 11.014 12.337 10.901V10.9002ZM11.2542 15.5777H12.1579C12.1579 14.9903 12.1671 14.4205 12.1533 13.8515C12.1472 13.5926 11.9466 13.4253 11.703 13.4268C11.4494 13.4284 11.2627 13.604 11.2573 13.8874C11.2465 14.4389 11.2542 14.9911 11.2542 15.5769V15.5777ZM11.6477 11.1286C11.5916 10.901 11.5985 10.6397 11.5063 10.6C10.9053 10.3358 10.2829 10.1188 9.65197 9.88054C9.59741 10.1502 9.60202 10.361 9.88251 10.4656C10.4373 10.6726 10.9906 10.8819 11.6469 11.1286H11.6477Z" fill="white"/>
<path d="M8.69915 21.3873C9.14025 21.3873 9.58134 21.3873 10.0217 21.3873C10.5896 21.3865 11.1221 21.5286 11.6147 21.8028C11.7553 21.8807 11.8591 21.8654 12.0081 21.8211C12.5184 21.6691 13.0356 21.4553 13.5558 21.4369C14.9145 21.3896 16.2777 21.4041 17.6363 21.4576C18.0913 21.4751 18.5416 21.6737 18.9858 21.815C19.1302 21.8609 19.2347 21.8906 19.3792 21.8081C19.8695 21.5278 20.402 21.3873 20.9707 21.3865C21.8237 21.3865 22.6774 21.3781 23.5304 21.3865C25.48 21.4033 26.9493 22.8714 26.9993 24.8083C27.0108 25.2414 26.8778 25.5355 26.5389 25.8074C24.9113 27.115 23.074 27.5786 21.0222 27.2174C20.8462 27.186 20.7225 27.2067 20.578 27.3136C17.5372 29.5614 13.4651 29.563 10.4305 27.3189C10.2891 27.2143 10.1669 27.1845 9.98786 27.2166C7.80927 27.6061 5.88966 27.0654 4.24285 25.5935C4.13834 25.4996 4.03691 25.3499 4.0223 25.217C3.84325 23.5901 4.81305 22.0747 6.36457 21.5653C6.66888 21.4652 6.99855 21.4163 7.32053 21.3965C7.7793 21.3682 8.24038 21.3896 8.70069 21.3896C8.70069 21.3896 8.70069 21.3888 8.70069 21.3881L8.69915 21.3873ZM15.626 22.0671C14.7354 22.1022 13.947 22.0518 13.1893 22.1786C11.3903 22.4795 10.1861 23.985 10.16 25.815C10.1561 26.0992 10.2407 26.2901 10.4597 26.4696C11.7453 27.5252 13.2092 28.1484 14.8737 28.2737C17.0869 28.4402 19.0265 27.778 20.6917 26.3237C20.7617 26.2626 20.8239 26.1549 20.8308 26.0648C20.9761 24.2309 19.7358 22.5376 17.9161 22.203C17.133 22.0594 16.3154 22.103 15.626 22.0671ZM21.4779 26.5819C23.0624 26.8607 25.022 26.2809 26.1624 25.2002C26.2246 25.1414 26.2777 25.0451 26.2846 24.9619C26.4068 23.4908 25.1964 22.1244 23.7133 22.0854C22.765 22.0602 21.816 22.064 20.8677 22.09C20.5396 22.0992 20.2153 22.2153 19.8357 22.2932C21.4771 23.6802 21.6638 25.4354 21.4779 26.5803V26.5819ZM9.50603 26.5956C9.32007 24.8946 9.78806 23.4595 11.192 22.2878C10.7732 22.2091 10.4328 22.1007 10.0885 22.0892C9.21786 22.0617 8.34566 22.0709 7.47423 22.0785C5.87199 22.093 4.69701 23.2922 4.7193 24.8908C4.72083 25.0046 4.78692 25.1582 4.87529 25.2238C5.24185 25.4965 5.60841 25.7799 6.01108 25.9915C7.1069 26.5666 8.27727 26.7675 9.50526 26.5949L9.50603 26.5956Z" fill="white"/>
<path d="M12.785 16.2132C13.3237 15.5204 13.9877 15.0087 14.8752 14.8582C16.1901 14.6352 17.2974 15.0293 18.0958 16.0963C18.9004 17.171 18.9873 18.3602 18.3563 19.5388C17.7362 20.6982 16.7118 21.2856 15.387 21.2374C12.8911 21.1466 11.4571 18.4969 12.7205 16.3537C12.7489 16.3049 12.7704 16.2521 12.795 16.2017L12.785 16.2124V16.2132ZM18.0467 18.0264C18.049 16.6241 16.927 15.499 15.5207 15.4922C14.0937 15.4861 12.9587 16.6035 12.9564 18.0173C12.9541 19.4311 14.0868 20.5546 15.5115 20.5516C16.9193 20.5485 18.0444 19.428 18.0467 18.0264Z" fill="white"/>
<path d="M22.3071 21.0137C20.89 21.0183 19.7404 19.8955 19.7281 18.4947C19.7158 17.0702 20.8762 15.9108 22.3109 15.9138C23.708 15.9169 24.8645 17.0748 24.8645 18.4687C24.8645 19.868 23.718 21.0083 22.3078 21.0137H22.3071ZM22.2856 20.3186C23.3184 20.3225 24.1506 19.509 24.1644 18.4825C24.1775 17.4605 23.3207 16.6028 22.2886 16.6066C21.2604 16.6104 20.4328 17.4391 20.4313 18.4657C20.4297 19.496 21.2489 20.3148 22.2856 20.3186Z" fill="white"/>
<path d="M8.71221 21.0137C7.29671 21.0137 6.14248 19.881 6.1371 18.4863C6.13172 17.0649 7.29748 15.9085 8.73142 15.9138C10.1308 15.9192 11.2804 17.0786 11.2727 18.4764C11.2658 19.8833 10.1254 21.0137 8.71221 21.0137ZM10.5711 18.4787C10.5773 17.4536 9.75655 16.6211 8.72681 16.6074C7.69785 16.5936 6.83563 17.443 6.83794 18.4703C6.84024 19.4922 7.67249 20.3171 8.70376 20.3194C9.74195 20.3209 10.5657 19.5098 10.5711 18.4794V18.4787Z" fill="white"/>
</g>
<defs>
<clipPath id="clip0_760_2161">
<rect width="23" height="28" fill="white" transform="translate(4 1)"/>
</clipPath>
</defs>
</svg>
