<svg width="28" height="28" viewBox="0 0 28 28" fill="none" xmlns="http://www.w3.org/2000/svg">
<g clip-path="url(#clip0_758_2034)">
<path d="M18.8903 8.1123C18.8734 7.91181 18.8622 7.71132 18.8453 7.5164C18.7217 5.48922 18.6036 3.46204 18.4743 1.43487C18.4575 1.13413 18.2776 0.972626 17.9741 1.00604C17.1477 1.08958 16.3214 1.18425 15.4951 1.2845C15.1466 1.32905 15.0173 1.52397 15.0792 1.86369C15.141 2.2424 15.2028 2.61553 15.2703 2.99423C15.5738 4.81535 15.8717 6.63647 16.1809 8.45202C16.2484 8.84743 16.3889 8.95325 16.7936 8.91426C17.3276 8.85857 17.856 8.79731 18.3844 8.73048C18.8228 8.67479 18.9128 8.55783 18.8903 8.1123ZM17.5637 7.98421C17.3726 8.00092 17.1421 8.09002 17.0016 8.01206C16.8611 7.92852 16.906 7.66677 16.8723 7.48298C16.5856 5.75654 16.299 4.0301 16.001 2.30923C15.9673 2.0976 16.0235 2.04748 16.2259 2.03634C16.6475 2.00849 17.0634 1.9528 17.4794 1.89711C17.6255 1.87483 17.6761 1.90825 17.6818 2.05861C17.7886 3.86859 17.8954 5.67857 18.0022 7.48298C18.0134 7.78743 17.8672 7.95451 17.5637 7.98421ZM17.7998 9.10918C16.9398 9.10918 16.254 9.78862 16.254 10.6407C16.254 11.4928 16.9566 12.1889 17.7998 12.1834C18.6598 12.1722 19.3568 11.4816 19.3568 10.6407C19.3568 9.79976 18.6598 9.10918 17.7998 9.10918ZM17.7942 11.348C17.4007 11.3424 17.0915 11.0194 17.0972 10.624C17.1084 10.2342 17.4176 9.93899 17.811 9.94456C18.1933 9.94456 18.5081 10.2509 18.5137 10.6351C18.5193 11.0194 18.182 11.3536 17.7942 11.348ZM20.1551 18.7271C19.874 18.5601 19.6098 18.3818 19.3344 18.2148C18.3169 17.5966 17.5749 16.7445 17.1028 15.6585C16.788 14.9345 16.4732 14.2161 16.1584 13.4921C15.7425 12.5454 15.1579 11.7211 14.3428 11.0751C12.9431 9.9557 11.3411 9.47675 9.54797 9.69394C9.33437 9.72179 9.26691 9.68838 9.25005 9.46004C9.22194 9.01451 9.14325 8.5634 8.95775 8.14572C8.56989 7.27136 7.57495 6.83139 6.66433 7.13213C5.73122 7.444 5.20283 8.37405 5.4333 9.32081C5.57383 9.89443 5.95044 10.3344 6.33268 10.7688C6.43386 10.8802 6.47321 10.9359 6.32706 11.0584C4.11233 12.8684 3.40407 15.7476 4.52267 18.3651C4.8487 19.1225 5.18597 19.8744 5.51199 20.6262C5.91109 21.534 6.10783 22.4808 5.96731 23.4665C5.89423 24.0067 5.77619 24.5414 5.69187 25.0816C5.63004 25.4658 5.8324 25.8056 6.17529 25.9448C6.43948 26.0506 6.68681 25.9893 6.93414 25.8779C8.23262 25.321 9.53111 24.7641 10.824 24.1961C11.0095 24.1125 11.0994 24.1459 11.2231 24.3019C11.7402 24.9702 12.4485 25.282 13.2186 25.321C14.9218 25.3266 16.1978 23.8452 15.9167 22.258C15.883 22.0853 15.9111 22.0018 16.0853 21.9294C17.4063 21.3725 18.7104 20.7989 20.0258 20.242C20.363 20.0972 20.5879 19.8744 20.616 19.5124C20.6385 19.156 20.4586 18.9053 20.1551 18.7271ZM6.37765 9.42662C6.15842 9.04792 6.15842 8.66365 6.41138 8.30165C6.64746 7.97307 6.98473 7.8227 7.38945 7.88396C7.8279 7.95079 8.10896 8.21255 8.24387 8.63023C8.35067 8.98109 8.40126 9.33752 8.44623 9.74964C8.48557 9.87216 8.40688 9.95013 8.23824 9.99468C7.92908 10.0838 7.63678 10.2174 7.35573 10.379C7.23768 10.4458 7.15899 10.4458 7.06343 10.34C6.81048 10.0559 6.56877 9.76077 6.37765 9.42662ZM13.9493 24.3631C13.2073 24.6472 12.3979 24.4244 11.8526 23.7617C12.7127 23.3885 13.5502 23.0265 14.3878 22.6645C14.562 22.5921 14.7419 22.5253 14.9162 22.4362C15.0679 22.3638 15.1073 22.4028 15.1129 22.5643C15.1579 23.3551 14.6969 24.0791 13.9493 24.3631ZM6.53504 25.1428C6.61936 24.5581 6.75989 24.0401 6.8161 23.5055C6.93414 22.4084 6.74864 21.3614 6.31582 20.3589C5.96168 19.5458 5.59069 18.7438 5.25342 17.9307C3.70199 14.1771 6.74302 10.0949 10.8127 10.4959C12.9544 10.7075 14.4777 11.8436 15.3658 13.7929C15.6975 14.5113 16.0067 15.2353 16.3158 15.9593C16.8723 17.2569 17.7604 18.2649 18.9859 18.9777C19.2163 19.117 19.4468 19.2562 19.6773 19.3954C19.6885 19.4066 19.6941 19.4233 19.7166 19.4623C15.3321 21.3502 10.9533 23.2382 6.53504 25.1428ZM21.268 11.2143C20.4192 11.2088 19.7222 11.8938 19.7166 12.7458C19.711 13.5979 20.3968 14.2829 21.2568 14.2829C22.1168 14.2885 22.8138 13.6091 22.8195 12.757C22.8251 11.916 22.1224 11.2199 21.268 11.2143ZM21.2737 13.4531C20.8689 13.4531 20.5598 13.1468 20.5598 12.7458C20.5598 12.3449 20.8746 12.0497 21.2568 12.0441C21.6447 12.0386 21.9763 12.3671 21.9763 12.757C21.9707 13.1413 21.6615 13.4476 21.2737 13.4531ZM23.6402 3.40078C22.7801 3.30054 21.9145 3.20586 21.0994 3.11676C20.7509 3.10562 20.5991 3.26712 20.5823 3.60684C20.4474 5.82337 20.3124 8.0399 20.1719 10.2564C20.1494 10.6407 20.2843 10.8022 20.6666 10.8412C21.195 10.8969 21.729 10.9526 22.2574 11.0138C22.6789 11.064 22.8195 10.9526 22.8925 10.5293C23.1455 8.9978 23.4041 7.47185 23.657 5.94032C23.7694 5.28316 23.8819 4.626 23.9887 3.96884C24.0393 3.64583 23.9156 3.4342 23.6402 3.40078ZM23.078 4.3197C22.7633 6.19094 22.4485 8.06218 22.1449 9.93342C22.1168 10.1061 22.0719 10.1952 21.8639 10.1395C21.6784 10.0894 21.4816 10.0726 21.2905 10.0726C21.0825 10.0726 21.0095 10.0058 21.0488 9.79976C21.0601 9.74964 21.0488 9.69951 21.0488 9.64382H21.0601C21.1669 7.84498 21.2793 6.04614 21.3805 4.24173C21.3917 4.04681 21.4479 3.97998 21.6559 4.01339C22.0887 4.08022 22.5272 4.11921 22.96 4.16376C23.0724 4.1749 23.1005 4.20274 23.078 4.3197Z" fill="#FEFEFE"/>
<path d="M20.1552 18.7267C19.8741 18.5596 19.6099 18.3814 19.3345 18.2143C18.3171 17.5961 17.5751 16.7441 17.1029 15.6581C16.7881 14.9341 16.4733 14.2157 16.1585 13.4917C15.7426 12.5449 15.158 11.7207 14.3429 11.0746C12.9433 9.95524 11.3412 9.47629 9.54809 9.69349C9.33449 9.72133 9.26703 9.68792 9.25017 9.45958C9.22206 9.01405 9.14337 8.56295 8.95787 8.14526C8.57001 7.2709 7.57507 6.83093 6.66445 7.13167C5.73134 7.44354 5.20295 8.37359 5.43342 9.32035C5.57395 9.89398 5.95056 10.3339 6.3328 10.7683C6.43398 10.8797 6.47333 10.9354 6.32718 11.0579C4.11245 12.8679 3.40419 15.7472 4.5228 18.3647C4.84882 19.1221 5.18609 19.8739 5.51212 20.6258C5.91122 21.5335 6.10796 22.4803 5.96743 23.466C5.89435 24.0063 5.77631 24.5409 5.69199 25.0811C5.63016 25.4654 5.83252 25.8051 6.17541 25.9443C6.4396 26.0501 6.68693 25.9889 6.93426 25.8775C8.23274 25.3206 9.53123 24.7637 10.8241 24.1956C11.0096 24.1121 11.0995 24.1455 11.2232 24.3014C11.7403 24.9697 12.4486 25.2816 13.2187 25.3206C14.9219 25.3261 16.1979 23.8447 15.9168 22.2575C15.8831 22.0849 15.9112 22.0014 16.0855 21.929C17.4064 21.372 18.7105 20.7984 20.0259 20.2415C20.3632 20.0967 20.588 19.8739 20.6161 19.5119C20.6386 19.1555 20.4587 18.9049 20.1552 18.7267ZM6.37777 9.42617C6.15855 9.04746 6.15855 8.66319 6.4115 8.3012C6.64758 7.97261 6.98485 7.82225 7.38957 7.88351C7.82802 7.95034 8.10908 8.21209 8.24399 8.62978C8.35079 8.98063 8.40138 9.33706 8.44635 9.74918C8.4857 9.8717 8.407 9.94967 8.23837 9.99422C7.9292 10.0833 7.6369 10.217 7.35585 10.3785C7.2378 10.4453 7.15911 10.4453 7.06355 10.3395C6.8106 10.0555 6.56889 9.76032 6.37777 9.42617ZM13.9494 24.3627C13.2075 24.6467 12.398 24.4239 11.8528 23.7612C12.7128 23.3881 13.5503 23.0261 14.3879 22.6641C14.5621 22.5917 14.742 22.5249 14.9163 22.4357C15.068 22.3633 15.1074 22.4023 15.113 22.5638C15.158 23.3547 14.6971 24.0787 13.9494 24.3627ZM6.53516 25.1424C6.61948 24.5576 6.76001 24.0397 6.81622 23.505C6.93426 22.4079 6.74877 21.3609 6.31594 20.3584C5.96181 19.5453 5.59081 18.7434 5.25354 17.9303C3.70211 14.1767 6.74314 10.0945 10.8128 10.4954C12.9545 10.7071 14.4778 11.8432 15.366 13.7924C15.6976 14.5108 16.0068 15.2348 16.3159 15.9588C16.8724 17.2564 17.7606 18.2644 18.986 18.9773C19.2164 19.1165 19.4469 19.2557 19.6774 19.395C19.6886 19.4061 19.6942 19.4228 19.7167 19.4618C15.3322 21.3498 10.9534 23.2377 6.53516 25.1424Z" fill="#126AED"/>
<path d="M18.8903 8.11181C18.8735 7.91132 18.8622 7.71083 18.8454 7.51591C18.7217 5.48873 18.6037 3.46156 18.4744 1.43438C18.4575 1.13364 18.2776 0.972138 17.9741 1.00555C17.1478 1.08909 16.3215 1.18377 15.4952 1.28401C15.1467 1.32856 15.0174 1.52349 15.0792 1.8632C15.1411 2.24191 15.2029 2.61504 15.2703 2.99375C15.5739 4.81486 15.8718 6.63598 16.181 8.45153C16.2484 8.84694 16.3889 8.95276 16.7937 8.91377C17.3277 8.85808 17.8561 8.79682 18.3844 8.72999C18.8229 8.6743 18.9128 8.55735 18.8903 8.11181ZM17.5638 7.98372C17.3726 8.00043 17.1422 8.08954 17.0016 8.01157C16.8611 7.92803 16.9061 7.66628 16.8724 7.4825C16.5857 5.75605 16.299 4.02961 16.0011 2.30874C15.9674 2.09711 16.0236 2.04699 16.2259 2.03585C16.6475 2.008 17.0635 1.95231 17.4794 1.89662C17.6256 1.87434 17.6762 1.90776 17.6818 2.05813C17.7886 3.86811 17.8954 5.67809 18.0022 7.4825C18.0135 7.78695 17.8673 7.95402 17.5638 7.98372Z" fill="#126AED"/>
<path d="M23.6403 3.40029C22.7803 3.30004 21.9146 3.20537 21.0995 3.11626C20.751 3.10512 20.5993 3.26663 20.5824 3.60635C20.4475 5.82288 20.3126 8.03941 20.1721 10.2559C20.1496 10.6402 20.2845 10.8017 20.6667 10.8407C21.1951 10.8964 21.7291 10.9521 22.2575 11.0133C22.6791 11.0635 22.8196 10.9521 22.8927 10.5288C23.1456 8.9973 23.4042 7.47135 23.6572 5.93983C23.7696 5.28267 23.882 4.62551 23.9888 3.96834C24.0394 3.64533 23.9157 3.4337 23.6403 3.40029ZM23.0782 4.3192C22.7634 6.19044 22.4486 8.06168 22.1451 9.93293C22.117 10.1056 22.072 10.1947 21.864 10.139C21.6785 10.0889 21.4818 10.0722 21.2907 10.0722C21.0827 10.0722 21.0096 10.0053 21.049 9.79927C21.0602 9.74914 21.049 9.69902 21.049 9.64333H21.0602C21.167 7.84449 21.2794 6.04564 21.3806 4.24123C21.3918 4.04631 21.4481 3.97948 21.656 4.0129C22.0889 4.07973 22.5273 4.11871 22.9601 4.16327C23.0726 4.1744 23.1007 4.20225 23.0782 4.3192Z" fill="#126AED"/>
<path d="M17.7998 9.10864C16.9398 9.10864 16.254 9.78808 16.254 10.6402C16.254 11.4922 16.9567 12.1884 17.7998 12.1828C18.6599 12.1717 19.3569 11.4811 19.3569 10.6402C19.3569 9.79922 18.6599 9.10864 17.7998 9.10864ZM17.7942 11.3474C17.4007 11.3419 17.0916 11.0189 17.0972 10.6235C17.1084 10.2336 17.4176 9.93845 17.8111 9.94402C18.1933 9.94402 18.5081 10.2503 18.5137 10.6346C18.5193 11.0189 18.1821 11.353 17.7942 11.3474Z" fill="#126AED"/>
<path d="M21.2681 11.2139C20.4194 11.2083 19.7223 11.8933 19.7167 12.7454C19.7111 13.5975 20.3969 14.2825 21.2569 14.2825C22.1169 14.2881 22.814 13.6086 22.8196 12.7566C22.8252 11.9156 22.1226 11.2195 21.2681 11.2139ZM21.2738 13.4527C20.869 13.4527 20.5599 13.1464 20.5599 12.7454C20.5599 12.3444 20.8747 12.0493 21.2569 12.0437C21.6448 12.0381 21.9764 12.3667 21.9764 12.7566C21.9708 13.1408 21.6616 13.4471 21.2738 13.4527Z" fill="#126AED"/>
</g>
<defs>
<clipPath id="clip0_758_2034">
<rect width="20" height="25" fill="white" transform="translate(4 1)"/>
</clipPath>
</defs>
</svg>
