<svg width="42" height="42" viewBox="0 0 42 42" fill="none" xmlns="http://www.w3.org/2000/svg">
<g clip-path="url(#clip0_758_1911)">
<path d="M41 15.0269C40.8812 15.5758 40.7806 16.1289 40.6404 16.6725C40.1127 18.7224 38.9686 20.4053 37.4722 21.8733C36.9499 22.3849 36.4244 22.8945 35.8935 23.3976C35.7137 23.5678 35.6559 23.6785 35.8742 23.8944C36.7551 24.7678 36.997 25.8103 36.5089 26.9538C36.0177 28.1037 35.1079 28.6909 33.8395 28.6729C33.6158 28.6697 33.6191 28.7516 33.6137 28.9207C33.5709 30.6206 32.4524 31.7269 30.7324 31.7716C30.5729 31.7759 30.4926 31.7801 30.4937 31.9748C30.5055 33.2843 29.8986 34.2183 28.6752 34.6885C27.439 35.164 26.3783 34.8076 25.4953 33.8587C25.4546 33.8151 25.4075 33.7779 25.3529 33.7289C25.4343 33.7279 25.5199 33.7726 25.6119 33.8608C25.7372 33.9811 25.8752 34.0853 26.0112 34.1927C26.8856 34.881 27.8511 34.9629 28.8325 34.514C29.8076 34.0693 30.3224 33.2598 30.4038 32.1918C30.4412 31.7003 30.4701 31.662 30.8865 31.6418C32.3475 31.5716 33.3782 30.5823 33.5238 29.1079C33.5552 28.7874 33.7279 28.6115 34.0418 28.5803C35.4482 28.441 36.3784 27.5953 36.6138 26.2166C36.7476 25.4316 36.479 24.7465 35.9759 24.1561C35.5499 23.6561 35.5414 23.6253 36.0016 23.1519C36.8258 22.302 37.728 21.5286 38.4826 20.6127C39.6932 19.1447 40.4724 17.4831 40.7656 15.5992C40.7956 15.4056 40.7057 15.1268 41 15.0269Z" fill="#FEFEFE"/>
<path d="M25.3262 33.7309C25.0575 34.2234 24.6529 34.5809 24.2601 34.9479C23.1331 36.0031 21.9974 37.0488 20.88 38.1136C20.0088 38.9444 19.0048 39.2285 17.8713 38.8072C16.7282 38.3828 16.1064 37.5254 16.0261 36.3063C16.0143 36.1244 15.994 36.0723 15.781 36.0914C14.0556 36.2446 12.676 35.001 12.6685 33.2884C12.6674 33.0618 12.6246 33.0097 12.3934 33.0075C10.7761 32.9916 9.59127 31.8406 9.54417 30.2418C9.53775 30.029 9.51635 29.9599 9.2691 29.9652C8.1292 29.9886 7.25367 29.5014 6.71316 28.5025C6.17585 27.5079 6.22295 26.5111 6.88441 25.5803C7.03426 25.3697 6.97967 25.2846 6.82768 25.1346C5.61393 23.94 4.39911 22.7454 3.20034 21.5359C0.980478 19.2977 -0.109116 16.6032 0.00861997 13.4587C0.0888946 11.3301 0.769623 9.38554 1.98659 7.63032C2.24882 7.25269 2.59453 7.16014 2.89958 7.37396C3.1982 7.58352 3.22603 7.93031 2.96166 8.31964C1.78858 10.0483 1.171 11.9492 1.20097 14.0374C1.23522 16.5011 2.10539 18.6509 3.81043 20.4349C5.07769 21.7614 6.41132 23.0273 7.70321 24.3325C7.89052 24.5219 7.97829 24.4751 8.1399 24.3198C9.15244 23.3571 10.1714 22.4007 11.1946 21.4487C12.8055 19.9477 15.3475 20.6679 15.8891 22.7699C15.9661 23.0688 15.827 23.4773 16.0111 23.6411C16.192 23.8017 16.5944 23.6921 16.8888 23.7538C18.2363 24.0336 19.1279 25.125 19.1322 26.5079C19.1322 26.7558 19.1857 26.8047 19.4351 26.8058C20.9956 26.8079 22.1409 27.894 22.2543 29.4673C22.2682 29.6652 22.3121 29.6939 22.5069 29.6854C24.1745 29.6141 25.2866 30.4854 25.6055 32.0927C25.613 32.131 25.6087 32.1736 25.6205 32.2108C25.8067 32.8129 27.1575 33.7277 27.7986 33.6788C28.4237 33.632 28.8807 33.3224 29.144 32.7597C29.4159 32.1799 29.3313 31.6236 28.9514 31.114C28.8572 30.9864 28.7362 30.8789 28.6228 30.7662C26.1054 28.2589 23.5869 25.7527 21.0695 23.2464C20.9656 23.1432 20.8533 23.0443 20.773 22.9241C20.5921 22.6571 20.6242 22.3901 20.8554 22.1688C21.0738 21.9603 21.3349 21.9454 21.5875 22.105C21.7095 22.1816 21.8101 22.2933 21.914 22.3965C24.4506 24.9208 26.9895 27.444 29.5208 29.9747C29.9072 30.3609 30.3374 30.6226 30.8972 30.5822C31.5694 30.5343 32.0532 30.196 32.3015 29.5695C32.5487 28.9397 32.4182 28.3631 31.9526 27.8813C31.305 27.2121 30.6361 26.5632 29.9757 25.9058C28.0427 23.9815 26.1096 22.0571 24.1766 20.1328C24.0824 20.0392 23.9797 19.9498 23.9048 19.8413C23.7089 19.5605 23.7378 19.2828 23.9893 19.0562C24.2269 18.8424 24.4988 18.8488 24.7557 19.035C24.8627 19.1126 24.9516 19.2147 25.0457 19.3084C27.5921 21.8433 30.1405 24.3761 32.6825 26.9143C33.1899 27.4206 33.7711 27.627 34.4625 27.3909C35.6003 27.0015 35.9032 25.6101 35.033 24.7389C33.6041 23.3071 32.1613 21.8901 30.7238 20.4668C30.6393 20.3828 30.5472 20.304 30.4734 20.2104C30.2636 19.9466 30.2615 19.6711 30.4798 19.4147C30.6821 19.1775 31.0471 19.1637 31.3082 19.3701C31.3917 19.4349 31.4634 19.5158 31.5394 19.5903C32.5605 20.6019 33.5848 21.6093 34.5995 22.6273C34.7504 22.7784 34.8307 22.8092 34.9966 22.639C35.7394 21.8774 36.54 21.1668 37.2453 20.3732C39.7735 17.5297 40.4767 14.2618 39.2169 10.6865C37.9475 7.08355 35.3434 4.91346 31.5362 4.30712C27.1543 3.60928 22.9714 5.92511 21.1819 9.95572C21.0673 10.2131 20.925 10.4461 20.7537 10.6674C19.0915 12.8077 17.4314 14.9501 15.7713 17.0925C15.2522 17.7638 15.4021 18.235 16.2273 18.468C17.1028 18.7148 17.9484 18.5882 18.7415 18.1659C19.9467 17.5234 20.9753 16.6298 22.0542 15.8096C22.9233 15.149 23.7913 14.4884 24.6476 13.8119C24.9109 13.6034 25.1763 13.5374 25.4996 13.5991C27.0644 13.8991 28.6046 13.7597 30.1255 13.3193C30.6061 13.18 30.9176 13.3119 31.0235 13.6991C31.1209 14.0512 30.9229 14.3235 30.4605 14.464C29.3174 14.8118 28.1476 14.9778 26.9477 14.948C26.9103 15.0895 27.0387 15.1288 27.1029 15.1926C27.8554 15.9458 28.6142 16.6915 29.3688 17.4425C29.6995 17.7723 29.7423 18.1233 29.4951 18.385C29.2264 18.6669 28.8754 18.6339 28.5211 18.285C27.47 17.2478 26.4158 16.2128 25.3743 15.165C25.1977 14.9863 25.0928 14.9778 24.8916 15.1331C23.3536 16.3181 21.8198 17.5117 20.2517 18.6573C19.1129 19.4903 17.8392 19.9434 16.39 19.7307C16.0839 19.686 15.7917 19.6062 15.5091 19.4839C14.2386 18.9297 13.8758 17.5968 14.7181 16.5021C16.314 14.4278 17.9152 12.3577 19.5335 10.3014C19.7583 10.0164 19.7647 9.80998 19.6085 9.49936C17.8178 5.92404 13.7013 3.74438 9.73255 4.25393C7.88624 4.49115 6.24007 5.16026 4.80048 6.33253C4.55216 6.53464 4.28672 6.62187 3.99452 6.4421C3.75156 6.29211 3.68306 6.06127 3.74621 5.78682C3.78153 5.63363 3.88321 5.53151 3.99773 5.43896C6.31821 3.57524 8.97048 2.76146 11.9331 3.06783C15.6557 3.45291 18.4814 5.27834 20.4091 8.4707C20.4283 8.50261 20.454 8.53027 20.4819 8.56537C20.6231 8.50261 20.6488 8.36007 20.7131 8.25476C23.1363 4.23159 27.5899 2.49765 31.7353 3.12527C36.8333 3.89757 39.9319 7.6867 40.7721 11.7322C40.8513 12.113 40.8374 12.513 41.0001 12.8779C40.7678 12.8385 40.8342 12.6417 40.8117 12.5045C40.482 10.4748 39.736 8.62388 38.427 7.01653C36.9039 5.14643 34.9591 3.92522 32.598 3.40079C29.2382 2.65402 26.1632 3.30505 23.4071 5.36876C22.3838 6.13467 21.5618 7.0878 20.8897 8.17072C20.8757 8.19306 20.8618 8.2154 20.8479 8.2388C20.5364 8.74196 20.4669 8.75153 20.1618 8.25795C19.4126 7.04312 18.4547 6.02084 17.3051 5.17728C15.7788 4.05607 14.0588 3.42313 12.1804 3.18803C10.0537 2.92315 8.03287 3.28377 6.10842 4.19542C5.38488 4.53795 4.7095 4.96984 4.10156 5.49428C3.82006 5.73895 3.76547 6.0017 3.93565 6.22402C4.10584 6.44529 4.4355 6.47826 4.72449 6.24955C5.52402 5.61661 6.38243 5.07409 7.34679 4.7422C11.2428 3.39653 14.7224 4.11989 17.7707 6.88037C18.5703 7.60373 19.1579 8.48453 19.6791 9.41852C19.8718 9.7653 19.8579 10.044 19.6085 10.3621C18.1582 12.2152 16.7218 14.0789 15.2801 15.9383C15.1013 16.1692 14.9183 16.399 14.7492 16.6372C14.0535 17.6212 14.3146 18.7265 15.3882 19.2935C16.2701 19.7594 17.2024 19.7722 18.1528 19.5424C19.0658 19.3222 19.8589 18.8584 20.5953 18.301C21.9964 17.2404 23.3857 16.1639 24.7867 15.1022C25.1453 14.831 25.202 14.8278 25.5252 15.1458C26.511 16.1181 27.4893 17.0957 28.4719 18.0712C28.5757 18.1744 28.6742 18.284 28.7994 18.3616C28.9899 18.4807 29.1794 18.4807 29.357 18.3393C29.5251 18.2063 29.539 18.0244 29.4887 17.8329C29.4405 17.6446 29.3014 17.5148 29.1697 17.3829C28.5382 16.7543 27.9057 16.1266 27.2731 15.4979C27.1885 15.4128 27.0997 15.332 27.0237 15.2394C26.9573 15.1586 26.8621 15.0714 26.9177 14.9607C26.9702 14.8554 27.0965 14.8501 27.2025 14.8522C27.8329 14.8661 28.4526 14.7799 29.0723 14.6842C29.5219 14.614 29.9618 14.5044 30.3952 14.3693C30.5376 14.3257 30.6703 14.2682 30.7752 14.1587C30.9026 14.0246 30.9764 13.8746 30.8994 13.6895C30.8277 13.5183 30.7003 13.4098 30.5087 13.3885C30.3321 13.3683 30.1651 13.4108 29.9971 13.4587C28.5521 13.8693 27.0858 13.9768 25.6023 13.73C25.217 13.6661 24.9077 13.7502 24.5973 13.9831C23.1042 15.1001 21.6656 16.2862 20.1543 17.3776C19.6577 17.7361 19.1589 18.0935 18.597 18.3499C17.8585 18.6861 17.0921 18.7882 16.2958 18.5999C16.1652 18.569 16.0389 18.5265 15.9191 18.4659C15.34 18.1723 15.2137 17.6744 15.6001 17.1606C16.2883 16.2468 16.9979 15.3501 17.6947 14.4448C18.7244 13.1066 19.7776 11.7865 20.7901 10.4355C20.9111 10.2748 21.001 10.0993 21.0834 9.91742C21.4997 9.0079 22.0146 8.16433 22.6782 7.40374C23.7164 6.21445 24.9655 5.31876 26.4393 4.78156C29.8569 3.53482 33.1021 3.90501 36.0337 6.08254C38.2718 7.74521 39.4909 10.0525 39.8206 12.7981C40.1941 15.9139 39.1773 18.568 36.982 20.7934C36.3848 21.3997 35.779 21.9986 35.17 22.5943C34.8307 22.9262 34.7547 22.9273 34.4175 22.5954C33.4607 21.6518 32.5102 20.7019 31.5565 19.7551C31.4431 19.6424 31.3371 19.52 31.1937 19.4435C30.9732 19.3254 30.7474 19.3105 30.5751 19.5126C30.4092 19.7051 30.422 19.9285 30.5686 20.137C30.6457 20.2455 30.7474 20.3328 30.8416 20.4264C32.2383 21.8157 33.6383 23.2007 35.0308 24.5932C35.5103 25.0729 35.7704 25.6293 35.581 26.3218C35.2813 27.4143 34.0279 27.9153 33.0507 27.3355C32.8313 27.2058 32.6408 27.0419 32.461 26.8622C30.2154 24.6293 27.9699 22.3965 25.7211 20.1658C25.4846 19.9307 25.3026 19.6488 25.0564 19.4232C24.9194 19.2967 24.7857 19.1647 24.6112 19.0913C24.3918 18.9988 24.1884 19.0211 24.0321 19.2116C23.8791 19.3966 23.8673 19.5977 24 19.8009C24.0964 19.9466 24.2269 20.0615 24.35 20.1828C26.8792 22.6975 29.4073 25.2123 31.9387 27.7238C32.4321 28.2132 32.6429 28.7769 32.4481 29.4588C32.1292 30.5758 30.7923 31.0417 29.8365 30.3726C29.5957 30.2035 29.3784 30.0088 29.1708 29.8014C26.7625 27.4111 24.4282 24.9495 21.9932 22.5869C21.8497 22.4486 21.7224 22.289 21.5351 22.2061C21.3092 22.105 21.0909 22.1061 20.9143 22.3061C20.7387 22.506 20.7569 22.7145 20.9046 22.9252C21.0202 23.089 21.1647 23.2262 21.3071 23.3666C23.7881 25.8346 26.2702 28.3014 28.7534 30.7673C28.9621 30.9747 29.1622 31.1843 29.2714 31.4662C29.5636 32.2182 29.3174 33.0416 28.6656 33.4724C27.9688 33.9341 27.1008 33.8564 26.5025 33.2767C26.3205 33.1001 26.1514 32.9107 25.9619 32.7448C25.6804 32.498 25.5263 32.198 25.4343 31.8342C25.1164 30.5758 24.0942 29.7971 22.7756 29.7748C22.4088 29.7684 22.1976 29.5776 22.1419 29.2025C21.9525 27.9142 20.8843 26.9664 19.5582 26.9079C19.099 26.8888 19.0626 26.8526 19.0337 26.4016C18.9395 24.9229 17.8403 23.8517 16.3654 23.8038C15.8955 23.7889 15.8463 23.7389 15.8313 23.2677C15.7853 21.8954 14.6464 20.8157 13.2636 20.771C12.4116 20.7444 11.7458 21.0572 11.1497 21.6295C10.1907 22.5507 9.19953 23.4379 8.2448 24.3634C8.01361 24.5878 7.81345 24.5783 7.59404 24.3538C6.15337 22.8805 4.59177 21.5199 3.256 19.9477C2.07542 18.5595 1.3947 16.9276 1.17314 15.1139C0.875586 12.6673 1.45142 10.4312 2.80753 8.38028C2.83643 8.33667 2.86747 8.29305 2.89315 8.24624C3.07404 7.9218 3.03872 7.6133 2.80432 7.46331C2.56028 7.30694 2.28949 7.38672 2.06258 7.71649C0.997603 9.26746 0.356477 10.9663 0.159536 12.846C-0.05667 14.9161 0.328648 16.8628 1.24913 18.7073C1.74255 19.6977 2.3901 20.5881 3.19178 21.3689C4.40232 22.5475 5.59359 23.7464 6.78915 24.9399C7.13915 25.2889 7.13915 25.342 6.88334 25.7569C6.32998 26.6505 6.31392 27.5781 6.81377 28.4791C7.31575 29.3844 8.14097 29.8471 9.17705 29.8748C9.50671 29.8843 9.61054 29.9716 9.63622 30.2949C9.7561 31.8055 10.7504 32.7969 12.2564 32.9054C12.6107 32.931 12.7338 33.0565 12.7605 33.4065C12.8815 35.0234 14.0888 36.084 15.7082 35.9967C16.0282 35.9797 16.0978 36.1159 16.1246 36.3786C16.2765 37.8711 17.3051 38.6317 18.3316 38.8338C19.1514 38.9944 19.9124 38.8264 20.5375 38.2689C21.8176 37.1275 23.0282 35.9116 24.3094 34.7691C24.5962 34.5128 24.8745 34.2426 25.0875 33.916C25.1613 33.8032 25.2405 33.7415 25.3262 33.7309Z" fill="#FEFEFE"/>
<path d="M40.7721 11.7322C39.9319 7.6867 36.8333 3.89757 31.7353 3.12527C27.5899 2.49765 23.1363 4.23159 20.7131 8.25476C20.6488 8.36007 20.6231 8.50261 20.4819 8.56537C20.454 8.53027 20.4283 8.50261 20.4091 8.4707C18.4814 5.27834 15.6557 3.45291 11.9331 3.06783C8.97048 2.76146 6.31821 3.57524 3.99773 5.43896C3.88321 5.53151 3.78153 5.63363 3.74621 5.78682C3.68306 6.06127 3.75156 6.29211 3.99452 6.4421C4.28672 6.62187 4.55216 6.53464 4.80048 6.33253C6.24007 5.16026 7.88624 4.49115 9.73255 4.25393C13.7013 3.74438 17.8178 5.92404 19.6085 9.49936C19.7647 9.80998 19.7583 10.0164 19.5335 10.3014C17.9152 12.3577 16.314 14.4278 14.7181 16.5021C13.8758 17.5968 14.2386 18.9297 15.5091 19.4839C15.7917 19.6062 16.0839 19.686 16.39 19.7307C17.8392 19.9434 19.1129 19.4903 20.2517 18.6573C21.8198 17.5117 23.3536 16.3181 24.8916 15.1331C25.0928 14.9778 25.1977 14.9863 25.3743 15.165C26.4158 16.2128 27.47 17.2478 28.5211 18.285C28.8754 18.6339 29.2264 18.6669 29.4951 18.385C29.7423 18.1233 29.6995 17.7723 29.3688 17.4425C28.6142 16.6915 27.8554 15.9458 27.1029 15.1926C27.0387 15.1288 26.9103 15.0895 26.9477 14.948C28.1476 14.9778 29.3174 14.8118 30.4605 14.464C30.9229 14.3235 31.1209 14.0512 31.0235 13.6991C30.9176 13.3119 30.6061 13.18 30.1255 13.3193C28.6046 13.7597 27.0644 13.8991 25.4996 13.5991C25.1763 13.5374 24.9109 13.6034 24.6476 13.8119C23.7913 14.4884 22.9233 15.149 22.0542 15.8096C20.9753 16.6298 19.9467 17.5234 18.7415 18.1659C17.9484 18.5882 17.1028 18.7148 16.2273 18.468C15.4021 18.235 15.2522 17.7638 15.7713 17.0925C17.4314 14.9501 19.0915 12.8077 20.7537 10.6674C20.925 10.4461 21.0673 10.2131 21.1819 9.95572C22.9714 5.92511 27.1543 3.60928 31.5362 4.30712C35.3434 4.91346 37.9475 7.08355 39.2169 10.6865C40.4767 14.2618 39.7735 17.5297 37.2453 20.3732C36.54 21.1668 35.7394 21.8774 34.9966 22.639C34.8307 22.8092 34.7504 22.7784 34.5995 22.6273C33.5848 21.6093 32.5605 20.6019 31.5394 19.5903C31.4634 19.5158 31.3917 19.4349 31.3082 19.3701C31.0471 19.1637 30.6821 19.1775 30.4798 19.4147C30.2615 19.6711 30.2636 19.9466 30.4734 20.2104C30.5472 20.304 30.6393 20.3828 30.7238 20.4668C32.1613 21.8901 33.6041 23.3071 35.033 24.7389C35.9032 25.6101 35.6003 27.0015 34.4625 27.3909C33.7711 27.627 33.1899 27.4206 32.6825 26.9143C30.1405 24.3761 27.5921 21.8433 25.0457 19.3084C24.9516 19.2147 24.8627 19.1126 24.7557 19.035C24.4988 18.8488 24.2269 18.8424 23.9893 19.0562C23.7378 19.2828 23.7089 19.5605 23.9048 19.8413C23.9797 19.9498 24.0824 20.0392 24.1766 20.1328C26.1096 22.0571 28.0427 23.9815 29.9757 25.9058C30.6361 26.5632 31.305 27.2121 31.9526 27.8813C32.4182 28.3631 32.5487 28.9397 32.3015 29.5695C32.0532 30.196 31.5694 30.5343 30.8972 30.5822C30.3374 30.6226 29.9072 30.3609 29.5208 29.9747C26.9895 27.444 24.4506 24.9208 21.914 22.3965C21.8101 22.2933 21.7095 22.1816 21.5875 22.105C21.3349 21.9454 21.0738 21.9603 20.8554 22.1688C20.6242 22.3901 20.5921 22.6571 20.773 22.9241C20.8533 23.0443 20.9656 23.1432 21.0695 23.2464C23.5869 25.7527 26.1054 28.2589 28.6228 30.7662C28.7362 30.8789 28.8572 30.9864 28.9514 31.114C29.3313 31.6236 29.4159 32.1799 29.144 32.7597C28.8807 33.3224 28.4237 33.632 27.7986 33.6788C27.1575 33.7277 25.8067 32.8129 25.6205 32.2108C25.6087 32.1736 25.613 32.131 25.6055 32.0927C25.2866 30.4854 24.1745 29.6141 22.5069 29.6854C22.3121 29.6939 22.2682 29.6652 22.2543 29.4673C22.1409 27.894 20.9956 26.8079 19.4351 26.8058C19.1857 26.8047 19.1332 26.7558 19.1322 26.5079C19.1279 25.125 18.2363 24.0336 16.8888 23.7538C16.5944 23.6921 16.192 23.8017 16.0111 23.6411C15.827 23.4773 15.9661 23.0688 15.8891 22.7699C15.3475 20.6679 12.8055 19.9477 11.1946 21.4487C10.1714 22.4007 9.15244 23.3571 8.1399 24.3198C7.97829 24.4751 7.89052 24.5219 7.70321 24.3325C6.41132 23.0273 5.07769 21.7614 3.81043 20.4349C2.10539 18.6509 1.23522 16.5011 1.20097 14.0374C1.171 11.9492 1.78858 10.0483 2.96166 8.31964C3.22603 7.93031 3.1982 7.58352 2.89958 7.37396C2.59453 7.16014 2.24882 7.25269 1.98659 7.63032C0.769623 9.38554 0.0888946 11.3301 0.00861997 13.4587C-0.109116 16.6032 0.980478 19.2977 3.20034 21.5359C4.39911 22.7454 5.61393 23.94 6.82768 25.1346C6.97967 25.2846 7.03426 25.3697 6.88441 25.5803C6.22295 26.5111 6.17585 27.5079 6.71316 28.5025C7.25367 29.5014 8.1292 29.9886 9.2691 29.9652C9.51635 29.9599 9.53775 30.029 9.54417 30.2418C9.59127 31.8406 10.7761 32.9916 12.3934 33.0075C12.6246 33.0097 12.6674 33.0618 12.6685 33.2884C12.676 35.001 14.0556 36.2446 15.781 36.0914C15.994 36.0723 16.0143 36.1244 16.0261 36.3063C16.1064 37.5254 16.7282 38.3828 17.8713 38.8072C19.0048 39.2285 20.0088 38.9444 20.88 38.1136C21.9974 37.0488 23.1331 36.0031 24.2601 34.9479C24.6529 34.5809 25.0575 34.2234 25.3262 33.7309C25.3294 33.7256 25.3326 33.7192 25.3358 33.7139C25.3422 33.7192 25.3476 33.7245 25.3529 33.7288C25.4075 33.7777 25.4546 33.8149 25.4953 33.8586C26.3783 34.8074 27.439 35.1638 28.6752 34.6883C29.8986 34.2181 30.5055 33.2841 30.4937 31.9746C30.4926 31.78 30.5729 31.7757 30.7324 31.7715C32.4524 31.7268 33.5709 30.6205 33.6137 28.9206C33.6191 28.7514 33.6159 28.6695 33.8396 28.6727C35.1079 28.6908 36.0177 28.1036 36.509 26.9536C36.997 25.8101 36.7551 24.7676 35.8743 23.8943C35.6559 23.6783 35.7137 23.5677 35.8935 23.3975C36.4244 22.8943 36.9499 22.3848 37.4723 21.8731C38.9686 20.4051 40.1128 18.7222 40.6404 16.6723C40.7806 16.1288 40.8813 15.5756 41.0001 15.0267V12.8779C40.8374 12.513 40.8513 12.113 40.7721 11.7322ZM17.7333 35.0372C17.9612 34.8128 18.201 34.6021 18.4311 34.3809C18.7779 34.0468 18.8207 33.7235 18.5638 33.4448C18.3102 33.1714 17.9591 33.1905 17.6187 33.5043C17.2859 33.8107 16.9616 34.1256 16.6297 34.433C15.918 35.0915 14.9429 35.0862 14.3071 34.4224C13.6831 33.7713 13.7045 32.8054 14.396 32.147C15.7039 30.8992 17.0301 29.6684 18.3508 28.4344C18.6634 28.1429 19.0348 27.9802 19.4747 27.9898C20.1447 28.0195 20.6456 28.3238 20.9207 28.9365C21.2043 29.5673 21.0941 30.1598 20.6296 30.6662C20.3427 30.9779 20.0109 31.2502 19.7059 31.5459C19.3955 31.847 19.358 32.197 19.5988 32.4544C19.8407 32.7139 20.2057 32.7054 20.5183 32.4203C20.9111 32.0608 21.291 31.6885 21.6838 31.331C22.387 30.6917 23.3503 30.7034 23.9765 31.3513C24.6026 31.998 24.5866 32.9767 23.9037 33.6267C22.5861 34.883 21.2578 36.1297 19.9178 37.3647C19.2467 37.9828 18.2652 37.9307 17.6573 37.286C17.0493 36.6403 17.0804 35.6797 17.7333 35.0372ZM11.3038 29.0152C12.4919 27.893 13.6896 26.7803 14.8819 25.6622C15.1816 25.3814 15.4588 25.074 15.8784 24.957C16.0357 24.9123 16.1898 24.8921 16.3504 24.8921C16.9915 24.8942 17.5738 25.2814 17.8221 25.8697C18.0811 26.4845 17.9463 27.1579 17.4261 27.6525C16.3579 28.6695 15.2769 29.6737 14.2001 30.6822C13.9678 30.9002 13.7345 31.1194 13.5012 31.3364C12.799 31.9917 11.8111 31.9842 11.1807 31.3204C10.5492 30.6556 10.5942 29.6854 11.3038 29.0152ZM7.99648 28.2674C7.38746 27.6164 7.426 26.6356 8.10458 25.9931C9.40717 24.7602 10.7162 23.5347 12.0263 22.3092C12.5422 21.8263 13.1448 21.7135 13.7987 21.9763C14.3949 22.2156 14.7642 22.8092 14.7567 23.4517C14.7567 23.8985 14.594 24.2804 14.2697 24.5857C12.9446 25.8335 11.6238 27.0856 10.2848 28.3185C9.58164 28.9652 8.61085 28.9248 7.99648 28.2674Z" fill="#DEDEDE"/>
</g>
<defs>
<clipPath id="clip0_758_1911">
<rect width="41" height="36" fill="white" transform="translate(0 3)"/>
</clipPath>
</defs>
</svg>
