<svg width="42" height="42" viewBox="0 0 42 42" fill="none" xmlns="http://www.w3.org/2000/svg">
<g clip-path="url(#clip0_758_1901)">
<path d="M20.9892 19.0435C18.8389 19.0545 17.1022 20.8331 17.0957 23.0321C17.0892 25.2354 18.8194 27.0206 20.9708 27.0317C23.1503 27.0438 24.8989 25.274 24.9043 23.0519C24.9097 20.8375 23.1471 19.0325 20.9892 19.0435ZM21.0043 25.3899C19.7212 25.391 18.6877 24.3373 18.6952 23.0354C18.7017 21.7323 19.7482 20.672 21.0162 20.682C22.2723 20.693 23.294 21.7401 23.3058 23.0277C23.3166 24.3296 22.2863 25.3877 21.0043 25.3899Z" fill="#DEDEDE"/>
<path d="M31.3671 34.6723C30.9211 34.1019 30.3497 33.6991 29.7136 33.3825C28.5979 32.8264 27.4045 32.5208 26.2025 32.2692C26.2025 32.2229 26.1917 32.1898 26.2035 32.171C26.291 32.0331 26.3828 31.8974 26.4735 31.7617C27.559 30.1243 28.5893 28.4539 29.3691 26.6345C30.0311 25.0898 30.3443 23.5076 30.0344 21.8195C29.301 17.8232 26.3699 14.8608 22.3446 14.1921C18.7525 13.5952 14.9713 15.3142 13.0165 18.8582C12.0542 20.6036 11.6049 22.4837 11.9581 24.4874C12.1903 25.8081 12.7573 27.014 13.3707 28.1913C14.0976 29.587 14.9487 30.9033 15.8602 32.2571C15.0966 32.4182 14.3914 32.5781 13.7056 32.8098C12.6795 33.1563 11.6816 33.5623 10.9007 34.3656C9.70192 35.598 9.70084 37.1956 10.891 38.4291C11.4894 39.0481 12.2248 39.4409 13.0122 39.7399C15.2683 40.5983 17.6217 40.9094 20.0118 40.9823C22.8382 41.0694 25.6322 40.8488 28.3463 39.9749C29.4954 39.6053 30.5949 39.1209 31.3758 38.118C32.2128 37.0422 32.2052 35.7458 31.3671 34.6723ZM14.4324 26.7106C13.9572 25.7551 13.5425 24.7698 13.4604 23.6797C13.4485 23.5153 13.4593 23.3498 13.4593 23.1854C13.6246 18.8935 17.0353 15.6254 21.2365 15.7225C25.4367 15.8185 28.9252 19.7165 28.5223 23.8728C28.4381 24.7456 28.1109 25.5477 27.748 26.33C26.5437 28.9272 24.9194 31.2519 23.2335 33.5336C22.5682 34.4329 21.8608 35.299 21.1814 36.1872C21.0486 36.3604 20.9741 36.3836 20.8261 36.1971C18.4522 33.2048 16.1507 30.1618 14.4324 26.7106ZM30.07 37.1713C29.6596 37.648 29.1153 37.9238 28.5537 38.1588C27.0071 38.8065 25.3762 39.068 23.7281 39.2401C22.8166 39.335 21.9007 39.3493 20.9849 39.367C18.5829 39.3383 16.2026 39.1419 13.9086 38.3376C13.2833 38.1191 12.6795 37.8499 12.1676 37.4108C11.4224 36.7719 11.4159 36.0327 12.1708 35.3983C13.0781 34.6348 14.1872 34.3325 15.2964 34.0478C15.7263 33.9375 16.1702 33.8889 16.6 33.7797C16.8398 33.719 16.9629 33.8073 17.1011 33.9893C17.9144 35.0662 18.7298 36.143 19.5647 37.2033C20.4622 38.3431 21.5325 38.3464 22.4278 37.2122C23.2562 36.1629 24.0651 35.0993 24.8686 34.0323C25.0231 33.8271 25.157 33.7311 25.4292 33.7819C26.7144 34.0213 27.9823 34.3093 29.1531 34.9338C29.5008 35.1202 29.8248 35.3398 30.0797 35.6498C30.4977 36.1552 30.4977 36.6737 30.07 37.1713Z" fill="#DEDEDE"/>
<path d="M20.9957 3.9393e-05C24.6181 0.0607229 27.7804 1.26557 30.3422 3.94999C30.7083 4.33395 31.0442 4.7477 31.338 5.19345C31.6188 5.61823 31.5605 6.09487 31.2041 6.3685C30.826 6.65868 30.3616 6.58255 30.0398 6.14894C27.465 2.68556 23.9658 1.35825 19.839 1.71242C16.6443 1.98605 13.9713 3.3939 12.0207 6.07391C11.6622 6.5671 11.2107 6.67302 10.8079 6.37512C10.4126 6.08274 10.3737 5.59727 10.7258 5.10518C12.4473 2.69991 14.7737 1.21812 17.5623 0.451304C18.6845 0.14237 19.8293 -0.00768397 20.9957 3.9393e-05Z" fill="#DEDEDE"/>
<path d="M29.0547 8.71081C29.0223 9.07601 28.8636 9.34633 28.5223 9.47322C28.1832 9.599 27.8829 9.51404 27.6464 9.24041C27.3969 8.95244 27.1841 8.62916 26.9195 8.35885C25.1353 6.53834 22.9429 5.7969 20.4653 5.94254C18.2135 6.07383 16.2716 6.94106 14.7672 8.71081C14.644 8.85535 14.5382 9.01643 14.4194 9.16428C14.0975 9.5659 13.6493 9.64423 13.281 9.3673C12.8998 9.08153 12.8404 8.60268 13.1493 8.16797C14.2649 6.59351 15.7413 5.49569 17.5352 4.89216C21.0745 3.70387 24.3707 4.18602 27.3515 6.53724C27.9294 6.99291 28.4143 7.54679 28.8441 8.14921C28.9673 8.32133 29.0407 8.50559 29.0558 8.71081H29.0547Z" fill="#DEDEDE"/>
<path d="M20.9967 8.38208C23.3771 8.47035 25.2801 9.47659 26.6301 11.5178C26.9617 12.0198 26.9044 12.5075 26.5037 12.7899C26.0955 13.0779 25.6289 12.9311 25.2822 12.406C23.1881 9.23496 18.8215 9.23937 16.7144 12.4148C16.3796 12.919 15.9249 13.0691 15.5221 12.8087C15.0987 12.535 15.0318 12.0275 15.3752 11.5111C16.7187 9.48762 18.6077 8.47807 20.9967 8.38318V8.38208Z" fill="#DEDEDE"/>
<path d="M20.9892 19.0435C18.8389 19.0545 17.1022 20.8331 17.0957 23.0321C17.0892 25.2354 18.8194 27.0206 20.9708 27.0317C23.1503 27.0438 24.8989 25.274 24.9043 23.0519C24.9097 20.8375 23.1471 19.0325 20.9892 19.0435ZM21.0043 25.3899C19.7212 25.391 18.6877 24.3373 18.6952 23.0354C18.7017 21.7323 19.7482 20.672 21.0162 20.682C22.2723 20.693 23.294 21.7401 23.3058 23.0277C23.3166 24.3296 22.2863 25.3877 21.0043 25.3899Z" fill="#FEFEFE"/>
<path d="M20.9892 19.0435C18.8389 19.0545 17.1022 20.8331 17.0957 23.0321C17.0892 25.2354 18.8194 27.0206 20.9708 27.0317C23.1503 27.0438 24.8989 25.274 24.9043 23.0519C24.9097 20.8375 23.1471 19.0325 20.9892 19.0435ZM21.0043 25.3899C19.7212 25.391 18.6877 24.3373 18.6952 23.0354C18.7017 21.7323 19.7482 20.672 21.0162 20.682C22.2723 20.693 23.294 21.7401 23.3058 23.0277C23.3166 24.3296 22.2863 25.3877 21.0043 25.3899Z" fill="#DEDEDE"/>
</g>
<defs>
<clipPath id="clip0_758_1901">
<rect width="22" height="41" fill="white" transform="translate(10)"/>
</clipPath>
</defs>
</svg>
